<?xml version="1.0" encoding="utf-8"?>
<!-- Generator: Adobe Illustrator 19.2.1, SVG Export Plug-In . SVG Version: 6.00 Build 0)  -->
<svg version="1.1" id="Layer_2_Image" xmlns="http://www.w3.org/2000/svg" xmlns:xlink="http://www.w3.org/1999/xlink" x="0px"
	 y="0px" viewBox="0 0 960 287.5" style="enable-background:new 0 0 960 287.5;" xml:space="preserve">
<style type="text/css">
	.st0{fill:none;}
	.st1{fill:#FFFFFF;}
</style>
<g>
	<path class="st0" d="M340.7,151.8c1.6,3.6,3.9,5.4,7,5.4h0c3.1,0,5.4-1.7,6.9-5.2l-7.1-7.7L340.7,151.8z"/>
	<path class="st1" d="M434.4,81.9c2.9,3,6.9,4.6,11.1,4.6c4.2,0,8.2-1.7,11.2-4.7c6.1-6.2,6.1-16.2-0.1-22.3
		c-6.2-6.1-16.2-6.1-22.3,0.1C428.2,65.8,428.2,75.8,434.4,81.9L434.4,81.9z"/>
	<path class="st1" d="M430,122.7c0,3.2-1.7,4.8-5,4.8h-26.8h-0.3h-18.5l-32.1-35l-31.9,35h-19.4c-0.2,0-0.4,0-0.6,0h-2.6
		c-3.3,0-5-1.6-5-4.8V50.4h-38v91.7c0,6,1.9,11,5.7,14.7c3.8,3.8,8.7,5.7,14.6,5.7H296v0h14.6c2.9,7.7,7.9,14.4,14.4,19.3
		c13.6,9.7,31.8,9.7,45.4,0c6.5-4.9,11.5-11.6,14.3-19.3h12.7c0.2,0,0.4,0,0.6,0.1h49.5c5.5,0.2,10.8-1.9,14.8-5.7
		c3.9-3.8,5.8-8.7,5.8-14.7v-41.3h-38V122.7z M347.7,157.3L347.7,157.3c-3.1,0-5.4-1.8-7-5.4l6.7-7.5l7.1,7.7
		C353.1,155.5,350.8,157.3,347.7,157.3z"/>
	<path class="st1" d="M672.2,100.8v21.9c0,3.2-1.7,4.8-5,4.8h-27.1c-0.2,0-0.5,0-0.7,0h-9.3l-24-32L544.4,144l23.4,26.7
		c-3.2,3.1-7,5.5-11.2,7c-4.4,1.6-9,2.5-13.7,2.5c-4.4,0.1-8.8-0.8-12.9-2.4c-3.8-1.5-7.2-4.1-9.6-7.5c-2.6-3.5-3.9-7.8-3.8-12.1
		c0-6.8,2.5-14.4,7.6-22.6l-31.6-16.7c-7.2,17.2-10.8,32.5-10.8,45.9c-0.1,8,1.4,16,4.5,23.4c2.8,6.6,7.1,12.4,12.6,17
		c11,8.9,25.4,13.4,43.3,13.4c6.7-0.1,13.4-1.2,19.8-3.3c3.2-1,6.4-2.3,9.4-3.8c3.3-1.6,6.6-3.4,9.8-5.3c4.9-3,9.7-6.4,14.2-10
		c7.2-5.9,14.1-12.2,20.7-19L592.7,149l5.7-4.3l15.7,17.9H640c0,0,0.1,0,0.1,0h49.5c5.5,0.2,10.8-1.9,14.8-5.7
		c3.9-3.8,5.8-8.7,5.8-14.7v-41.3H672.2z"/>
	<path class="st1" d="M673.6,177.2c-8.6-0.1-15.6,6.8-15.7,15.4c-0.1,8.6,6.8,15.6,15.4,15.7v0c4.2,0.1,8.2-1.6,11.1-4.6
		c2.9-2.9,4.5-6.8,4.6-10.9C689.1,184.2,682.2,177.2,673.6,177.2z"/>
</g>
<g>
	<path class="st0" d="M287.1,23.8c-0.1,0.1-0.2,0.2-0.2,0.4c0,0.2-0.1,0.3-0.1,0.5c0,0.3,0.1,0.6,0.3,0.8c0.2,0.2,0.5,0.2,0.8,0.2
		c0.5,0,0.9-0.1,1.3-0.2h0v-1.8h-0.2C288.4,23.5,287.7,23.6,287.1,23.8z"/>
	<path class="st0" d="M257.5,19.7c0.2-0.1,0.3-0.3,0.4-0.5c0.1-0.3,0.2-0.6,0.2-0.9c0-0.4-0.1-0.8-0.4-1.1c-0.2-0.2-0.4-0.3-0.6-0.3
		v0c-0.3,0-0.7-0.1-1-0.1c-0.5,0-0.8,0-1.1,0v2.9h1.3C256.7,19.8,257.1,19.8,257.5,19.7z"/>
	<path class="st0" d="M258,22.3c-0.2-0.2-0.4-0.3-0.6-0.3c-0.4-0.1-0.9-0.1-1.3-0.1h-1v3.5c0.8,0,1.4,0,2,0c0.3,0,0.7-0.1,1-0.2
		c0.2-0.2,0.3-0.3,0.3-0.6v0c0.1-0.3,0.1-0.5,0.1-0.8c0-0.3,0-0.6-0.1-0.9C258.3,22.7,258.2,22.5,258,22.3z"/>
	<path class="st0" d="M318.4,23.8c-0.1,0.1-0.2,0.2-0.2,0.4c0,0.2-0.1,0.3-0.1,0.5c0,0.3,0.1,0.6,0.3,0.8c0.2,0.2,0.5,0.2,0.8,0.2
		c0.5,0,0.9-0.1,1.3-0.2v-1.8h-0.2C319.7,23.5,319,23.6,318.4,23.8z"/>
	<path class="st1" d="M259.6,20.8v-0.1c0.7-0.1,1.4-0.5,1.9-1.1c0.4-0.6,0.6-1.3,0.6-2c0.1-0.8-0.2-1.6-0.7-2.2
		c-0.5-0.5-1.2-0.8-1.9-0.9c-1-0.2-2.1-0.2-3.1-0.2h-5.6V28h4.7c3.2,0,5.2-0.2,5.9-0.6c0.2-0.2,0.4-0.4,0.6-0.6
		c0.2-0.4,0.4-0.8,0.6-1.2c0.2-0.5,0.2-1,0.2-1.5c0-0.8-0.2-1.5-0.7-2.2C261.3,21.2,260.5,20.8,259.6,20.8z M255,16.9
		c0.2,0,0.6,0,1.1,0c0.3,0,0.7,0,1,0.1v0c0.2,0,0.4,0.1,0.6,0.3c0.3,0.3,0.4,0.7,0.4,1.1c0,0.3-0.1,0.6-0.2,0.9
		c-0.1,0.2-0.2,0.4-0.4,0.5c-0.4,0.1-0.8,0.1-1.2,0.1H255V16.9z M258.4,24.7L258.4,24.7c0,0.2-0.2,0.4-0.3,0.5
		c-0.3,0.1-0.7,0.2-1,0.2c-0.6,0-1.2,0-2,0V22h1c0.4,0,0.9,0,1.3,0.1c0.2,0,0.4,0.1,0.6,0.3c0.2,0.2,0.3,0.4,0.4,0.6
		c0.1,0.3,0.1,0.6,0.1,0.9C258.5,24.2,258.4,24.4,258.4,24.7z"/>
	<rect x="264.3" y="17" class="st1" width="4.1" height="11"/>
	<path class="st1" d="M266.3,15.6c0.5,0,1-0.2,1.4-0.5c0,0,0.1-0.1,0.1-0.1c0.7-0.7,0.6-1.9-0.1-2.5c-0.4-0.4-0.9-0.6-1.4-0.5
		c-0.5,0-1,0.2-1.4,0.5c0,0-0.1,0.1-0.1,0.1c-0.7,0.7-0.6,1.9,0.1,2.5C265.3,15.4,265.8,15.6,266.3,15.6z"/>
	<path class="st1" d="M281.1,17.6c-0.3-0.3-0.7-0.6-1.1-0.7c-0.5-0.2-1.1-0.2-1.6-0.2c-1.6,0-3.2,0.8-4.1,2.1l-0.5-1.8h-3.3v11h4.1
		v-7.6c0.4-0.2,0.9-0.3,1.4-0.3c0.2,0,0.3,0,0.5,0c0.3,0,0.6,0,0.9,0.2c0.1,0.3,0.2,0.7,0.1,1V28h4.1v-5.8c0-1.4,0-2.5-0.1-3.2
		C281.4,18.5,281.3,18.1,281.1,17.6z"/>
	<path class="st1" d="M293.4,21.6c0-0.9-0.1-1.8-0.3-2.6c-0.2-0.7-0.6-1.3-1.3-1.7c-0.9-0.5-1.9-0.7-2.9-0.6c-0.8,0-1.7,0.1-2.5,0.2
		c-0.9,0.1-1.8,0.3-2.7,0.4c0.1,1,0.2,1.9,0.3,2.8c1.3-0.2,2.4-0.3,3.1-0.3c0.5,0,0.9,0,1.1,0c0.3,0,0.5,0,0.8,0.1
		c0.2,0.5,0.2,1.1,0.1,1.7c-1.4,0-2.8,0.1-4.1,0.4c-0.6,0.2-1.2,0.6-1.6,1.1c-0.4,0.5-0.6,1.1-0.6,1.8c-0.1,1,0.3,1.9,1,2.5
		c0.7,0.6,1.7,0.9,2.6,0.9c1.3,0,2.5-0.7,3.1-1.8L290,28h3.4l-0.1-2.8V21.6z M289.3,25.4L289.3,25.4c-0.4,0.2-0.9,0.2-1.3,0.2
		c-0.3,0-0.6-0.1-0.8-0.2c-0.2-0.2-0.3-0.5-0.3-0.8c0-0.2,0-0.3,0.1-0.5c0-0.1,0.1-0.3,0.2-0.4c0.6-0.2,1.3-0.3,2-0.2h0.2V25.4z"/>
	<path class="st1" d="M311.4,17c-0.5-0.2-1.1-0.3-1.7-0.3c-0.7,0-1.4,0.1-2,0.4c-0.7,0.3-1.3,0.8-1.8,1.4c0-0.3-0.1-0.5-0.2-0.8
		c-0.3-0.4-0.7-0.6-1.1-0.7c-0.5-0.2-1.1-0.3-1.7-0.3c-0.7,0-1.4,0.2-2.1,0.5c-0.7,0.4-1.3,0.9-1.8,1.5l-0.4-1.8h-3.3v11h4.1v-7.6
		c0.4-0.2,0.9-0.3,1.4-0.3h0.3c0.3,0,0.6,0,0.8,0.2c0.2,0.3,0.2,0.6,0.2,0.9V28h4v-5.8c0-0.9,0-1.4,0-1.8c0.5-0.2,0.9-0.3,1.4-0.3
		h0.3c0.3,0,0.6,0,0.8,0.2c0.2,0.3,0.2,0.7,0.2,1.1V28h4.1v-5.8c0-2.6-0.1-4.1-0.3-4.5C312.2,17.3,311.8,17.1,311.4,17z"/>
	<path class="st1" d="M324.7,25.2v-3.5c0-0.9-0.1-1.8-0.3-2.6c-0.2-0.7-0.6-1.3-1.3-1.7c-0.9-0.5-1.9-0.7-2.9-0.6
		c-0.8,0-1.7,0.1-2.5,0.2c-0.9,0.1-1.8,0.3-2.7,0.4c0.1,1,0.2,1.9,0.3,2.8c1.3-0.2,2.4-0.3,3.1-0.3c0.5,0,0.9,0,1.1,0
		c0.3,0,0.5,0,0.8,0.1c0.2,0.5,0.2,1.1,0.1,1.7c-1.4,0-2.8,0.1-4.1,0.4c-0.6,0.2-1.2,0.6-1.6,1.1c-0.4,0.5-0.6,1.1-0.6,1.8
		c-0.1,1,0.3,1.9,1,2.5c0.7,0.6,1.7,0.9,2.6,0.9c1.3,0,2.5-0.7,3.1-1.8l0.4,1.5h0h3.4L324.7,25.2z M320.6,25.4
		c-0.4,0.2-0.9,0.2-1.3,0.2c-0.3,0-0.6-0.1-0.8-0.2c-0.2-0.2-0.3-0.5-0.3-0.8c0-0.2,0-0.3,0.1-0.5c0-0.1,0.1-0.3,0.2-0.4
		c0.6-0.2,1.3-0.3,2-0.2h0.2V25.4z"/>
</g>
<g>
	<path class="st0" d="M318.4,255.5c-0.6,0-0.9,0.6-0.9,1.7l0,0h1.8c0-0.4,0-0.9-0.2-1.3C318.9,255.6,318.7,255.4,318.4,255.5z"/>
	<path class="st0" d="M658,255.5c-0.6,0-0.9,0.6-0.9,1.7h0h1.8c0-0.4,0-0.9-0.2-1.3C658.6,255.7,658.3,255.5,658,255.5z"/>
	<path class="st0" d="M567.5,255.5c-0.6,0-0.9,0.6-0.9,1.7h0h1.8c0-0.4,0-0.9-0.2-1.3C568.1,255.6,567.8,255.5,567.5,255.5z"/>
	<path class="st0" d="M406.7,260.8c0.1,0.5,0.6,0.8,1.1,0.8v0c0.5,0,0.9-0.3,1-0.8l-1.1-1.2L406.7,260.8z"/>
	<path class="st1" d="M255.5,254.5c0.4,0.4,1,0.7,1.7,0.7c0.6,0,1.2-0.2,1.7-0.7c0.9-0.9,0.9-2.4,0-3.3c-0.9-0.9-2.4-0.9-3.3,0
		C254.6,252.1,254.6,253.5,255.5,254.5L255.5,254.5z"/>
	<path class="st1" d="M259.5,260.7c0,0.6-0.2,1.2-0.6,1.6c-0.4,0.5-0.9,0.8-1.5,1c-0.6,0.2-1.2,0.4-1.8,0.3c-0.8,0-1.7-0.2-2.4-0.8
		c-0.7-0.5-1-1.3-1-2.2c0.1-1.4,0.6-2.8,1.4-4l-4.5-2.3c-1.4,2.2-2.1,4.8-2.3,7.4c0,0.9,0.2,1.8,0.5,2.7c0.6,1.5,1.7,2.8,3.1,3.6
		c1.5,0.8,3.1,1.2,4.8,1.2c1.9,0,3.8-0.5,5.5-1.5c0.8-0.5,1.6-1.1,2.2-1.8c0.7-0.7,1.2-1.6,1.5-2.5c0.4-1,0.6-2.1,0.6-3.3v-3.1h-5.6
		V260.7z"/>
	<rect x="267.2" y="245.7" class="st1" width="5.6" height="16.7"/>
	<rect x="284.7" y="264.5" class="st1" width="8.3" height="3.8"/>
	<path class="st1" d="M289.4,256.5c0,0.1,0,0.1,0,0.2c-0.1,0.4-0.4,0.6-0.7,0.5h-4h0h-6.5v2.2c0,1.4-0.4,2.7-1.3,3.8
		c-1.1,1.2-2.5,2.2-4,2.7l2.7,4.7c1.4-0.5,2.8-1.2,4-2.2c0.7-0.5,1.3-1.1,1.8-1.7c0.6-0.6,1-1.3,1.4-2.1c0.4-0.8,0.7-1.6,0.9-2.4
		h0.9c0,0,0,0,0,0h7.4c0.8,0,1.6-0.3,2.2-0.9c0.6-0.6,0.9-1.4,0.9-2.2v-6.1h-5.6V256.5z"/>
	<polygon class="st1" points="284.7,264.5 284.7,264.5 284.7,264.5 	"/>
	<rect x="297.1" y="245.7" class="st1" width="5.6" height="16.7"/>
	<rect x="325.4" y="264.5" class="st1" width="8.3" height="3.8"/>
	<path class="st1" d="M330.1,256.5c0,0.1,0,0.1,0,0.2c-0.1,0.4-0.4,0.6-0.7,0.5h-4v0H324c0.1-1.7-0.4-3.3-1.5-4.7
		c-1-1.2-2.5-1.8-4.1-1.8c-1.1,0-2.2,0.3-3.1,0.8c-0.9,0.6-1.5,1.4-1.9,2.3c-0.4,1-0.7,2.2-0.6,3.3H312c-0.8,0-1.6,0.3-2.1,0.8
		c-0.6,0.6-0.9,1.3-0.8,2.1v10.6h5.7v-7.6c0-0.1,0-0.1,0-0.2c0-0.4,0.4-0.6,0.7-0.6h7.7l0.1-0.7c0.4,0.4,1,0.7,1.6,0.7h0.4
		c0,0,0.1,0,0.1,0h7.3c0.8,0,1.6-0.3,2.2-0.9c0.6-0.6,0.9-1.4,0.9-2.2v-6.1h-5.6V256.5z M317.5,257.2L317.5,257.2
		c0-1.1,0.3-1.7,0.9-1.7c0.3,0,0.6,0.2,0.7,0.4c0.1,0.4,0.2,0.8,0.2,1.3H317.5z"/>
	<path class="st1" d="M360.9,247.9c-0.8-0.6-1.8-0.9-2.9-0.8c-1.5-0.1-3.1,0.5-4.2,1.6c-0.6,0.6-1,1.2-1.2,2
		c-0.3,0.9-0.5,1.9-0.4,2.9l0.1,1.2c0,0.1,0,0.1,0,0.2c0.1,0.5,0.5,0.9,1,0.8h5v1.5h-7.1c0,0,0,0,0,0h-0.5c-0.3,0-0.6-0.1-0.9-0.3
		c-0.3-0.4-0.5-0.8-0.7-1.2l-3.8-7.2l-5,2.8l2.5,4.6c0.2,0.3,0.3,0.6,0.3,0.9c0,0.3-0.3,0.4-0.8,0.4h-4.3v5.2h0h6.6
		c1,0,1.9-0.2,2.7-0.7c1,0.5,2,0.8,3.1,0.7h0.5c0.1,0,0.1,0.1,0.2,0.1h9.1c0.9,0,1.7-0.3,2.3-0.9c0.7-0.6,1-1.5,1-2.4v-5.9
		c0-1.1-0.2-2.2-0.6-3.2C362.4,249.2,361.7,248.5,360.9,247.9z"/>
	<polygon class="st1" points="361.7,241.1 353.4,241.1 353.4,244.9 353.4,244.9 361.7,244.9 	"/>
	<path class="st1" d="M388.1,252.5l-9.2,7.2l3.5,4c-0.5,0.4-1,0.8-1.7,1c-0.6,0.2-1.3,0.4-2,0.4c-0.7,0-1.3-0.1-1.9-0.3
		c-0.6-0.2-1.1-0.6-1.4-1.1c-0.4-0.5-0.6-1.2-0.6-1.8c0.1-1.2,0.5-2.4,1.1-3.4l-4.7-2.5c-1,2.1-1.5,4.5-1.6,6.8
		c0,1.2,0.2,2.4,0.6,3.5c0.4,1,1.1,1.8,1.9,2.5c2.7,1.9,6.2,2.5,9.4,1.5c0.5-0.2,0.9-0.3,1.4-0.6c0.5-0.2,1-0.5,1.5-0.8
		c0.7-0.5,1.4-0.9,2.1-1.5c1.1-0.9,2.1-1.8,3.1-2.8l-3.5-4.2l5-3.7L388.1,252.5z"/>
	<path class="st1" d="M422.4,251.7c0.6,0,1.2-0.2,1.7-0.7c0.9-0.9,0.9-2.4,0-3.3c-0.9-0.9-2.4-0.9-3.3,0c-0.9,0.9-0.9,2.4,0,3.3
		C421.2,251.5,421.8,251.7,422.4,251.7z"/>
	<rect x="426.9" y="264.5" class="st1" width="8.3" height="3.8"/>
	<path class="st1" d="M438.5,257.2h-0.1c-0.3,0-0.6-0.1-0.8-0.3c-0.2-0.2-0.2-0.5-0.2-0.8v-2.3h-4.6v2.3c0,0.1,0,0.2,0,0.3
		c-0.1,0.5-0.5,0.8-1,0.7h-4.8c0,0-0.1,0-0.1,0h-0.2c-0.3,0-0.6-0.1-0.8-0.3c-0.2-0.2-0.2-0.5-0.2-0.8v-2.3H421v2.3
		c0,0.1,0,0.2,0,0.3c-0.1,0.5-0.5,0.8-1,0.7h-4.8h0h-2.8l-4.8-5.2l-4.7,5.2H400c0,0-0.1,0-0.1,0h-0.3c-0.1,0-0.1,0-0.2,0
		c-0.4,0-0.6-0.4-0.6-0.7v-10.8h-5.6v13.6c0,0.1,0,0.2,0,0.3c0.1,1.6,1.4,2.8,3,2.8h3.8v0h2.2c0.4,1.1,1.2,2.1,2.1,2.9
		c2,1.4,4.7,1.4,6.8,0c1-0.7,1.7-1.7,2.1-2.9h1.9c0,0,0,0,0,0h7.5c0.2-0.3,0.4-0.5,0.6-0.7c0.3,0.2,0.5,0.4,0.7,0.7h3v0h7.4
		c0.2-0.3,0.4-0.5,0.6-0.7c0.3,0.2,0.5,0.4,0.7,0.7h3v0h17v-5.2L438.5,257.2C438.5,257.2,438.5,257.2,438.5,257.2z M407.7,261.6
		L407.7,261.6c-0.5,0-0.9-0.3-1.1-0.8l1-1.1l1.1,1.2C408.6,261.3,408.2,261.6,407.7,261.6z"/>
	<path class="st1" d="M501.8,253.2h-5.6v3.3c0,0.1,0,0.1,0,0.2c-0.1,0.4-0.4,0.6-0.7,0.5h-4v0h-1c-0.3,0-0.6-0.1-0.9-0.3
		c-0.5-0.5-0.9-1.1-1.3-1.6l-3.6-4.7l6.5-2.1v-5.3l-11.3,3.5l-1.7,4l5.1,6.4h-10.7c-0.1,0-0.1,0-0.2,0c-0.4,0-0.6-0.4-0.6-0.7v-3.2
		H466v6.1c0,0.8,0.3,1.6,0.9,2.2c0.6,0.6,1.4,0.9,2.2,0.8h22.2c0,0,0,0,0.1,0h7.3c0.8,0,1.6-0.3,2.2-0.9c0.6-0.6,0.9-1.4,0.9-2.2
		V253.2z"/>
	<rect x="491.4" y="264.5" class="st1" width="8.3" height="3.8"/>
	<rect x="504.5" y="251.7" class="st1" width="8.3" height="3.4"/>
	<path class="st1" d="M508.7,251.3c0.5,0,0.9-0.2,1.3-0.5c0.3-0.3,0.5-0.8,0.5-1.3c0,0,0,0,0,0c0-1-0.8-1.8-1.8-1.7
		c-0.5,0-0.9,0.2-1.3,0.5c-0.4,0.3-0.5,0.8-0.5,1.3C506.8,250.5,507.6,251.3,508.7,251.3z"/>
	<path class="st1" d="M516.5,256.5c0,0.1,0,0.1,0,0.2c-0.1,0.4-0.4,0.6-0.7,0.5h-2.1h0h-6.5v2.2c0,1.4-0.4,2.7-1.3,3.8
		c-1.1,1.2-2.5,2.2-4,2.7l2.7,4.7c1.4-0.5,2.8-1.2,4-2.2c0.7-0.5,1.3-1.1,1.8-1.7c0.6-0.6,1-1.3,1.4-2.1c0.4-0.8,0.7-1.6,0.9-2.4h1
		v0c0,0,0,0,0,0h5.5c0.1,0,0.1,0,0.2,0c1.6-0.1,2.9-1.4,2.8-3v-13.6h-5.6V256.5z"/>
	<rect x="533.2" y="248" class="st1" width="8.3" height="3.8"/>
	<path class="st1" d="M542.6,257.2h-0.2c-0.3,0-0.6-0.1-0.8-0.3c-0.2-0.2-0.2-0.5-0.2-0.8v-2.3h-4.6v2.3c0,0.1,0,0.2,0,0.3
		c-0.1,0.5-0.5,0.8-1,0.7H531c0,0-0.1,0-0.1,0h-0.3c-0.1,0-0.1,0-0.2,0c-0.4,0-0.6-0.4-0.6-0.7v-10.8h-5.6v13.6c0,0.1,0,0.2,0,0.3
		c0.1,1.6,1.4,2.8,3,2.8h3.8v0h7.5c0.2-0.3,0.4-0.5,0.6-0.7c0.3,0.2,0.5,0.4,0.6,0.7h3v0h17v-5.2L542.6,257.2
		C542.7,257.2,542.7,257.2,542.6,257.2z"/>
	<path class="st1" d="M578.7,256.5c0,0.1,0,0.1,0,0.2c-0.1,0.4-0.4,0.6-0.7,0.5h-4h0h-0.8c0-1.1-0.2-2.3-0.6-3.3
		c-0.4-0.9-1.1-1.7-1.9-2.3c-1.9-1.1-4.2-1.1-6.1,0c-0.9,0.6-1.5,1.4-1.9,2.3c-0.4,1-0.7,2.2-0.6,3.3l0.9,5.2h4
		c-1.1,1.7-2.7,3-4.6,3.6l2.7,4.7c1.8-0.6,3.5-1.6,4.9-3c0.8-0.7,1.4-1.5,2-2.4c0.6-0.9,1-1.9,1.2-2.9h1c0,0,0,0,0,0h7.3
		c0.8,0,1.6-0.3,2.2-0.9c0.6-0.6,0.9-1.4,0.9-2.2v-6.1h-5.6V256.5z M566.6,257.2L566.6,257.2c0-1.1,0.3-1.7,0.9-1.7
		c0.3,0,0.6,0.2,0.7,0.4c0.2,0.4,0.2,0.8,0.2,1.3H566.6z"/>
	<path class="st1" d="M579.3,250.4c0.4,0.4,1,0.7,1.6,0.7c0.6,0,1.2-0.2,1.7-0.7c0.9-0.9,0.9-2.4,0-3.3c-0.9-0.9-2.4-0.9-3.3,0
		C578.4,248,578.4,249.5,579.3,250.4L579.3,250.4z"/>
	<path class="st1" d="M632.3,257.2c-0.5,0-0.9-0.4-0.9-0.8c-0.1-0.9-0.4-1.7-0.8-2.5c-0.4-0.8-0.9-1.5-1.6-2.1c-1.1-1-2.4-1.7-3.9-2
		c-1.7-0.5-3.5-0.7-5.3-0.7h-0.2l0.4,5.4c0.6,0,1.2,0.1,1.6,0.1s0.8,0.1,1.2,0.2c0.4,0.1,0.8,0.2,1.2,0.3c0.4,0.1,0.8,0.3,1.1,0.5
		c0.3,0.2,0.6,0.4,0.8,0.7c0.2,0.3,0.3,0.6,0.3,0.9v0.1h-7.8c0,0-0.1,0-0.1,0h-1.1c-0.3,0-0.7-0.1-1-0.2c-0.2-0.1-0.4-0.3-0.5-0.5
		c-0.1-0.2-0.2-0.4-0.2-0.6c0-0.2-0.1-0.4-0.2-0.5c0-0.1-0.1-0.2-0.2-0.2c-0.1,0-0.2,0.1-0.2,0.2c-0.1,0.1-0.1,0.3-0.2,0.5
		c-0.1,0.2-0.1,0.4-0.2,0.6c-0.1,0.2-0.3,0.4-0.5,0.5c-0.3,0.2-0.7,0.2-1,0.2h-0.4c-0.3,0-0.7-0.1-1-0.2c-0.2-0.1-0.4-0.3-0.5-0.5
		c-0.1-0.2-0.2-0.4-0.2-0.6c0-0.2-0.1-0.4-0.2-0.5c0-0.1-0.1-0.2-0.2-0.2c-0.1,0-0.2,0.1-0.2,0.2c-0.1,0.2-0.1,0.3-0.2,0.5
		c-0.1,0.2-0.1,0.4-0.2,0.6c-0.1,0.2-0.3,0.4-0.5,0.5c-0.3,0.2-0.7,0.2-1,0.2h-5.3v3.5c0,0.6-0.2,1.2-0.6,1.6
		c-0.4,0.5-0.9,0.8-1.5,1c-0.6,0.2-1.2,0.4-1.8,0.3c-0.8,0-1.7-0.2-2.3-0.8c-0.7-0.5-1-1.3-1-2.2c0.1-1.4,0.6-2.8,1.4-4l-4.5-2.3
		c-1.4,2.2-2.1,4.8-2.3,7.4c0,0.9,0.1,1.9,0.4,2.8c0.6,1.5,1.7,2.8,3.1,3.6c1.5,0.8,3.1,1.2,4.8,1.2c1.7,0,3.4-0.4,4.9-1.1
		c0.7-0.4,1.4-0.8,2.1-1.4c0.6-0.6,1.2-1.3,1.6-2c0.5-0.8,0.8-1.6,1-2.5c0.3,0,0.7-0.1,1-0.2c0.2-0.1,0.4-0.3,0.5-0.5l0.3-0.5
		c0-0.1,0.1-0.2,0.2-0.2c0.1,0,0.1,0.1,0.2,0.1l0.2,0.4c0.1,0.2,0.2,0.3,0.3,0.4c0.1,0.2,0.3,0.3,0.5,0.4c0.3,0.1,0.6,0.2,0.9,0.1
		h0.6c0.5,0,0.9-0.1,1.3-0.4c0.1-0.1,0.2-0.2,0.3-0.3c0.1-0.1,0.1-0.2,0.2-0.4c0-0.1,0.1-0.2,0.1-0.3c0-0.1,0.1-0.1,0.2-0.1
		c0.1,0,0.1,0.1,0.2,0.1l0.2,0.4c0.1,0.2,0.2,0.3,0.3,0.4c0.1,0.2,0.3,0.3,0.5,0.4c0.3,0.1,0.6,0.2,0.9,0.1h1.3v-0.1H633v-5.2h-0.6
		C632.4,257.2,632.3,257.2,632.3,257.2z"/>
	<path class="st1" d="M644.6,259.4c0,1.4-0.4,2.7-1.3,3.8c-1.1,1.2-2.5,2.2-4,2.7l2.7,4.7c1.7-0.6,3.2-1.5,4.5-2.6
		c0.7-0.6,1.4-1.3,1.9-2.1c0.6-0.8,1-1.7,1.3-2.6c0.3-1,0.5-2,0.5-3v-3.1h-5.7V259.4z"/>
	<path class="st1" d="M661.1,251.6c-1.9-1.1-4.2-1.1-6.1,0c-0.9,0.6-1.5,1.4-1.9,2.3c-0.4,1-0.7,2.1-0.7,3.3l0.9,5.2h4
		c-1.1,1.7-2.7,3-4.6,3.6l2.7,4.7c1.7-0.6,3.2-1.5,4.5-2.6c0.7-0.6,1.4-1.3,1.9-2.1c0.6-0.8,1-1.7,1.3-2.6c0.3-1,0.5-2,0.5-3v-3.1
		c0-1.1-0.2-2.3-0.6-3.3C662.6,253,661.9,252.2,661.1,251.6z M657.1,257.2L657.1,257.2c0-1.1,0.3-1.7,0.9-1.7c0.3,0,0.6,0.1,0.7,0.4
		c0.2,0.4,0.2,0.8,0.2,1.3H657.1z"/>
	<rect x="665.7" y="249.1" class="st1" width="5.6" height="13.3"/>
	<path class="st1" d="M671.6,242.4c-0.4,0.7-1.2,1.2-2,1.3c-0.5,0-1-0.2-1.5-0.3c-0.5-0.2-1.1-0.3-1.7-0.3c-1.2,0-2.4,0.8-3.6,2.4
		l2.2,2.6c0.4-0.7,1.2-1.2,2-1.2c0.6,0,1.1,0.1,1.7,0.3c0.6,0.2,1.2,0.3,1.8,0.3c1.4,0,2.6-0.9,3.6-2.6L671.6,242.4z"/>
	<path class="st1" d="M680.6,248.5l-5,2.8l2.3,4.4c0.2,0.4,0.4,0.7,0.5,1.2c0,0.3-0.3,0.4-0.8,0.4h-4.3v5.2l0,0h6.6
		c0.2,0,0.4,0,0.6,0c2.4-0.1,4.2-2.2,4.1-4.6c0-1.3-0.4-2.6-1-3.7L680.6,248.5z"/>
	<rect x="693.5" y="264.5" class="st1" width="8.3" height="3.8"/>
	<path class="st1" d="M698.3,253.2v3.3c0,0.1,0,0.1,0,0.2c-0.1,0.4-0.4,0.6-0.7,0.5h-4c0,0-0.1,0-0.1,0h-0.3c-0.1,0-0.1,0-0.2,0
		c-0.4,0-0.6-0.4-0.6-0.7v-10.8h-5.6v13.6c0,0.1,0,0.2,0,0.3c0.1,1.6,1.4,2.8,3,2.8h3.8v0h7.3c0.8,0,1.6-0.3,2.2-0.9
		c0.6-0.6,0.9-1.4,0.9-2.2v-6.1H698.3z"/>
</g>
</svg>
