<svg id="Layer_2_Image" data-name="Layer 2 Image" xmlns="http://www.w3.org/2000/svg" xmlns:xlink="http://www.w3.org/1999/xlink" viewBox="0 0 960 480"><defs><style>.cls-1{fill:#fff;}</style></defs><title>بینما</title><image id="Layer_2_Image-2" data-name="Layer 2 Image" width="2000" height="1000" transform="scale(0.48)" xlink:href="/imgs‌/Binama-bg.png"/><path class="cls-1" d="M249.75,234.65V142.93h38V215.2q0,4.84,5,4.84H296v35H270.09q-8.94,0-14.64-5.66T249.75,234.65Z"/><path class="cls-1" d="M287.57,244.74V230.87A10.91,10.91,0,0,1,290.4,223q2.83-3,5.54-3h19.44l31.91-34.95L379.36,220h18.79v35H384.69a42.42,42.42,0,0,1-14.27,19.32,39.13,39.13,0,0,1-45.4,0,42.84,42.84,0,0,1-14.4-19.32H295.93a8.3,8.3,0,0,1-5.54-2.62Q287.57,249.82,287.57,244.74Zm60.13,5q4.59,0,6.89-5.17l-7.14-7.71-6.73,7.46Q343.1,249.74,347.69,249.74Z"/><path class="cls-1" d="M389.69,244.74V230.87a11.1,11.1,0,0,1,2.75-7.87q2.75-3,5.46-3H425q5,0,5-4.84V193.3h38v41.34q0,9-5.82,14.72a20.24,20.24,0,0,1-14.77,5.7H397.9a8,8,0,0,1-5.46-2.62Q389.7,249.82,389.69,244.74Zm44.71-70.34a15.75,15.75,0,1,1,11.07,4.55A15,15,0,0,1,434.4,174.39Z"/><path class="cls-1" d="M481.82,257.29q0-20,10.83-45.86l31.58,16.65q-7.63,12.39-7.63,22.64a19.81,19.81,0,0,0,3.77,12.14,22.19,22.19,0,0,0,9.6,7.46,33.75,33.75,0,0,0,12.88,2.38,39.14,39.14,0,0,0,13.7-2.46,30.75,30.75,0,0,0,11.24-7.05l-23.38-26.74,61.77-48.4,24,32H640.3v35H614.13l-15.67-17.88-5.74,4.27,23.38,28.3a247.24,247.24,0,0,1-20.67,18.95,137.48,137.48,0,0,1-14.19,10q-4.92,2.83-9.84,5.25a65.24,65.24,0,0,1-9.43,3.81,66.44,66.44,0,0,1-19.77,3.28q-26.82,0-43.31-13.37a44.18,44.18,0,0,1-12.59-17A58.55,58.55,0,0,1,481.82,257.29Z"/><path class="cls-1" d="M631.93,244.74V230.87a11.1,11.1,0,0,1,2.75-7.87q2.75-3,5.46-3h27.07q5,0,5-4.84V193.3h38v41.34q0,9-5.82,14.72a20.24,20.24,0,0,1-14.77,5.7H640.14a8,8,0,0,1-5.46-2.62Q631.93,249.82,631.93,244.74Zm41.43,56a15.55,15.55,0,1,1,11.12-4.55A15.12,15.12,0,0,1,673.36,300.76Z"/><path class="cls-1" d="M261.91,114.35a3.44,3.44,0,0,1,.7,2.17,4.64,4.64,0,0,1-.24,1.5,4.93,4.93,0,0,1-.58,1.2,2.21,2.21,0,0,1-.58.64q-1,.62-5.86.62H250.7V106.8h5.64a19.1,19.1,0,0,1,3.11.2,3.61,3.61,0,0,1,1.93.91,2.83,2.83,0,0,1,.74,2.15,3.14,3.14,0,0,1-.61,2,3.26,3.26,0,0,1-1.93,1.06v0.12A3.28,3.28,0,0,1,261.91,114.35Zm-4.81-4.94a6.24,6.24,0,0,0-1-.06q-0.7,0-1.06,0v2.93h1.25a3.64,3.64,0,0,0,1.18-.12,0.92,0.92,0,0,0,.4-0.5,2.17,2.17,0,0,0,.18-0.89,1.47,1.47,0,0,0-.36-1.08A1.06,1.06,0,0,0,257.1,109.4Zm1.25,7.78a3.05,3.05,0,0,0,.11-0.8,3.31,3.31,0,0,0-.13-0.95,1.36,1.36,0,0,0-.35-0.64,1.12,1.12,0,0,0-.61-0.29,8.49,8.49,0,0,0-1.33-.07l-1,0v3.48q1.13,0,2,0a2.61,2.61,0,0,0,1-.18A1.09,1.09,0,0,0,258.35,117.18Z"/><path class="cls-1" d="M264.26,109.44h4.1v11h-4.1v-11Zm0.66-1.92a1.78,1.78,0,0,1,0-2.64,2,2,0,0,1,1.4-.55,1.94,1.94,0,0,1,1.39.55,1.8,1.8,0,0,1,0,2.64,1.94,1.94,0,0,1-1.39.55A2,2,0,0,1,264.92,107.52Z"/><path class="cls-1" d="M281.41,111.46q0.11,1.06.11,3.22v5.81h-4.1v-6.74a2.29,2.29,0,0,0-.12-1,1.16,1.16,0,0,0-.89-0.24,4,4,0,0,0-.5,0,4.15,4.15,0,0,0-1.39.31v7.61h-4.1v-11h3.34l0.46,1.85a5.2,5.2,0,0,1,4.13-2.09,5.33,5.33,0,0,1,1.62.24,2.4,2.4,0,0,1,1.14.7A3,3,0,0,1,281.41,111.46Z"/><path class="cls-1" d="M290,120.48L289.61,119a3.43,3.43,0,0,1-3.07,1.8,3.83,3.83,0,0,1-2.63-.9,3.2,3.2,0,0,1-1-2.53,2.79,2.79,0,0,1,.59-1.76,3.14,3.14,0,0,1,1.62-1.07,17.5,17.5,0,0,1,4.15-.43,4.3,4.3,0,0,0-.14-1.68,1.68,1.68,0,0,0-.77-0.1q-0.41,0-1.13,0-1.15,0-3.12.26-0.19-1.3-.29-2.78,1.27-.26,2.66-0.44a19.63,19.63,0,0,1,2.5-.18,5.27,5.27,0,0,1,2.88.64,2.9,2.9,0,0,1,1.25,1.67,9.4,9.4,0,0,1,.26,2.62l0,3.53,0.07,2.83H290Zm-0.74-2.64v-1.78h-0.19a4.85,4.85,0,0,0-2,.19,0.76,0.76,0,0,0-.18.36,1.88,1.88,0,0,0-.06.46,1,1,0,0,0,.26.79,1.27,1.27,0,0,0,.82.22A4,4,0,0,0,289.25,117.84Z"/><path class="cls-1" d="M312.84,114.67v5.81h-4.1v-6.7a1.89,1.89,0,0,0-.17-1.06,1.21,1.21,0,0,0-.82-0.19l-0.29,0a4.27,4.27,0,0,0-1.42.34q0,0.5,0,1.78v5.81H302v-6.84a1.5,1.5,0,0,0-.17-0.91,1.21,1.21,0,0,0-.82-0.19l-0.29,0a4.15,4.15,0,0,0-1.39.31v7.61h-4.1v-11h3.34l0.43,1.8a5,5,0,0,1,1.82-1.55,4.81,4.81,0,0,1,2.09-.49,5.4,5.4,0,0,1,1.69.26,2,2,0,0,1,1.12.74,2.22,2.22,0,0,1,.24.79,4.72,4.72,0,0,1,1.75-1.37,4.86,4.86,0,0,1,2-.43,5.4,5.4,0,0,1,1.69.26,2,2,0,0,1,1.12.74Q312.84,110.78,312.84,114.67Z"/><path class="cls-1" d="M321.31,120.48L320.93,119a3.43,3.43,0,0,1-3.07,1.8,3.83,3.83,0,0,1-2.63-.9,3.2,3.2,0,0,1-1-2.53,2.79,2.79,0,0,1,.59-1.76,3.14,3.14,0,0,1,1.62-1.07,17.5,17.5,0,0,1,4.15-.43,4.3,4.3,0,0,0-.14-1.68,1.68,1.68,0,0,0-.77-0.1q-0.41,0-1.13,0-1.15,0-3.12.26-0.19-1.3-.29-2.78,1.27-.26,2.66-0.44a19.63,19.63,0,0,1,2.5-.18,5.27,5.27,0,0,1,2.88.64,2.9,2.9,0,0,1,1.25,1.67,9.4,9.4,0,0,1,.26,2.62l0,3.53,0.07,2.83h-3.41Zm-0.74-2.64v-1.78h-0.19a4.85,4.85,0,0,0-2,.19,0.76,0.76,0,0,0-.18.36,1.88,1.88,0,0,0-.06.46,1,1,0,0,0,.26.79,1.27,1.27,0,0,0,.82.22A4,4,0,0,0,320.57,117.84Z"/><g id="یادآور_حس_نوستالژیک_سینمای_قدیم_ایران-2" data-name="یادآور حس نوستالژیک  سینمای قدیم ایران"><path class="cls-1" d="M247,354.36a15.62,15.62,0,0,1,2.27-7.39l4.46,2.27a7.9,7.9,0,0,0-1.4,4,2.6,2.6,0,0,0,1,2.19,3.72,3.72,0,0,0,2.35.75,4.91,4.91,0,0,0,1.83-.35,3.54,3.54,0,0,0,1.45-1.05,2.47,2.47,0,0,0,.58-1.61v-3.46h5.64v3.11a9.23,9.23,0,0,1-.56,3.25,7.9,7.9,0,0,1-1.51,2.55,9.3,9.3,0,0,1-2.22,1.8,10.49,10.49,0,0,1-5.5,1.47,9.35,9.35,0,0,1-4.79-1.21,6.82,6.82,0,0,1-3.12-3.6A7.88,7.88,0,0,1,247,354.36Zm8.51-7.43a2.34,2.34,0,1,1,1.65.68A2.24,2.24,0,0,1,255.49,346.94Z"/><path class="cls-1" d="M267.19,354.89V338.23h5.64v16.66h-5.64Z"/><path class="cls-1" d="M278.15,351.91v-2.23h6.53v5.2h-1a9.68,9.68,0,0,1-.92,2.4,11.05,11.05,0,0,1-1.44,2.07,13.31,13.31,0,0,1-1.8,1.68,13.14,13.14,0,0,1-4,2.17l-2.71-4.73a9.83,9.83,0,0,0,4.05-2.72A6,6,0,0,0,278.15,351.91Z"/><path class="cls-1" d="M283.43,353.35v-2.06a1.65,1.65,0,0,1,.41-1.17,1.15,1.15,0,0,1,.81-0.44h4a0.65,0.65,0,0,0,.74-0.72v-3.25h5.64v6.14a2.93,2.93,0,0,1-.87,2.19,3,3,0,0,1-2.19.85h-7.35a1.19,1.19,0,0,1-.81-0.39A1.51,1.51,0,0,1,283.43,353.35Zm1.22,3.66H293v3.79h-8.32V357Z"/><path class="cls-1" d="M297.12,354.89V338.23h5.64v16.66h-5.64Z"/><path class="cls-1" d="M309,352.66a2.88,2.88,0,0,1,.84-2.14,2.91,2.91,0,0,1,2.13-.83h0.78a8.19,8.19,0,0,1,.63-3.3,5.15,5.15,0,0,1,1.92-2.29,5.46,5.46,0,0,1,3.08-.85A5,5,0,0,1,322.5,345a7.11,7.11,0,0,1,1.47,4.66h1.44v5.2h-0.58a2.89,2.89,0,0,1-1.62-.74l-0.12.74h-7.7a0.66,0.66,0,0,0-.74.74v7.62H309V352.66Zm8.47-3h1.77a3.22,3.22,0,0,0-.19-1.28,0.67,0.67,0,0,0-.66-0.43Q317.46,348,317.46,349.68Z"/><path class="cls-1" d="M324.15,353.35v-2.06a1.65,1.65,0,0,1,.41-1.17,1.15,1.15,0,0,1,.81-0.44h4a0.65,0.65,0,0,0,.74-0.72v-3.25h5.64v6.14a2.93,2.93,0,0,1-.87,2.19,3,3,0,0,1-2.19.85h-7.35a1.19,1.19,0,0,1-.81-0.39A1.51,1.51,0,0,1,324.15,353.35Zm1.22,3.66h8.32v3.79h-8.32V357Z"/><path class="cls-1" d="M337.84,354.89v-5.2h4.33q0.76,0,.76-0.41a2.34,2.34,0,0,0-.35-0.94l-2.46-4.61,5-2.79,3.77,7.23a7,7,0,0,0,.73,1.21,1.07,1.07,0,0,0,.85.31h0.6v5.2h-0.77a6.51,6.51,0,0,1-3.12-.73,5,5,0,0,1-2.71.73h-6.62Z"/><path class="cls-1" d="M349.81,353.35v-2.06a1.62,1.62,0,0,1,.42-1.17,1.18,1.18,0,0,1,.82-0.44h7.15v-1.5h-4.95a0.91,0.91,0,0,1-1-1L352.15,346a8.5,8.5,0,0,1,.44-2.86,5.28,5.28,0,0,1,1.24-2,5.69,5.69,0,0,1,4.17-1.58,5,5,0,0,1,2.86.83,5.3,5.3,0,0,1,1.9,2.25,7.55,7.55,0,0,1,.65,3.19v5.86a3.06,3.06,0,0,1-1,2.36,3.27,3.27,0,0,1-2.29.9h-9.09a1.24,1.24,0,0,1-.82-0.39A1.49,1.49,0,0,1,349.81,353.35Zm3.6-16V333.6h8.32v3.78H353.4Z"/><path class="cls-1" d="M369.64,355.22a18,18,0,0,1,1.61-6.81l4.69,2.47a6.54,6.54,0,0,0-1.13,3.36,2.94,2.94,0,0,0,.56,1.8,3.3,3.3,0,0,0,1.43,1.11,5,5,0,0,0,1.91.35,5.83,5.83,0,0,0,2-.37,4.58,4.58,0,0,0,1.67-1l-3.47-4,9.18-7.19,3,4.19-5,3.74,3.47,4.21a36.9,36.9,0,0,1-3.07,2.82,20.37,20.37,0,0,1-2.11,1.49q-0.73.42-1.46,0.78a9.68,9.68,0,0,1-1.4.57,10.61,10.61,0,0,1-9.37-1.5,6.56,6.56,0,0,1-1.87-2.52A8.7,8.7,0,0,1,369.64,355.22Z"/><path class="cls-1" d="M393.16,351.85V338.23h5.64V349a0.65,0.65,0,0,0,.74.72H400v5.2h-3.85A2.89,2.89,0,0,1,393.16,351.85Z"/><path class="cls-1" d="M398.78,353.35v-2.06a1.62,1.62,0,0,1,.42-1.17,1.18,1.18,0,0,1,.82-0.44h2.89l4.74-5.19,4.77,5.19h2.79v5.2h-2a6.3,6.3,0,0,1-2.12,2.87,5.81,5.81,0,0,1-6.75,0,6.36,6.36,0,0,1-2.14-2.87H400a1.24,1.24,0,0,1-.82-0.39A1.49,1.49,0,0,1,398.78,353.35Zm8.93,0.74a1.1,1.1,0,0,0,1-.77l-1.06-1.15-1,1.11A1.13,1.13,0,0,0,407.71,354.1Z"/><path class="cls-1" d="M423.29,354.22a2,2,0,0,0-.62.67h-7.5a1.19,1.19,0,0,1-.81-0.39,1.51,1.51,0,0,1-.41-1.15v-2.06a1.65,1.65,0,0,1,.41-1.17,1.15,1.15,0,0,1,.81-0.44H420a0.88,0.88,0,0,0,1-1v-2.29h4.62v2.29a1.16,1.16,0,0,0,.22.76,1,1,0,0,0,.79.27h0.32v5.22h-3A1.69,1.69,0,0,0,423.29,354.22Zm-2.5-10.72a2.34,2.34,0,1,1,1.65.68A2.23,2.23,0,0,1,420.79,343.5Z"/><path class="cls-1" d="M435,354.22a2,2,0,0,0-.62.67h-7.5a1.19,1.19,0,0,1-.81-0.39,1.51,1.51,0,0,1-.41-1.15v-2.06a1.65,1.65,0,0,1,.41-1.17,1.15,1.15,0,0,1,.81-0.44h4.83a0.88,0.88,0,0,0,1-1v-2.29h4.62v2.29a1.16,1.16,0,0,0,.22.76,1,1,0,0,0,.79.27h0.32v5.22h-3A1.69,1.69,0,0,0,435,354.22ZM426.92,357h8.32v3.79h-8.32V357Z"/><path class="cls-1" d="M437.35,353.35v-2.06a1.64,1.64,0,0,1,.41-1.16,1.15,1.15,0,0,1,.8-0.45h17.07v5.2H438.57a1.18,1.18,0,0,1-.81-0.4A1.52,1.52,0,0,1,437.35,353.35Z"/><path class="cls-1" d="M466,351.85v-6.12h5.64v3.21a0.66,0.66,0,0,0,.74.74h10.71L478,343.24l1.71-4L491,335.73V341l-6.48,2.1,3.62,4.68a17.72,17.72,0,0,0,1.35,1.63,1.3,1.3,0,0,0,.89.26h1v5.2H469.07a3,3,0,0,1-2.19-.85A2.94,2.94,0,0,1,466,351.85Z"/><path class="cls-1" d="M490.16,353.35v-2.06a1.65,1.65,0,0,1,.41-1.17,1.14,1.14,0,0,1,.81-0.44h4a0.65,0.65,0,0,0,.74-0.72v-3.25h5.64v6.14a2.93,2.93,0,0,1-.87,2.19,3,3,0,0,1-2.19.85h-7.35a1.19,1.19,0,0,1-.81-0.39A1.51,1.51,0,0,1,490.16,353.35Zm1.22,3.66h8.32v3.79h-8.32V357Z"/><path class="cls-1" d="M507.09,351.91v-2.23h6.53v5.2h-1a9.7,9.7,0,0,1-.92,2.4,11.08,11.08,0,0,1-1.44,2.07,13.31,13.31,0,0,1-1.8,1.68,13.14,13.14,0,0,1-4,2.17l-2.71-4.73a9.83,9.83,0,0,0,4.05-2.72A6,6,0,0,0,507.09,351.91Zm-2.62-4.35v-3.39h8.32v3.39h-8.32Zm4.18-3.78a1.85,1.85,0,0,1-1.83-1.83,1.69,1.69,0,0,1,.54-1.27,1.79,1.79,0,0,1,1.29-.52,1.77,1.77,0,0,1,1.79,1.79,1.79,1.79,0,0,1-.52,1.29A1.7,1.7,0,0,1,508.65,343.78Z"/><path class="cls-1" d="M512.38,353.35v-2.06a1.65,1.65,0,0,1,.41-1.17,1.14,1.14,0,0,1,.81-0.44h2.15a0.65,0.65,0,0,0,.75-0.72V338.23h5.63v13.63a2.91,2.91,0,0,1-3,3h-5.5a1.19,1.19,0,0,1-.81-0.39A1.51,1.51,0,0,1,512.38,353.35Z"/><path class="cls-1" d="M524.2,351.85V338.23h5.64V349a0.65,0.65,0,0,0,.74.72h0.49v5.2h-3.85A2.89,2.89,0,0,1,524.2,351.85Z"/><path class="cls-1" d="M539.15,354.22a2,2,0,0,0-.62.67H531a1.19,1.19,0,0,1-.81-0.39,1.51,1.51,0,0,1-.41-1.15v-2.06a1.65,1.65,0,0,1,.41-1.17,1.14,1.14,0,0,1,.81-0.44h4.83a0.88,0.88,0,0,0,1-1v-2.29h4.62v2.29a1.16,1.16,0,0,0,.22.76,1,1,0,0,0,.79.27h0.32v5.22h-3A1.68,1.68,0,0,0,539.15,354.22Zm-6-9.95v-3.78h8.32v3.78h-8.32Z"/><path class="cls-1" d="M541.52,353.35v-2.06a1.65,1.65,0,0,1,.41-1.16,1.15,1.15,0,0,1,.8-0.45h17.08v5.2H542.74a1.18,1.18,0,0,1-.81-0.4A1.52,1.52,0,0,1,541.52,353.35Z"/><path class="cls-1" d="M562.52,346.38a5.2,5.2,0,0,1,1.92-2.29,6,6,0,0,1,6.14,0,5.17,5.17,0,0,1,1.91,2.29,8.2,8.2,0,0,1,.63,3.3h0.83v5.2h-1.06a9.92,9.92,0,0,1-1.22,2.94,11.35,11.35,0,0,1-2,2.43,13.69,13.69,0,0,1-4.87,2.95l-2.71-4.73a8.79,8.79,0,0,0,4.64-3.6h-3.95l-0.9-5.2A8.11,8.11,0,0,1,562.52,346.38Zm4.11,3.3h1.78a3,3,0,0,0-.21-1.28,0.71,0.71,0,0,0-.69-0.43Q566.62,348,566.62,349.68Z"/><path class="cls-1" d="M572.7,353.35v-2.06a1.65,1.65,0,0,1,.41-1.17,1.14,1.14,0,0,1,.81-0.44h4a0.65,0.65,0,0,0,.74-0.72v-3.25h5.64v6.14a2.93,2.93,0,0,1-.87,2.19,3,3,0,0,1-2.19.85h-7.35a1.19,1.19,0,0,1-.81-0.39A1.51,1.51,0,0,1,572.7,353.35Zm6.64-10.45a2.34,2.34,0,1,1,1.64.68A2.24,2.24,0,0,1,579.35,342.9Z"/><path class="cls-1" d="M590.55,354.36a15.62,15.62,0,0,1,2.27-7.39l4.46,2.27a8,8,0,0,0-1.4,4,2.61,2.61,0,0,0,1,2.19,3.67,3.67,0,0,0,2.33.75,4.91,4.91,0,0,0,1.83-.35,3.54,3.54,0,0,0,1.45-1.05,2.47,2.47,0,0,0,.58-1.61v-3.46h5.33a1.94,1.94,0,0,0,1-.23,1.29,1.29,0,0,0,.52-0.53,3.28,3.28,0,0,0,.23-0.62,5.26,5.26,0,0,1,.16-0.52,0.23,0.23,0,0,1,.46,0,4.93,4.93,0,0,1,.15.53,3.5,3.5,0,0,0,.21.62,1.2,1.2,0,0,0,.51.53,1.86,1.86,0,0,0,1,.22H613a1.86,1.86,0,0,0,1-.22,1.24,1.24,0,0,0,.52-0.53,3.49,3.49,0,0,0,.23-0.62q0.08-.31.16-0.53a0.23,0.23,0,0,1,.46,0,4.24,4.24,0,0,1,.15.53,3.18,3.18,0,0,0,.21.62,1.2,1.2,0,0,0,.51.53,1.86,1.86,0,0,0,1,.22h1.33v5.2h-1.35a2.33,2.33,0,0,1-.88-0.15,1.36,1.36,0,0,1-.54-0.36,1.89,1.89,0,0,1-.27-0.42l-0.18-.37a0.22,0.22,0,0,0-.16-0.15,0.2,0.2,0,0,0-.15.11,1.4,1.4,0,0,0-.13.27,1.49,1.49,0,0,1-.2.35,2.13,2.13,0,0,1-.32.35,1.85,1.85,0,0,1-1.28.38H612.5a2.24,2.24,0,0,1-.87-0.15,1.42,1.42,0,0,1-.54-0.36,2.16,2.16,0,0,1-.29-0.42l-0.18-.37a0.21,0.21,0,0,0-.16-0.15,0.35,0.35,0,0,0-.21.22l-0.26.49a1.29,1.29,0,0,1-.53.5,2,2,0,0,1-1,.24,8.6,8.6,0,0,1-1,2.5,8,8,0,0,1-1.62,2,9.94,9.94,0,0,1-2.08,1.39,10.75,10.75,0,0,1-4.87,1.12,9.35,9.35,0,0,1-4.79-1.21,6.83,6.83,0,0,1-3.11-3.6A7.88,7.88,0,0,1,590.55,354.36Z"/><path class="cls-1" d="M617.19,353.35v-2.06a1.64,1.64,0,0,1,.41-1.17,1.16,1.16,0,0,1,.8-0.44h7.82v-0.1a1.51,1.51,0,0,0-.3-0.91,2.51,2.51,0,0,0-.76-0.68,5.81,5.81,0,0,0-1.1-.48,9.73,9.73,0,0,0-1.21-.32q-0.57-.11-1.19-0.18t-1.57-.12l-0.38-5.39h0.15a19.07,19.07,0,0,1,5.34.73,9.26,9.26,0,0,1,3.88,2,8,8,0,0,1,1.56,2.12,7.7,7.7,0,0,1,.8,2.5,0.84,0.84,0,0,0,1,.8H633v5.2h-14.6a1.2,1.2,0,0,1-.8-0.4A1.5,1.5,0,0,1,617.19,353.35Z"/><path class="cls-1" d="M644.56,351.91v-2.23h5.73v3.11a9.2,9.2,0,0,1-.51,3,9.94,9.94,0,0,1-1.35,2.62,13.11,13.11,0,0,1-1.94,2.12,13.34,13.34,0,0,1-4.55,2.64l-2.71-4.73a9.83,9.83,0,0,0,4.05-2.72A6,6,0,0,0,644.56,351.91Z"/><path class="cls-1" d="M653,346.38a5.2,5.2,0,0,1,1.92-2.29,6,6,0,0,1,6.14,0,5.17,5.17,0,0,1,1.91,2.29,8.2,8.2,0,0,1,.63,3.3v3.11a9.27,9.27,0,0,1-.51,3,9.84,9.84,0,0,1-1.34,2.62,13.43,13.43,0,0,1-1.93,2.12,13.2,13.2,0,0,1-4.55,2.64l-2.71-4.73a8.79,8.79,0,0,0,4.64-3.6h-3.95l-0.9-5.2A8.11,8.11,0,0,1,653,346.38Zm4.11,3.3h1.78a3,3,0,0,0-.21-1.28A0.71,0.71,0,0,0,658,348Q657.09,348,657.09,349.68Z"/><path class="cls-1" d="M666.33,335.52a6,6,0,0,1,1.69.33,5.87,5.87,0,0,0,1.54.34,2.56,2.56,0,0,0,2-1.28l2.52,2.35q-1.52,2.64-3.64,2.64a8.16,8.16,0,0,1-1.82-.29,8.06,8.06,0,0,0-1.7-.29,2.39,2.39,0,0,0-2,1.18l-2.21-2.6Q664.48,335.52,666.33,335.52Zm-0.67,19.37V341.58h5.64v13.31h-5.64Z"/><path class="cls-1" d="M673.37,354.89v-5.2h4.33q0.76,0,.76-0.41a3.44,3.44,0,0,0-.5-1.16l-2.33-4.39,5-2.79,3,5.72a8,8,0,0,1,1,3.68,4.32,4.32,0,0,1-4.62,4.56h-6.62Z"/><path class="cls-1" d="M686.68,351.85V338.23h5.64V349a0.65,0.65,0,0,0,.74.72h0.49v5.2h-3.85A2.89,2.89,0,0,1,686.68,351.85Z"/><path class="cls-1" d="M692.3,353.35v-2.06a1.65,1.65,0,0,1,.41-1.17,1.14,1.14,0,0,1,.81-0.44h4a0.65,0.65,0,0,0,.74-0.72v-3.25h5.64v6.14a2.93,2.93,0,0,1-.87,2.19,3,3,0,0,1-2.19.85h-7.35a1.19,1.19,0,0,1-.81-0.39A1.51,1.51,0,0,1,692.3,353.35Zm1.22,3.66h8.32v3.79h-8.32V357Z"/></g></svg>