<svg xmlns="http://www.w3.org/2000/svg" viewBox="0 0 131.68 246"><defs><style>.a{fill:#493000;}</style></defs><title>ffs-logo-image</title><path class="a" d="M128.27,103.55a150.15,150.15,0,0,1-17.06-19.48c-4.53-6.49-9.21-12.84-13.59-19.48S89.31,51,85.08,44.05c-2-3.17-3.47-6.49-5.29-9.82-1.36-2.57-2.42-5.13-3.78-8v1.36c0,19-.45,38.06-.45,57.08,0,7.55-.6,15.1-.6,22.65,0,.3-.15.6,0,.91s.3.76.6.76c3.62.91,5.44,3.17,5.59,7.1.15,4.23-1.81,6.8-5,7.85a6.23,6.23,0,0,1-5.59-.91,7.45,7.45,0,0,1-3.47-7.55,6.71,6.71,0,0,1,4.68-6.34,1.35,1.35,0,0,0,1.06-1.51V26.23c-15.1,30.5-33.52,58-56.93,81.7a60.45,60.45,0,0,1,7.4,15.86,175.5,175.5,0,0,1,5.89,19.78c1.51,6.19,2.87,12.38,4.08,18.73,2.11,11.33,3.62,22.65,4.83,34,.15.76.3,1.06,1.06,1.06h32a2.8,2.8,0,0,0,1.06-.3,24.91,24.91,0,0,0,5.44-6.49,3.9,3.9,0,0,0,0-4.23c-1.21-2-2.42-3.93-3.78-5.74-1.06-1.51-2.27-1.66-3.47-1.06a10.6,10.6,0,0,1-7.4,1.06c-5.44-.91-8.61-6.34-6.8-12.08.76-2.72,1.81-5.44,2.87-8.15,2.72-6.49,5.74-12.69,10.12-18,1.51-1.81,3.17-2.87,5.59-2.57a14,14,0,0,1,9.51,5.59c4.83,5.89,6.8,13,7.1,20.54a56.38,56.38,0,0,1-2.11,16.61c-1.36,4.68-3.17,9.21-4.83,13.74a7.37,7.37,0,0,1-.45,1.06c.15.15.15.15.3.15h24.46c.6,0,.76-.3.76-.91.45-4.08.91-8,1.36-12.08a395.68,395.68,0,0,1,6.95-40,180,180,0,0,1,6.49-21.75c2.11-5.44,4.38-10.57,8.15-15C131.14,106.27,129.63,104.91,128.27,103.55Z" transform="translate(-8.67 -6.3)"/><path class="a" d="M115.59,220.28H33.14c-2.72,0-3.62,1.51-3.62,4.38,0,8.91.3,17.67.3,26.43v1.21c30.5,0,59.65,0,89.7-.15V224.51C119.52,221.64,118.31,220.28,115.59,220.28Z" transform="translate(-8.67 -6.3)"/><path class="a" d="M140.05,95.7c-3.93-3.93-8-7.7-11.78-11.78a192.45,192.45,0,0,1-17.37-20.84c-4.08-5.89-8.31-11.78-12.23-17.82-5-8-9.82-16-14.5-24.16C81.61,16.87,79.35,12.34,76.93,8,76.33,6.9,76,6.3,74.66,6.3a2.89,2.89,0,0,0-2.87,2c-3.17,6.49-6.49,13-10.12,19.18-3.93,6.95-8,13.59-12.38,20.24A218.73,218.73,0,0,1,36.61,65.95c-5.13,6.8-10.57,13.14-16,19.48a59.92,59.92,0,0,1-6.19,6.19c-1.81,1.66-3.78,3.17-5.74,5,2,2.57,3.93,5.13,6,7.85l1.81-1.81A162.26,162.26,0,0,0,33,83.92c4.83-6.49,9.66-12.84,14.2-19.48,4.38-6.34,8.31-13,12.38-19.63A217.18,217.18,0,0,0,71.8,21.25C72.85,19,72.85,19,75.27,19a1.45,1.45,0,0,1,1.36.91c1.21,2.72,2.42,5.29,3.78,7.85,3.32,6.34,6.8,12.84,10.42,19,4.08,6.95,8.46,13.89,13,20.69,4.08,6,8.46,11.93,12.84,17.82a108,108,0,0,0,16.91,18.27l1.06,1.06c2-2.87,3.78-5.59,5.74-8.46C140.2,96.15,140.05,96.15,140.05,95.7Z" transform="translate(-8.67 -6.3)"/><path class="a" d="M31.63,217.87H117.4c-.15-2.72-1.36-3.62-3.62-3.62-26.13,0-52.4-.15-78.53-.15-.3,0-.45.15-.76.15C32.83,214.39,31.78,215.15,31.63,217.87Z" transform="translate(-8.67 -6.3)"/><path class="a" d="M110.61,202.31c-24,0-48.17-.3-72.18-.3-2,0-3,1.21-3.17,3.93h78.53C113.47,203.37,112.42,202.31,110.61,202.31Z" transform="translate(-8.67 -6.3)"/><path class="a" d="M33.44,211.22h82.3c-.3-2.57-1.36-3.32-3.32-3.32H36.76C34.8,207.9,33.74,208.5,33.44,211.22Z" transform="translate(-8.67 -6.3)"/></svg>