<svg xmlns="http://www.w3.org/2000/svg" viewBox="0 0 818.53 154.35">
  <defs>
    <style>
      .a{fill:#8c6239}
    </style>
  </defs>
  <path class="a" d="M172.5 96.9q.6-6.75.6-16.5 0-1.8-.08-7.12t-.07-8.77V40.95l-26.7 4.8v15.3h-5.85v-11.4l-20 2.7v8.7h-5.85v-11.4l-20 2.7v8.7h-52.4l-8.4 55.35h19.2v5.7h-18.9a9.09 9.09 0 0 1-4.5-.83q-1.35-.83-1.35-3.23v-57L0 73.64v45q0 15.3 8.7 25.5t23.4 10.2h20.7a29.54 29.54 0 0 0 20.1-7.65q5.25-5.25 6.9-14.85a54 54 0 0 0 .9-8v-7.5h12.45a14.42 14.42 0 0 0 7-1.73 8.62 8.62 0 0 0 4.2-4.57 15.79 15.79 0 0 0 13 6.3 16.06 16.06 0 0 0 13.2-6.45q6.45 6.45 17.85 6.45a27.08 27.08 0 0 0 13-3.15 19.15 19.15 0 0 0 8.4-8.25 36.22 36.22 0 0 0 2.7-8.04z"/>
  <path class="a" d="M179.1 102.75a18.93 18.93 0 0 1-1.2 7 32.52 32.52 0 0 1-2.4 4.73q-1.5 2.47-2.55 3.9t-3.37 4.35q-2.32 2.93-2.77 3.67l22.5 17.25q10-12.3 11.7-14.7a54.38 54.38 0 0 0 5-9 21.54 21.54 0 0 0 2.1-8.85V42.6l-29 4.2zM300.45 35.51q-6.6-14.55-23-14.55h-2a23 23 0 0 0-15.75 6.75 27.68 27.68 0 0 0-8.55 20.25 28.92 28.92 0 0 0 2.7 13h-11.4V14.4L212.68 21l1.65 68.85v4.2q0 10.35 6.15 16.35t16.65 6h42.3a24 24 0 0 0 16.8-6.45 22.22 22.22 0 0 0 7.2-16.65v-1l.15-38.7q-.28-11.6-3.13-18.09zM280.12 49.8a3.92 3.92 0 0 1-2.92 1.35 4 4 0 0 1-2.85-1.35 3.92 3.92 0 0 1-.08-5.85 3.92 3.92 0 0 1 2.93-1.35 4 4 0 0 1 3 1.27 4.15 4.15 0 0 1 1.2 2.92 4.28 4.28 0 0 1-1.28 3.01zM276.75 14.4a7.17 7.17 0 0 0 7.2-7.2 7.2 7.2 0 1 0-14.4 0 7.17 7.17 0 0 0 7.2 7.2zM370.04 53.4a7 7 0 0 0 5-2.1 7.07 7.07 0 0 0 0-10.2 7.06 7.06 0 0 0-10.05 0 7.07 7.07 0 0 0 0 10.2 7 7 0 0 0 5.05 2.1zM354.14 53.4a7 7 0 0 0 5-2.1 7.07 7.07 0 0 0 0-10.2 7.06 7.06 0 0 0-10.05 0 7.07 7.07 0 0 0 0 10.2 7 7 0 0 0 5.05 2.1zM434.99 38.4a7.21 7.21 0 0 0 5.1-12.3 7.212 7.212 0 0 0-10.2 10.2 6.93 6.93 0 0 0 5.1 2.1z"/>
  <path class="a" d="M420.74 61.05h-11.85V46.8L380.54 51v10h-36.6V49.65h-28.35V92.1a27.6 27.6 0 0 0 1.65 9.3 22.41 22.41 0 0 0 7.73 10.8 21.16 21.16 0 0 0 13.27 4.2h50q8.1 0 11.25-6.6a10.89 10.89 0 0 0 4.57 4.73 13.35 13.35 0 0 0 6.83 1.88h18.6q7.5-.45 13.5-6.6a22.05 22.05 0 0 0 6-15.3V43.35l-28.2 5.55zM544.19 14.4a7.17 7.17 0 0 0 7.2-7.2 7.2 7.2 0 1 0-14.4 0 7.17 7.17 0 0 0 7.2 7.2zM567.89 35.51q-6.6-14.55-23-14.55h-2a23 23 0 0 0-15.75 6.75A27.68 27.68 0 0 0 518.68 48a28.93 28.93 0 0 0 2.7 13h-14.24v-3a23.74 23.74 0 0 0-8-18.15 26.41 26.41 0 0 0-18.45-7.5 25.53 25.53 0 0 0-10.01 2.16 27.41 27.41 0 0 0-11.33 9 23.83 23.83 0 0 0-4.42 14.55V87.9q0 6.6.15 11a13.58 13.58 0 0 0 1.2 5.25q4 9.9 17.7 12.45-.45.45-6.15 8.55l-.6.9a4.92 4.92 0 0 1-.45.6l-.15.3 22.2 17.1 3.9-4.65q3.15-3.75 4.43-5.48t3.52-5a44 44 0 0 0 3.67-6.23 38.11 38.11 0 0 0 2.33-6.3h40.2a24 24 0 0 0 16.8-6.45 22.22 22.22 0 0 0 7.2-16.65v-1l.15-38.7q-.29-11.59-3.14-18.08zm-83.85 29.7a4.07 4.07 0 0 1-3 1.2 4.14 4.14 0 0 1-2.93-1.2 4.17 4.17 0 0 1 0-6 4.15 4.15 0 0 1 2.93-1.2 4.24 4.24 0 0 1 3 7.2zm63.52-15.45a3.92 3.92 0 0 1-2.88 1.39 4 4 0 0 1-2.85-1.35 4.16 4.16 0 0 1-1.35-3 4.12 4.12 0 0 1 1.2-2.85 3.91 3.91 0 0 1 3-1.35 4 4 0 0 1 3 1.27 4.15 4.15 0 0 1 1.2 2.92 4.28 4.28 0 0 1-1.31 3.01zM674.54 61.05h-11.7l-8.85-16a21 21 0 0 0-8-9.45 24.6 24.6 0 0 0-12.45-4.35h-1.8q-14.25 0-20.7 12.45l-28 52.35 33.45 15.3 13.19-29.45 7.2 21.6a19.49 19.49 0 0 0 6.45 9.15 16.91 16.91 0 0 0 11 3.75h28.95q7.5-.45 13.5-6.6a22.05 22.05 0 0 0 6-15.3V43.35l-28.2 5.55zM688.79 38.4a7.21 7.21 0 0 0 5.1-12.3 7.216 7.216 0 0 0-10.21 10.2 6.93 6.93 0 0 0 5.11 2.1zM767.08 18.9a7 7 0 0 0 5-2.1 7.07 7.07 0 0 0 0-10.2 7.06 7.06 0 0 0-10.05 0 7.07 7.07 0 0 0 0 10.2 7 7 0 0 0 5.05 2.1zM813.28 61.05q-7.2 0-10.8-3.07t-6.3-9.53q-.6-1.65-2.17-4.95t-2.18-4.8q-6.45-13.19-20.1-13.19h-20l-5.85 25.5h23a10 10 0 0 1 10 10h-41.7V14.4L707.33 21l1.65 68.85v4.2q0 10.35 6.15 16.35t16.65 6h76.7l10-55.35z"/>
</svg>
