<?xml version="1.0" encoding="utf-8"?>
<!-- Generator: Adobe Illustrator 21.0.0, SVG Export Plug-In . SVG Version: 6.00 Build 0)  -->
<svg version="1.1" id="Layer_2_Image" xmlns="http://www.w3.org/2000/svg" xmlns:xlink="http://www.w3.org/1999/xlink" x="0px"
	 y="0px" viewBox="0 0 802.8 300.3" style="enable-background:new 0 0 802.8 300.3;" xml:space="preserve">
<style type="text/css">
	.st0{fill:#FFFFFF;}
</style>
<g>
	<path class="st0" d="M196.6,230.6c0.6,0,1.1-0.2,1.6-0.7c0.8-0.8,0.8-2.3,0-3.1c-0.8-0.8-2.3-0.8-3.1,0c-0.9,0.8-0.9,2.2-0.1,3.1
		C195.4,230.3,196,230.6,196.6,230.6z"/>
	<path class="st0" d="M198.7,235.7L198.7,235.7c0.1,0.6-0.1,1.1-0.5,1.5c-0.4,0.5-0.8,0.8-1.4,0.9c-0.6,0.2-1.1,0.4-1.7,0.3
		c-0.8,0-1.6-0.2-2.3-0.8c-0.7-0.5-0.9-1.2-0.9-2.1c0.1-1.3,0.6-2.6,1.3-3.8l-4.2-2.2c-1.3,2.1-2,4.5-2.2,6.9c0,0.8,0.2,1.7,0.5,2.5
		c0.6,1.4,1.6,2.6,2.9,3.4c1.4,0.8,2.9,1.1,4.5,1.1c1.8,0,3.6-0.5,5.2-1.4c0.8-0.5,1.5-1,2.1-1.7c0.7-0.7,1.1-1.5,1.4-2.3
		c0.4-0.9,0.6-2,0.6-3.1v-2.9h-5.3L198.7,235.7L198.7,235.7z"/>
	<rect x="206" y="221.7" class="st0" width="5.3" height="15.7"/>
	<rect x="222.5" y="239.3" class="st0" width="7.8" height="3.6"/>
	<path class="st0" d="M227,231.8L227,231.8c-0.1,0.1-0.1,0.1-0.1,0.2c-0.1,0.4-0.4,0.6-0.7,0.5h-3.8h-6.1v2.1c0,1.3-0.4,2.5-1.2,3.6
		c-1,1.1-2.3,2.1-3.8,2.5l2.5,4.4c1.3-0.5,2.6-1.1,3.8-2.1c0.7-0.5,1.2-1,1.7-1.6c0.6-0.6,0.9-1.2,1.3-2c0.4-0.8,0.7-1.5,0.8-2.3
		h0.8h6.9c0.8,0,1.5-0.3,2.1-0.8c0.6-0.6,0.8-1.3,0.8-2.1v-5.7H227L227,231.8L227,231.8z"/>
	<rect x="234.1" y="221.7" class="st0" width="5.3" height="15.7"/>
	<rect x="260.6" y="239.3" class="st0" width="7.8" height="3.6"/>
	<path class="st0" d="M265.1,231.8L265.1,231.8c-0.1,0.1-0.1,0.1-0.1,0.2c-0.1,0.4-0.4,0.6-0.7,0.5h-3.8h-1.3
		c0.1-1.6-0.4-3.1-1.4-4.4c-0.9-1.1-2.3-1.7-3.8-1.7c-1,0-2.1,0.3-2.9,0.8c-0.8,0.6-1.4,1.3-1.8,2.2c-0.4,0.9-0.7,2.1-0.6,3.1h-0.8
		c-0.8,0-1.5,0.3-2,0.8c-0.6,0.6-0.8,1.2-0.8,2v9.9h5.3v-7.1c0-0.1,0-0.1,0-0.2c0-0.4,0.4-0.6,0.7-0.6h7.2l0.1-0.7
		c0.4,0.4,0.9,0.7,1.5,0.7h0.4h0.1h6.8c0.8,0,1.5-0.3,2.1-0.8c0.6-0.6,0.8-1.3,0.8-2.1v-5.7h-5.3L265.1,231.8L265.1,231.8z
		 M253.2,232.5c0-1,0.3-1.6,0.8-1.6c0.3,0,0.6,0.2,0.7,0.4c0.1,0.4,0.2,0.8,0.2,1.2H253.2z"/>
	<path class="st0" d="M294,223.7c-0.8-0.6-1.7-0.8-2.7-0.8c-1.4-0.1-2.9,0.5-3.9,1.5c-0.6,0.6-0.9,1.1-1.1,1.9
		c-0.3,0.8-0.5,1.8-0.4,2.7l0.1,1.1c0,0.1,0,0.1,0,0.2c0.1,0.5,0.5,0.8,0.9,0.8h4.7v1.4h-6.7h-0.5c-0.3,0-0.6-0.1-0.8-0.3
		c-0.3-0.4-0.5-0.8-0.7-1.1l-3.6-6.8l-4.7,2.6l2.3,4.3c0.2,0.3,0.3,0.6,0.3,0.8c0,0.3-0.3,0.4-0.8,0.4h-4v4.9h6.2
		c0.9,0,1.8-0.2,2.5-0.7c0.9,0.5,1.9,0.8,2.9,0.7h0.5c0.1,0,0.1,0.1,0.2,0.1h8.5c0.8,0,1.6-0.3,2.2-0.8c0.7-0.6,0.9-1.4,0.9-2.3
		v-5.5c0-1-0.2-2.1-0.6-3C295.4,224.9,294.7,224.3,294,223.7z"/>
	<rect x="286.9" y="217.3" class="st0" width="7.8" height="3.6"/>
	<path class="st0" d="M319.5,228l-8.6,6.8l3.3,3.8c-0.5,0.4-0.9,0.8-1.6,0.9c-0.6,0.2-1.2,0.4-1.9,0.4c-0.7,0-1.2-0.1-1.8-0.3
		c-0.6-0.2-1-0.6-1.3-1c-0.4-0.5-0.6-1.1-0.6-1.7c0.1-1.1,0.5-2.3,1-3.2l-4.4-2.3c-0.9,2-1.4,4.2-1.5,6.4c0,1.1,0.2,2.3,0.6,3.3
		c0.4,0.9,1,1.7,1.8,2.3c2.5,1.8,5.8,2.3,8.8,1.4c0.5-0.2,0.8-0.3,1.3-0.6c0.5-0.2,0.9-0.5,1.4-0.8c0.7-0.5,1.3-0.8,2-1.4
		c1-0.8,2-1.7,2.9-2.6l-3.3-3.9l4.7-3.5L319.5,228z"/>
	<path class="st0" d="M351.7,227.3c0.6,0,1.1-0.2,1.6-0.7c0.8-0.8,0.8-2.3,0-3.1c-0.8-0.8-2.3-0.8-3.1,0s-0.8,2.3,0,3.1
		C350.5,227.1,351.1,227.3,351.7,227.3z"/>
	<rect x="355.9" y="239.3" class="st0" width="7.8" height="3.6"/>
	<path class="st0" d="M366.7,232.5c-0.3,0-0.6-0.1-0.8-0.3c-0.2-0.2-0.2-0.5-0.2-0.8v-2.2h-4.3v2.2c0,0.1,0,0.2,0,0.3
		c-0.1,0.5-0.5,0.8-0.9,0.7H356h-0.1h-0.2c-0.3,0-0.6-0.1-0.8-0.3c-0.2-0.2-0.2-0.5-0.2-0.8v-2.2h-4.4v2.2c0,0.1,0,0.2,0,0.3
		c-0.1,0.5-0.5,0.8-0.9,0.7h-4.5h-2.6l-4.5-4.9l-4.4,4.9h-2.7h-0.1h-0.3c-0.1,0-0.1,0-0.2,0c-0.4,0-0.6-0.4-0.6-0.7v-10.1h-5.3v12.8
		c0,0.1,0,0.2,0,0.3c0.1,1.5,1.3,2.6,2.8,2.6h3.6h2.1c0.4,1,1.1,2,2,2.7c1.9,1.3,4.4,1.3,6.4,0c0.9-0.7,1.6-1.6,2-2.7h1.8h7
		c0.2-0.3,0.4-0.5,0.6-0.7c0.3,0.2,0.5,0.4,0.7,0.7h2.8h6.9c0.2-0.3,0.4-0.5,0.6-0.7c0.3,0.2,0.5,0.4,0.7,0.7h2.8h16v-4.9
		L366.7,232.5L366.7,232.5z M337.9,236.6c-0.5,0-0.8-0.3-1-0.8l0.9-1l1,1.1C338.7,236.3,338.3,236.6,337.9,236.6z"/>
	<path class="st0" d="M420.9,228.7v3.1c0,0.1,0,0.1,0,0.2c-0.1,0.4-0.4,0.6-0.7,0.5h-3.8h-0.9c-0.3,0-0.6-0.1-0.8-0.3
		c-0.5-0.5-0.8-1-1.2-1.5l-3.4-4.4l6.1-2v-5l-10.6,3.3l-1.6,3.8l4.8,6h-10c-0.1,0-0.1,0-0.2,0c-0.4,0-0.6-0.4-0.6-0.7v-3h-5.4v5.7
		c0,0.8,0.3,1.5,0.8,2.1c0.6,0.6,1.3,0.8,2.1,0.8h20.8c0,0,0,0,0.1,0h6.8c0.8,0,1.5-0.3,2.1-0.8c0.6-0.6,0.8-1.3,0.8-2.1v-5.6l0,0
		L420.9,228.7L420.9,228.7z"/>
	<rect x="416.4" y="239.3" class="st0" width="7.8" height="3.6"/>
	<rect x="428.7" y="227.3" class="st0" width="7.8" height="3.2"/>
	<path class="st0" d="M432.6,226.9c0.5,0,0.8-0.2,1.2-0.5c0.3-0.3,0.5-0.8,0.5-1.2c0-0.9-0.8-1.7-1.7-1.6c-0.5,0-0.8,0.2-1.2,0.5
		s-0.5,0.8-0.5,1.2C430.9,226.2,431.6,226.9,432.6,226.9z"/>
	<path class="st0" d="M440,231.8L440,231.8c-0.1,0.1-0.1,0.1-0.1,0.2c-0.1,0.4-0.4,0.6-0.7,0.5h-2h-6.1v2.1c0,1.3-0.4,2.5-1.2,3.6
		c-1,1.1-2.3,2.1-3.8,2.5l2.5,4.4c1.3-0.5,2.6-1.1,3.8-2.1c0.7-0.5,1.2-1,1.7-1.6c0.6-0.6,0.9-1.2,1.3-2c0.4-0.8,0.7-1.5,0.8-2.3
		h0.9h5.2c0.1,0,0.1,0,0.2,0c1.5-0.1,2.7-1.3,2.6-2.8v-12.8H440L440,231.8L440,231.8z"/>
	<rect x="455.6" y="223.8" class="st0" width="7.8" height="3.6"/>
	<path class="st0" d="M464.3,232.5c-0.3,0-0.6-0.1-0.8-0.3c-0.2-0.2-0.2-0.5-0.2-0.8v-2.2H459v2.2c0,0.1,0,0.2,0,0.3
		c-0.1,0.5-0.5,0.8-0.9,0.7h-4.5h-0.1h-0.3c-0.1,0-0.1,0-0.2,0c-0.4,0-0.6-0.4-0.6-0.7v-10.1h-5.3v12.8c0,0.1,0,0.2,0,0.3
		c0.1,1.5,1.3,2.6,2.8,2.6h3.6h7c0.2-0.3,0.4-0.5,0.6-0.7c0.3,0.2,0.5,0.4,0.6,0.7h2.8h16v-4.9l-16,0.1L464.3,232.5L464.3,232.5z"/>
	<path class="st0" d="M498.6,231.8h-0.3c0,0.1,0,0.1,0,0.2c-0.1,0.4-0.4,0.6-0.7,0.5h-3.8h-0.8c0-1-0.2-2.2-0.6-3.1
		c-0.4-0.8-1-1.6-1.8-2.2c-1.8-1-3.9-1-5.7,0c-0.8,0.6-1.4,1.3-1.8,2.2c-0.4,0.9-0.7,2.1-0.6,3.1l0.8,4.9h3.8
		c-1,1.6-2.5,2.8-4.3,3.4l2.5,4.4c1.7-0.6,3.3-1.5,4.6-2.8c0.8-0.7,1.3-1.4,1.9-2.3s0.9-1.8,1.1-2.7h0.9h6.8c0.8,0,1.5-0.3,2.1-0.8
		c0.6-0.6,0.8-1.3,0.8-2.1v-5.7h-5.3V231.8z M487,232.5c0-1,0.3-1.6,0.8-1.6c0.3,0,0.6,0.2,0.7,0.4c0.2,0.4,0.2,0.8,0.2,1.2H487z"/>
	<path class="st0" d="M500.4,226.7c0.6,0,1.1-0.2,1.6-0.7c0.8-0.8,0.8-2.3,0-3.1s-2.3-0.8-3.1,0c-0.8,0.8-0.8,2.3,0,3.1
		C499.3,226.5,499.8,226.7,500.4,226.7z"/>
	<path class="st0" d="M548.6,232.5c-0.5,0-0.8-0.4-0.8-0.8c-0.1-0.8-0.4-1.6-0.8-2.3c-0.4-0.8-0.8-1.4-1.5-2c-1-0.9-2.3-1.6-3.7-1.9
		c-1.6-0.5-3.3-0.7-5-0.7h-0.2l0.4,5.1c0.6,0,1.1,0.1,1.5,0.1c0.4,0,0.8,0.1,1.1,0.2c0.4,0.1,0.8,0.2,1.1,0.3c0.4,0.1,0.8,0.3,1,0.5
		c0.3,0.2,0.6,0.4,0.8,0.7c0.2,0.3,0.3,0.6,0.3,0.8v0.1h-7.3h-0.1h-1c-0.3,0-0.7-0.1-0.9-0.2c-0.2-0.1-0.4-0.3-0.5-0.5
		c-0.1-0.2-0.2-0.4-0.2-0.6c0-0.2-0.1-0.4-0.2-0.5c0-0.1-0.1-0.2-0.2-0.2c-0.1,0-0.2,0.1-0.2,0.2c-0.1,0.1-0.1,0.3-0.2,0.5
		c-0.1,0.2-0.1,0.4-0.2,0.6c-0.1,0.2-0.3,0.4-0.5,0.5c-0.3,0.2-0.7,0.2-0.9,0.2h-0.4c-0.3,0-0.7-0.1-0.9-0.2
		c-0.2-0.1-0.4-0.3-0.5-0.5c-0.1-0.2-0.2-0.4-0.2-0.6c0-0.2-0.1-0.4-0.2-0.5c0-0.1-0.1-0.2-0.2-0.2c-0.1,0-0.2,0.1-0.2,0.2
		c-0.1,0.2-0.1,0.3-0.2,0.5c-0.1,0.2-0.1,0.4-0.2,0.6c-0.1,0.2-0.3,0.4-0.5,0.5c-0.3,0.2-0.7,0.2-0.9,0.2h-5v3.3
		c0,0.6-0.2,1.1-0.6,1.5c-0.4,0.5-0.8,0.8-1.4,0.9c-0.6,0.2-1.1,0.4-1.7,0.3c-0.8,0-1.6-0.2-2.2-0.8c-0.7-0.5-0.9-1.2-0.9-2.1
		c0.1-1.3,0.6-2.6,1.3-3.8l-4.2-2.2c-1.3,2.1-2,4.5-2.2,6.9c0,0.8,0.1,1.8,0.4,2.6c0.6,1.4,1.6,2.6,2.9,3.4c1.4,0.8,2.9,1.1,4.5,1.1
		s3.2-0.4,4.6-1c0.7-0.4,1.3-0.8,2-1.3c0.6-0.6,1.1-1.2,1.5-1.9c0.5-0.8,0.8-1.5,0.9-2.3c0.3,0,0.7-0.1,0.9-0.2
		c0.2-0.1,0.4-0.3,0.5-0.5l0.3-0.5c0-0.1,0.1-0.2,0.2-0.2c0.1,0,0.1,0.1,0.2,0.1l0.2,0.4c0.1,0.2,0.2,0.3,0.3,0.4
		c0.1,0.2,0.3,0.3,0.5,0.4c0.3,0.1,0.6,0.2,0.8,0.1h0.6c0.5,0,0.8-0.1,1.2-0.4c0.1-0.1,0.2-0.2,0.3-0.3c0.1-0.1,0.1-0.2,0.2-0.4
		c0-0.1,0.1-0.2,0.1-0.3s0.1-0.1,0.2-0.1c0.1,0,0.1,0.1,0.2,0.1l0.2,0.4c0.1,0.2,0.2,0.3,0.3,0.4c0.1,0.2,0.3,0.3,0.5,0.4
		c0.3,0.1,0.6,0.2,0.8,0.1h1.2v-0.1h13.5v-4.9h-0.6C548.7,232.5,548.6,232.5,548.6,232.5z"/>
	<path class="st0" d="M560.1,234.5L560.1,234.5c0.1,1.3-0.3,2.5-1.1,3.6c-1,1.1-2.3,2.1-3.8,2.5l2.5,4.4c1.6-0.6,3-1.4,4.2-2.4
		c0.7-0.6,1.3-1.2,1.8-2c0.6-0.8,0.9-1.6,1.2-2.4c0.3-0.9,0.5-1.9,0.5-2.8v-2.9h-5.3V234.5z"/>
	<path class="st0" d="M575.6,227.2c-1.8-1-3.9-1-5.7,0c-0.8,0.6-1.4,1.3-1.8,2.2c-0.4,0.9-0.7,2-0.7,3.1l0.8,4.9h3.8
		c-1,1.6-2.5,2.8-4.3,3.4l2.5,4.4c1.6-0.6,3-1.4,4.2-2.4c0.7-0.6,1.3-1.2,1.8-2c0.6-0.8,0.9-1.6,1.2-2.4c0.3-0.9,0.5-1.9,0.5-2.8
		v-2.9c0-1-0.2-2.2-0.6-3.1C577,228.5,576.4,227.8,575.6,227.2z M571.9,232.5c0-1,0.3-1.6,0.8-1.6c0.3,0,0.6,0.1,0.7,0.4
		c0.2,0.4,0.2,0.8,0.2,1.2H571.9z"/>
	<rect x="580" y="224.9" class="st0" width="5.3" height="12.5"/>
	<path class="st0" d="M585.5,218.6c-0.4,0.7-1.1,1.1-1.9,1.2c-0.5,0-0.9-0.2-1.4-0.3c-0.5-0.2-1-0.3-1.6-0.3c-1.1,0-2.3,0.8-3.4,2.3
		l2.1,2.4c0.4-0.7,1.1-1.1,1.9-1.1c0.6,0,1,0.1,1.6,0.3c0.6,0.2,1.1,0.3,1.7,0.3c1.3,0,2.4-0.8,3.4-2.4L585.5,218.6z"/>
	<path class="st0" d="M593.9,224.3l-4.7,2.6l2.2,4.1c0.2,0.4,0.4,0.7,0.5,1.1c0,0.3-0.3,0.4-0.8,0.4h-4v4.9h6.2c0.2,0,0.4,0,0.6,0
		c2.3-0.1,3.9-2.1,3.8-4.3c0-1.2-0.4-2.4-0.9-3.5L593.9,224.3z"/>
	<rect x="606" y="239.3" class="st0" width="7.8" height="3.6"/>
	<path class="st0" d="M610.5,228.7L610.5,228.7v3.1c0,0.1,0,0.1,0,0.2c-0.1,0.4-0.4,0.6-0.7,0.5h-3.8H606h-0.3c-0.1,0-0.1,0-0.2,0
		c-0.4,0-0.6-0.4-0.6-0.7v-10.1h-5.3v12.8c0,0.1,0,0.2,0,0.3c0.1,1.5,1.3,2.6,2.8,2.6h3.6h6.8c0.8,0,1.5-0.3,2.1-0.8
		c0.6-0.6,0.8-1.3,0.8-2.1v-5.7L610.5,228.7L610.5,228.7z"/>
</g>
<g>
	<path class="st0" d="M227.6,261.8h2.1c0.9,0,1.5,0.1,2,0.3c0.5,0.2,0.8,0.5,1.1,0.9c0.3,0.4,0.4,0.9,0.4,1.4c0,0.5-0.1,0.9-0.3,1.3
		c-0.2,0.4-0.6,0.7-1,1c0.6,0.2,1,0.4,1.3,0.7c0.3,0.3,0.5,0.6,0.7,0.9c0.2,0.4,0.3,0.8,0.3,1.2c0,0.9-0.3,1.6-0.9,2.2
		c-0.6,0.6-1.5,0.9-2.5,0.9h-3V261.8z M228.7,262.9v3.4h0.6c0.7,0,1.3-0.1,1.7-0.2c0.4-0.1,0.6-0.4,0.8-0.7c0.2-0.3,0.3-0.6,0.3-1
		c0-0.5-0.2-0.9-0.5-1.2c-0.3-0.3-0.9-0.4-1.6-0.4H228.7z M228.7,267.4v4.1h1.3c0.8,0,1.4-0.1,1.7-0.2c0.4-0.2,0.7-0.4,0.9-0.7
		s0.3-0.7,0.3-1.1c0-0.5-0.2-0.9-0.5-1.3s-0.7-0.6-1.3-0.7c-0.4-0.1-1-0.1-1.9-0.1H228.7z"/>
	<path class="st0" d="M236.6,261.4c0.2,0,0.4,0.1,0.6,0.2c0.2,0.2,0.2,0.4,0.2,0.6c0,0.2-0.1,0.4-0.2,0.6c-0.2,0.2-0.4,0.2-0.6,0.2
		c-0.2,0-0.4-0.1-0.6-0.2c-0.2-0.2-0.2-0.4-0.2-0.6c0-0.2,0.1-0.4,0.2-0.6C236.2,261.4,236.4,261.4,236.6,261.4z M236.1,264.6h1v8
		h-1V264.6z"/>
	<path class="st0" d="M239.5,264.6h1v1.4c0.4-0.5,0.9-1,1.4-1.2c0.5-0.3,1-0.4,1.6-0.4c0.6,0,1.1,0.2,1.6,0.5c0.5,0.3,0.8,0.7,1,1.2
		s0.3,1.3,0.3,2.4v4.1h-1v-3.8c0-0.9,0-1.5-0.1-1.8c-0.1-0.5-0.3-0.9-0.7-1.2c-0.3-0.3-0.8-0.4-1.3-0.4c-0.6,0-1.2,0.2-1.7,0.6
		c-0.5,0.4-0.8,0.9-1,1.5c-0.1,0.4-0.1,1.1-0.1,2.2v2.9h-1V264.6z"/>
	<path class="st0" d="M256.8,264.6v8h-1v-1.4c-0.4,0.5-0.9,0.9-1.4,1.2c-0.5,0.3-1.1,0.4-1.8,0.4c-1.1,0-2.1-0.4-2.9-1.2
		c-0.8-0.8-1.2-1.8-1.2-3c0-1.1,0.4-2.1,1.2-2.9s1.8-1.2,2.9-1.2c0.7,0,1.2,0.1,1.8,0.4s1,0.7,1.4,1.3v-1.5H256.8z M252.7,265.4
		c-0.6,0-1.1,0.1-1.6,0.4c-0.5,0.3-0.9,0.7-1.2,1.2c-0.3,0.5-0.4,1-0.4,1.6c0,0.6,0.1,1.1,0.4,1.6c0.3,0.5,0.7,0.9,1.2,1.2
		c0.5,0.3,1,0.4,1.6,0.4c0.6,0,1.1-0.1,1.6-0.4c0.5-0.3,0.9-0.7,1.2-1.1c0.3-0.5,0.4-1,0.4-1.6c0-0.9-0.3-1.7-0.9-2.3
		C254.4,265.7,253.6,265.4,252.7,265.4z"/>
	<path class="st0" d="M259.3,264.6h1v1.4c0.4-0.5,0.7-0.9,1.1-1.1c0.5-0.3,1.1-0.5,1.6-0.5c0.4,0,0.8,0.1,1.1,0.2s0.6,0.4,0.9,0.6
		c0.2,0.3,0.4,0.6,0.6,1.1c0.3-0.6,0.8-1.1,1.3-1.4c0.5-0.3,1.1-0.5,1.7-0.5c0.6,0,1,0.1,1.5,0.4s0.7,0.7,0.9,1.2s0.3,1.2,0.3,2.2
		v4.4h-1v-4.4c0-0.9-0.1-1.4-0.2-1.8c-0.1-0.3-0.3-0.6-0.6-0.8s-0.6-0.3-1.1-0.3c-0.5,0-1,0.1-1.4,0.4c-0.4,0.3-0.7,0.7-0.9,1.2
		c-0.2,0.5-0.3,1.3-0.3,2.4v3.1h-1v-4.1c0-1-0.1-1.6-0.2-2c-0.1-0.3-0.3-0.6-0.6-0.8c-0.3-0.2-0.7-0.3-1.1-0.3
		c-0.5,0-0.9,0.1-1.3,0.4c-0.4,0.3-0.7,0.7-0.9,1.2c-0.2,0.5-0.3,1.2-0.3,2.2v3.4h-1V264.6z"/>
	<path class="st0" d="M281.6,264.6v8h-1v-1.4c-0.4,0.5-0.9,0.9-1.4,1.2c-0.5,0.3-1.1,0.4-1.8,0.4c-1.1,0-2.1-0.4-2.9-1.2
		c-0.8-0.8-1.2-1.8-1.2-3c0-1.1,0.4-2.1,1.2-2.9s1.8-1.2,2.9-1.2c0.7,0,1.2,0.1,1.8,0.4s1,0.7,1.4,1.3v-1.5H281.6z M277.5,265.4
		c-0.6,0-1.1,0.1-1.6,0.4c-0.5,0.3-0.9,0.7-1.2,1.2c-0.3,0.5-0.4,1-0.4,1.6c0,0.6,0.1,1.1,0.4,1.6c0.3,0.5,0.7,0.9,1.2,1.2
		c0.5,0.3,1,0.4,1.6,0.4c0.6,0,1.1-0.1,1.6-0.4c0.5-0.3,0.9-0.7,1.2-1.1c0.3-0.5,0.4-1,0.4-1.6c0-0.9-0.3-1.7-0.9-2.3
		C279.1,265.7,278.4,265.4,277.5,265.4z"/>
	<path class="st0" d="M285.1,270.6l1,0.5l-1.5,2.8l-0.7-0.3L285.1,270.6z"/>
	<path class="st0" d="M300.8,264.6v8h-1v-1.4c-0.4,0.5-0.9,0.9-1.4,1.2c-0.5,0.3-1.1,0.4-1.8,0.4c-1.1,0-2.1-0.4-2.9-1.2
		c-0.8-0.8-1.2-1.8-1.2-3c0-1.1,0.4-2.1,1.2-2.9s1.8-1.2,2.9-1.2c0.7,0,1.2,0.1,1.8,0.4s1,0.7,1.4,1.3v-1.5H300.8z M296.7,265.4
		c-0.6,0-1.1,0.1-1.6,0.4c-0.5,0.3-0.9,0.7-1.2,1.2c-0.3,0.5-0.4,1-0.4,1.6c0,0.6,0.1,1.1,0.4,1.6c0.3,0.5,0.7,0.9,1.2,1.2
		c0.5,0.3,1,0.4,1.6,0.4c0.6,0,1.1-0.1,1.6-0.4c0.5-0.3,0.9-0.7,1.2-1.1c0.3-0.5,0.4-1,0.4-1.6c0-0.9-0.3-1.7-0.9-2.3
		C298.4,265.7,297.6,265.4,296.7,265.4z"/>
	<path class="st0" d="M307.7,264.6h1v1.5c0.4-0.6,0.9-1,1.4-1.3s1.1-0.4,1.8-0.4c1.1,0,2.1,0.4,2.9,1.2c0.8,0.8,1.2,1.8,1.2,2.9
		c0,1.2-0.4,2.2-1.2,3c-0.8,0.8-1.8,1.2-2.9,1.2c-0.6,0-1.2-0.1-1.7-0.4s-1-0.7-1.4-1.2v4.3h-1V264.6z M311.8,265.4
		c-0.9,0-1.6,0.3-2.2,0.9c-0.6,0.6-0.9,1.4-0.9,2.3c0,0.6,0.1,1.1,0.4,1.6c0.3,0.5,0.7,0.9,1.2,1.1c0.5,0.3,1,0.4,1.6,0.4
		c0.6,0,1.1-0.1,1.6-0.4c0.5-0.3,0.9-0.7,1.2-1.2c0.3-0.5,0.4-1,0.4-1.6c0-0.6-0.1-1.1-0.4-1.6c-0.3-0.5-0.7-0.9-1.2-1.2
		C312.9,265.6,312.4,265.4,311.8,265.4z"/>
	<path class="st0" d="M324.9,270l0.9,0.5c-0.3,0.6-0.6,1-1,1.3s-0.8,0.6-1.3,0.8c-0.5,0.2-1,0.3-1.6,0.3c-1.3,0-2.3-0.4-3-1.3
		c-0.7-0.9-1.1-1.8-1.1-2.9c0-1,0.3-1.9,0.9-2.7c0.8-1,1.8-1.5,3.2-1.5c1.4,0,2.4,0.5,3.3,1.5c0.6,0.7,0.9,1.6,0.9,2.7h-7.2
		c0,0.9,0.3,1.7,0.9,2.3c0.6,0.6,1.3,0.9,2.1,0.9c0.4,0,0.8-0.1,1.2-0.2c0.4-0.1,0.7-0.3,1-0.6C324.3,270.9,324.6,270.5,324.9,270z
		 M324.9,267.8c-0.1-0.5-0.3-1-0.6-1.3s-0.6-0.6-1-0.8s-0.9-0.3-1.4-0.3c-0.8,0-1.5,0.3-2,0.8c-0.4,0.4-0.7,0.9-0.9,1.6H324.9z"/>
	<path class="st0" d="M327.8,264.6h1v1.2c0.3-0.5,0.6-0.8,1-1c0.3-0.2,0.7-0.3,1.1-0.3c0.3,0,0.6,0.1,0.9,0.3l-0.5,0.9
		c-0.2-0.1-0.4-0.1-0.5-0.1c-0.3,0-0.7,0.1-1,0.4c-0.3,0.3-0.6,0.7-0.7,1.3c-0.1,0.5-0.2,1.4-0.2,2.8v2.7h-1V264.6z"/>
	<path class="st0" d="M336.9,265.5l-0.7,0.7c-0.5-0.5-1.1-0.8-1.6-0.8c-0.3,0-0.6,0.1-0.9,0.3s-0.4,0.5-0.4,0.8
		c0,0.3,0.1,0.5,0.3,0.7c0.2,0.2,0.6,0.5,1.2,0.8c0.8,0.4,1.3,0.8,1.6,1.1c0.3,0.4,0.4,0.8,0.4,1.3c0,0.7-0.2,1.2-0.7,1.7
		c-0.5,0.5-1,0.7-1.7,0.7c-0.5,0-0.9-0.1-1.3-0.3c-0.4-0.2-0.8-0.5-1-0.8l0.6-0.7c0.5,0.6,1.1,0.9,1.7,0.9c0.4,0,0.8-0.1,1-0.4
		c0.3-0.3,0.4-0.6,0.4-0.9c0-0.3-0.1-0.6-0.3-0.8c-0.2-0.2-0.6-0.5-1.3-0.8c-0.7-0.4-1.2-0.7-1.5-1.1s-0.4-0.8-0.4-1.2
		c0-0.6,0.2-1.1,0.6-1.5c0.4-0.4,0.9-0.6,1.6-0.6C335.4,264.4,336.2,264.8,336.9,265.5z"/>
	<path class="st0" d="M342.7,264.4c1.2,0,2.2,0.4,3.1,1.3c0.7,0.8,1.1,1.8,1.1,2.9c0,1.1-0.4,2.1-1.2,2.9c-0.8,0.8-1.8,1.2-3,1.2
		c-1.2,0-2.2-0.4-3-1.2c-0.8-0.8-1.2-1.8-1.2-2.9c0-1.1,0.4-2.1,1.1-2.9C340.5,264.9,341.5,264.4,342.7,264.4z M342.7,265.4
		c-0.9,0-1.6,0.3-2.2,0.9c-0.6,0.6-0.9,1.4-0.9,2.3c0,0.6,0.1,1.1,0.4,1.6s0.7,0.9,1.1,1.2c0.5,0.3,1,0.4,1.6,0.4
		c0.6,0,1.1-0.1,1.6-0.4c0.5-0.3,0.9-0.7,1.1-1.2s0.4-1,0.4-1.6c0-0.9-0.3-1.7-0.9-2.3C344.3,265.8,343.6,265.4,342.7,265.4z"/>
	<path class="st0" d="M348.3,268.1h4v0.9h-4V268.1z"/>
	<path class="st0" d="M362.1,264.6v8h-1v-1.4c-0.4,0.5-0.9,0.9-1.4,1.2c-0.5,0.3-1.1,0.4-1.8,0.4c-1.1,0-2.1-0.4-2.9-1.2
		c-0.8-0.8-1.2-1.8-1.2-3c0-1.1,0.4-2.1,1.2-2.9s1.8-1.2,2.9-1.2c0.7,0,1.2,0.1,1.8,0.4s1,0.7,1.4,1.3v-1.5H362.1z M358,265.4
		c-0.6,0-1.1,0.1-1.6,0.4c-0.5,0.3-0.9,0.7-1.2,1.2c-0.3,0.5-0.4,1-0.4,1.6c0,0.6,0.1,1.1,0.4,1.6c0.3,0.5,0.7,0.9,1.2,1.2
		c0.5,0.3,1,0.4,1.6,0.4c0.6,0,1.1-0.1,1.6-0.4c0.5-0.3,0.9-0.7,1.2-1.1c0.3-0.5,0.4-1,0.4-1.6c0-0.9-0.3-1.7-0.9-2.3
		C359.7,265.7,358.9,265.4,358,265.4z"/>
	<path class="st0" d="M364.3,264.6h1v1.2c0.3-0.5,0.6-0.8,1-1c0.3-0.2,0.7-0.3,1.1-0.3c0.3,0,0.6,0.1,0.9,0.3l-0.5,0.9
		c-0.2-0.1-0.4-0.1-0.5-0.1c-0.3,0-0.7,0.1-1,0.4c-0.3,0.3-0.6,0.7-0.7,1.3c-0.1,0.5-0.2,1.4-0.2,2.8v2.7h-1V264.6z"/>
	<path class="st0" d="M377.3,264.6v8h-1v-1.4c-0.4,0.5-0.9,0.9-1.4,1.2c-0.5,0.3-1.1,0.4-1.8,0.4c-1.1,0-2.1-0.4-2.9-1.2
		c-0.8-0.8-1.2-1.8-1.2-3c0-1.1,0.4-2.1,1.2-2.9s1.8-1.2,2.9-1.2c0.7,0,1.2,0.1,1.8,0.4s1,0.7,1.4,1.3v-1.5H377.3z M373.2,265.4
		c-0.6,0-1.1,0.1-1.6,0.4c-0.5,0.3-0.9,0.7-1.2,1.2c-0.3,0.5-0.4,1-0.4,1.6c0,0.6,0.1,1.1,0.4,1.6c0.3,0.5,0.7,0.9,1.2,1.2
		c0.5,0.3,1,0.4,1.6,0.4c0.6,0,1.1-0.1,1.6-0.4c0.5-0.3,0.9-0.7,1.2-1.1c0.3-0.5,0.4-1,0.4-1.6c0-0.9-0.3-1.7-0.9-2.3
		C374.9,265.7,374.1,265.4,373.2,265.4z"/>
	<path class="st0" d="M379.9,272.6v-11h1v4.4c0.4-0.5,0.9-0.9,1.4-1.2c0.5-0.3,1.1-0.4,1.7-0.4c1.1,0,2.1,0.4,2.9,1.2
		c0.8,0.8,1.2,1.8,1.2,3c0,1.2-0.4,2.1-1.2,3c-0.8,0.8-1.8,1.2-2.9,1.2c-0.6,0-1.2-0.1-1.8-0.4s-1-0.7-1.4-1.3v1.5H379.9z
		 M384,271.8c0.6,0,1.1-0.1,1.6-0.4c0.5-0.3,0.9-0.7,1.2-1.2c0.3-0.5,0.4-1,0.4-1.6s-0.1-1.1-0.4-1.6s-0.7-0.9-1.2-1.2
		c-0.5-0.3-1-0.4-1.6-0.4c-0.6,0-1.1,0.1-1.6,0.4c-0.5,0.3-0.9,0.7-1.2,1.2c-0.3,0.5-0.4,1-0.4,1.6c0,0.9,0.3,1.7,0.9,2.3
		S383.2,271.8,384,271.8z"/>
	<path class="st0" d="M390.7,261.4c0.2,0,0.4,0.1,0.6,0.2c0.2,0.2,0.2,0.4,0.2,0.6c0,0.2-0.1,0.4-0.2,0.6c-0.2,0.2-0.4,0.2-0.6,0.2
		c-0.2,0-0.4-0.1-0.6-0.2c-0.2-0.2-0.2-0.4-0.2-0.6c0-0.2,0.1-0.4,0.2-0.6C390.3,261.4,390.5,261.4,390.7,261.4z M390.2,264.6h1v8
		h-1V264.6z"/>
	<path class="st0" d="M401.3,266.3l-0.8,0.5c-0.7-0.9-1.7-1.4-2.9-1.4c-1,0-1.8,0.3-2.4,0.9c-0.6,0.6-1,1.4-1,2.3
		c0,0.6,0.1,1.1,0.4,1.6c0.3,0.5,0.7,0.9,1.2,1.2c0.5,0.3,1.1,0.4,1.7,0.4c1.2,0,2.1-0.5,2.9-1.4l0.8,0.5c-0.4,0.6-0.9,1-1.5,1.3
		c-0.6,0.3-1.4,0.5-2.2,0.5c-1.3,0-2.3-0.4-3.1-1.2s-1.2-1.8-1.2-2.9c0-0.8,0.2-1.5,0.6-2.2c0.4-0.7,0.9-1.2,1.6-1.5
		s1.4-0.6,2.3-0.6c0.5,0,1,0.1,1.5,0.2c0.5,0.2,0.9,0.4,1.2,0.6C400.8,265.6,401.1,265.9,401.3,266.3z"/>
	<path class="st0" d="M411.9,265.5l-0.7,0.7c-0.5-0.5-1.1-0.8-1.6-0.8c-0.3,0-0.6,0.1-0.9,0.3s-0.4,0.5-0.4,0.8
		c0,0.3,0.1,0.5,0.3,0.7c0.2,0.2,0.6,0.5,1.2,0.8c0.8,0.4,1.3,0.8,1.6,1.1c0.3,0.4,0.4,0.8,0.4,1.3c0,0.7-0.2,1.2-0.7,1.7
		s-1,0.7-1.7,0.7c-0.5,0-0.9-0.1-1.3-0.3s-0.8-0.5-1-0.8l0.6-0.7c0.5,0.6,1.1,0.9,1.7,0.9c0.4,0,0.8-0.1,1-0.4s0.4-0.6,0.4-0.9
		c0-0.3-0.1-0.6-0.3-0.8c-0.2-0.2-0.6-0.5-1.3-0.8c-0.7-0.4-1.2-0.7-1.5-1.1c-0.3-0.4-0.4-0.8-0.4-1.2c0-0.6,0.2-1.1,0.6-1.5
		s0.9-0.6,1.6-0.6C410.4,264.4,411.1,264.8,411.9,265.5z"/>
	<path class="st0" d="M421.6,266.3l-0.8,0.5c-0.7-0.9-1.7-1.4-2.9-1.4c-1,0-1.8,0.3-2.4,0.9c-0.6,0.6-1,1.4-1,2.3
		c0,0.6,0.1,1.1,0.4,1.6c0.3,0.5,0.7,0.9,1.2,1.2c0.5,0.3,1.1,0.4,1.7,0.4c1.2,0,2.1-0.5,2.9-1.4l0.8,0.5c-0.4,0.6-0.9,1-1.5,1.3
		c-0.6,0.3-1.4,0.5-2.2,0.5c-1.3,0-2.3-0.4-3.1-1.2s-1.2-1.8-1.2-2.9c0-0.8,0.2-1.5,0.6-2.2c0.4-0.7,0.9-1.2,1.6-1.5
		s1.4-0.6,2.3-0.6c0.5,0,1,0.1,1.5,0.2c0.5,0.2,0.9,0.4,1.2,0.6C421.1,265.6,421.4,265.9,421.6,266.3z"/>
	<path class="st0" d="M423.5,264.6h1v1.2c0.3-0.5,0.6-0.8,1-1c0.3-0.2,0.7-0.3,1.1-0.3c0.3,0,0.6,0.1,0.9,0.3l-0.5,0.9
		c-0.2-0.1-0.4-0.1-0.5-0.1c-0.3,0-0.7,0.1-1,0.4c-0.3,0.3-0.6,0.7-0.7,1.3c-0.1,0.5-0.2,1.4-0.2,2.8v2.7h-1V264.6z"/>
	<path class="st0" d="M428.9,261.4c0.2,0,0.4,0.1,0.6,0.2s0.2,0.4,0.2,0.6c0,0.2-0.1,0.4-0.2,0.6s-0.4,0.2-0.6,0.2
		c-0.2,0-0.4-0.1-0.6-0.2s-0.2-0.4-0.2-0.6c0-0.2,0.1-0.4,0.2-0.6S428.7,261.4,428.9,261.4z M428.4,264.6h1v8h-1V264.6z"/>
	<path class="st0" d="M431.8,264.6h1v1.5c0.4-0.6,0.9-1,1.4-1.3c0.5-0.3,1.1-0.4,1.8-0.4c1.1,0,2.1,0.4,2.9,1.2s1.2,1.8,1.2,2.9
		c0,1.2-0.4,2.2-1.2,3c-0.8,0.8-1.8,1.2-2.9,1.2c-0.6,0-1.2-0.1-1.7-0.4s-1-0.7-1.4-1.2v4.3h-1V264.6z M435.9,265.4
		c-0.9,0-1.6,0.3-2.2,0.9c-0.6,0.6-0.9,1.4-0.9,2.3c0,0.6,0.1,1.1,0.4,1.6c0.3,0.5,0.7,0.9,1.2,1.1c0.5,0.3,1,0.4,1.6,0.4
		c0.6,0,1.1-0.1,1.6-0.4c0.5-0.3,0.9-0.7,1.2-1.2c0.3-0.5,0.4-1,0.4-1.6c0-0.6-0.1-1.1-0.4-1.6c-0.3-0.5-0.7-0.9-1.2-1.2
		C437,265.6,436.5,265.4,435.9,265.4z"/>
	<path class="st0" d="M443.2,261.7h1v3h1.6v0.9h-1.6v7.1h-1v-7.1h-1.4v-0.9h1.4V261.7z"/>
	<path class="st0" d="M459.9,261.6v11h-1v-1.4c-0.4,0.5-0.9,0.9-1.4,1.2c-0.5,0.3-1.1,0.4-1.8,0.4c-1.1,0-2.1-0.4-2.9-1.2
		c-0.8-0.8-1.2-1.8-1.2-3c0-1.1,0.4-2.1,1.2-2.9s1.8-1.2,2.9-1.2c0.7,0,1.2,0.1,1.8,0.4c0.5,0.3,1,0.7,1.4,1.3v-4.5H459.9z
		 M455.8,265.4c-0.6,0-1.1,0.1-1.6,0.4c-0.5,0.3-0.9,0.7-1.2,1.2c-0.3,0.5-0.4,1-0.4,1.6c0,0.6,0.1,1.1,0.4,1.6
		c0.3,0.5,0.7,0.9,1.2,1.2c0.5,0.3,1,0.4,1.6,0.4c0.6,0,1.1-0.1,1.6-0.4c0.5-0.3,0.9-0.7,1.2-1.1c0.3-0.5,0.4-1,0.4-1.6
		c0-0.9-0.3-1.7-0.9-2.3C457.4,265.7,456.7,265.4,455.8,265.4z"/>
	<path class="st0" d="M462.8,261.4c0.2,0,0.4,0.1,0.6,0.2s0.2,0.4,0.2,0.6c0,0.2-0.1,0.4-0.2,0.6s-0.4,0.2-0.6,0.2
		c-0.2,0-0.4-0.1-0.6-0.2s-0.2-0.4-0.2-0.6c0-0.2,0.1-0.4,0.2-0.6S462.6,261.4,462.8,261.4z M462.3,264.6h1v8h-1V264.6z"/>
	<path class="st0" d="M469.7,265.5l-0.7,0.7c-0.5-0.5-1.1-0.8-1.6-0.8c-0.3,0-0.6,0.1-0.9,0.3s-0.4,0.5-0.4,0.8
		c0,0.3,0.1,0.5,0.3,0.7c0.2,0.2,0.6,0.5,1.2,0.8c0.8,0.4,1.3,0.8,1.6,1.1c0.3,0.4,0.4,0.8,0.4,1.3c0,0.7-0.2,1.2-0.7,1.7
		s-1,0.7-1.7,0.7c-0.5,0-0.9-0.1-1.3-0.3s-0.8-0.5-1-0.8l0.6-0.7c0.5,0.6,1.1,0.9,1.7,0.9c0.4,0,0.8-0.1,1-0.4s0.4-0.6,0.4-0.9
		c0-0.3-0.1-0.6-0.3-0.8c-0.2-0.2-0.6-0.5-1.3-0.8c-0.7-0.4-1.2-0.7-1.5-1.1c-0.3-0.4-0.4-0.8-0.4-1.2c0-0.6,0.2-1.1,0.6-1.5
		s0.9-0.6,1.6-0.6C468.2,264.4,468.9,264.8,469.7,265.5z"/>
	<path class="st0" d="M471.7,264.6h1v1.5c0.4-0.6,0.9-1,1.4-1.3c0.5-0.3,1.1-0.4,1.8-0.4c1.1,0,2.1,0.4,2.9,1.2s1.2,1.8,1.2,2.9
		c0,1.2-0.4,2.2-1.2,3c-0.8,0.8-1.8,1.2-2.9,1.2c-0.6,0-1.2-0.1-1.7-0.4s-1-0.7-1.4-1.2v4.3h-1V264.6z M475.8,265.4
		c-0.9,0-1.6,0.3-2.2,0.9c-0.6,0.6-0.9,1.4-0.9,2.3c0,0.6,0.1,1.1,0.4,1.6c0.3,0.5,0.7,0.9,1.2,1.1c0.5,0.3,1,0.4,1.6,0.4
		c0.6,0,1.1-0.1,1.6-0.4c0.5-0.3,0.9-0.7,1.2-1.2c0.3-0.5,0.4-1,0.4-1.6c0-0.6-0.1-1.1-0.4-1.6c-0.3-0.5-0.7-0.9-1.2-1.2
		C476.9,265.6,476.4,265.4,475.8,265.4z"/>
	<path class="st0" d="M482,261.6h1v11h-1V261.6z"/>
	<path class="st0" d="M493.4,264.6v8h-1v-1.4c-0.4,0.5-0.9,0.9-1.4,1.2c-0.5,0.3-1.1,0.4-1.8,0.4c-1.1,0-2.1-0.4-2.9-1.2
		c-0.8-0.8-1.2-1.8-1.2-3c0-1.1,0.4-2.1,1.2-2.9s1.8-1.2,2.9-1.2c0.7,0,1.2,0.1,1.8,0.4c0.5,0.3,1,0.7,1.4,1.3v-1.5H493.4z
		 M489.3,265.4c-0.6,0-1.1,0.1-1.6,0.4c-0.5,0.3-0.9,0.7-1.2,1.2c-0.3,0.5-0.4,1-0.4,1.6c0,0.6,0.1,1.1,0.4,1.6
		c0.3,0.5,0.7,0.9,1.2,1.2c0.5,0.3,1,0.4,1.6,0.4c0.6,0,1.1-0.1,1.6-0.4c0.5-0.3,0.9-0.7,1.2-1.1c0.3-0.5,0.4-1,0.4-1.6
		c0-0.9-0.3-1.7-0.9-2.3C490.9,265.7,490.1,265.4,489.3,265.4z"/>
	<path class="st0" d="M495,264.6h1.1l2.7,6.1l2.7-6.1h1.1l-4.8,10.9h-1.1l1.5-3.5L495,264.6z"/>
	<path class="st0" d="M509.4,261.7h1v3h1.6v0.9h-1.6v7.1h-1v-7.1H508v-0.9h1.4V261.7z"/>
	<path class="st0" d="M513,264.6h1.1l2.7,6.1l2.7-6.1h1.1l-4.8,10.9h-1.1l1.5-3.5L513,264.6z"/>
	<path class="st0" d="M522.1,264.6h1v1.5c0.4-0.6,0.9-1,1.4-1.3c0.5-0.3,1.1-0.4,1.8-0.4c1.1,0,2.1,0.4,2.9,1.2s1.2,1.8,1.2,2.9
		c0,1.2-0.4,2.2-1.2,3c-0.8,0.8-1.8,1.2-2.9,1.2c-0.6,0-1.2-0.1-1.7-0.4s-1-0.7-1.4-1.2v4.3h-1V264.6z M526.2,265.4
		c-0.9,0-1.6,0.3-2.2,0.9c-0.6,0.6-0.9,1.4-0.9,2.3c0,0.6,0.1,1.1,0.4,1.6c0.3,0.5,0.7,0.9,1.2,1.1c0.5,0.3,1,0.4,1.6,0.4
		c0.6,0,1.1-0.1,1.6-0.4c0.5-0.3,0.9-0.7,1.2-1.2c0.3-0.5,0.4-1,0.4-1.6c0-0.6-0.1-1.1-0.4-1.6c-0.3-0.5-0.7-0.9-1.2-1.2
		C527.3,265.6,526.8,265.4,526.2,265.4z"/>
	<path class="st0" d="M539.3,270l0.9,0.5c-0.3,0.6-0.6,1-1,1.3s-0.8,0.6-1.3,0.8c-0.5,0.2-1,0.3-1.6,0.3c-1.3,0-2.3-0.4-3-1.3
		c-0.7-0.9-1.1-1.8-1.1-2.9c0-1,0.3-1.9,0.9-2.7c0.8-1,1.8-1.5,3.2-1.5c1.4,0,2.4,0.5,3.3,1.5c0.6,0.7,0.9,1.6,0.9,2.7h-7.2
		c0,0.9,0.3,1.7,0.9,2.3s1.3,0.9,2.1,0.9c0.4,0,0.8-0.1,1.2-0.2c0.4-0.1,0.7-0.3,1-0.6C538.7,270.9,539,270.5,539.3,270z
		 M539.3,267.8c-0.1-0.5-0.3-1-0.6-1.3s-0.6-0.6-1-0.8c-0.4-0.2-0.9-0.3-1.4-0.3c-0.8,0-1.5,0.3-2,0.8c-0.4,0.4-0.7,0.9-0.9,1.6
		H539.3z"/>
	<path class="st0" d="M545.8,261.6v1c-0.4-0.2-0.7-0.2-1-0.2c-0.2,0-0.4,0-0.5,0.1c-0.1,0.1-0.2,0.2-0.2,0.3c0,0.1-0.1,0.4-0.1,0.8
		v1.1h1.7v0.9H544l0,7.1h-1v-7.1h-1v-0.9h1v-1.2c0-0.6,0.1-1,0.2-1.2c0.1-0.2,0.3-0.4,0.5-0.6c0.3-0.1,0.6-0.2,0.9-0.2
		C545,261.4,545.4,261.4,545.8,261.6z"/>
	<path class="st0" d="M555.4,264.6v8h-1v-1.4c-0.4,0.5-0.9,0.9-1.4,1.2c-0.5,0.3-1.1,0.4-1.8,0.4c-1.1,0-2.1-0.4-2.9-1.2
		c-0.8-0.8-1.2-1.8-1.2-3c0-1.1,0.4-2.1,1.2-2.9s1.8-1.2,2.9-1.2c0.7,0,1.2,0.1,1.8,0.4c0.5,0.3,1,0.7,1.4,1.3v-1.5H555.4z
		 M551.3,265.4c-0.6,0-1.1,0.1-1.6,0.4c-0.5,0.3-0.9,0.7-1.2,1.2c-0.3,0.5-0.4,1-0.4,1.6c0,0.6,0.1,1.1,0.4,1.6
		c0.3,0.5,0.7,0.9,1.2,1.2c0.5,0.3,1,0.4,1.6,0.4c0.6,0,1.1-0.1,1.6-0.4c0.5-0.3,0.9-0.7,1.2-1.1c0.3-0.5,0.4-1,0.4-1.6
		c0-0.9-0.3-1.7-0.9-2.3C552.9,265.7,552.2,265.4,551.3,265.4z"/>
	<path class="st0" d="M565.7,266.3l-0.8,0.5c-0.7-0.9-1.7-1.4-2.9-1.4c-1,0-1.8,0.3-2.4,0.9c-0.6,0.6-1,1.4-1,2.3
		c0,0.6,0.1,1.1,0.4,1.6c0.3,0.5,0.7,0.9,1.2,1.2c0.5,0.3,1.1,0.4,1.7,0.4c1.2,0,2.1-0.5,2.9-1.4l0.8,0.5c-0.4,0.6-0.9,1-1.5,1.3
		c-0.6,0.3-1.4,0.5-2.2,0.5c-1.3,0-2.3-0.4-3.1-1.2s-1.2-1.8-1.2-2.9c0-0.8,0.2-1.5,0.6-2.2c0.4-0.7,0.9-1.2,1.6-1.5
		s1.4-0.6,2.3-0.6c0.5,0,1,0.1,1.5,0.2c0.5,0.2,0.9,0.4,1.2,0.6C565.1,265.6,565.4,265.9,565.7,266.3z"/>
	<path class="st0" d="M574.6,270l0.9,0.5c-0.3,0.6-0.6,1-1,1.3s-0.8,0.6-1.3,0.8c-0.5,0.2-1,0.3-1.6,0.3c-1.3,0-2.3-0.4-3-1.3
		c-0.7-0.9-1.1-1.8-1.1-2.9c0-1,0.3-1.9,0.9-2.7c0.8-1,1.8-1.5,3.2-1.5c1.4,0,2.4,0.5,3.3,1.5c0.6,0.7,0.9,1.6,0.9,2.7h-7.2
		c0,0.9,0.3,1.7,0.9,2.3s1.3,0.9,2.1,0.9c0.4,0,0.8-0.1,1.2-0.2c0.4-0.1,0.7-0.3,1-0.6C574,270.9,574.3,270.5,574.6,270z
		 M574.6,267.8c-0.1-0.5-0.3-1-0.6-1.3s-0.6-0.6-1-0.8c-0.4-0.2-0.9-0.3-1.4-0.3c-0.8,0-1.5,0.3-2,0.8c-0.4,0.4-0.7,0.9-0.9,1.6
		H574.6z"/>
</g>
<g>
	<path class="st0" d="M368.2,61.8c4.2,0,8.2-1.7,11.2-4.7c6.1-6.2,6.1-16.2-0.1-22.3s-16.2-6.1-22.3,0.1c-6.1,6.2-6.1,16.2,0.1,22.3
		C360,60.2,364,61.8,368.2,61.8z"/>
	<path class="st0" d="M349.9,98L349.9,98c-0.1,3.2-1.8,4.9-5.1,4.9h-45.4l-32.1-35l-31.9,35h-22.6c-3.3,0-5-1.6-5-4.8V25.8h-38v91.6
		c0,6,1.9,11,5.7,14.7c3.8,3.8,8.7,5.7,14.6,5.7h40.4c2.9,7.7,7.9,14.4,14.4,19.3c13.6,9.7,31.8,9.7,45.3,0
		c6.5-4.9,11.5-11.6,14.3-19.3l62.7,0.1c5.5,0.2,10.8-1.9,14.8-5.7c3.9-3.8,5.8-8.7,5.8-14.7V75.8h-38L349.9,98L349.9,98z
		 M267.6,132.6c-3.1,0-5.4-1.8-7-5.4l6.7-7.5l7.1,7.7C273,130.8,270.7,132.6,267.6,132.6z"/>
	<path class="st0" d="M594.9,76.2V98c0,3.2-1.7,4.8-5,4.8h-37.1l-24-32l-61.7,48.5l23.4,26.7c-3.2,3.1-7,5.5-11.2,7
		c-4.4,1.6-9,2.5-13.7,2.5c-4.4,0.1-8.8-0.8-12.9-2.4c-3.8-1.5-7.2-4.1-9.6-7.5c-2.6-3.5-3.9-7.8-3.8-12.1c0-6.8,2.5-14.4,7.6-22.6
		l-31.6-16.7c-7.2,17.2-10.8,32.5-10.8,45.9c-0.1,8,1.4,16,4.5,23.4c2.8,6.6,7.1,12.4,12.6,17c11,8.9,25.4,13.4,43.3,13.4
		c6.7-0.1,13.4-1.2,19.8-3.3c3.2-1,6.4-2.3,9.4-3.8c3.3-1.6,6.6-3.4,9.8-5.3c4.9-3,9.7-6.4,14.2-10c7.2-5.9,14.1-12.2,20.7-19
		l-23.4-28.2l5.7-4.3l15.7,17.9h75.5c5.5,0.2,10.8-1.9,14.8-5.7c3.9-3.8,5.8-8.7,5.8-14.7V76.2C632.9,76.2,594.9,76.2,594.9,76.2z"
		/>
	<path class="st0" d="M596.3,152.5c-8.6-0.1-15.6,6.8-15.7,15.4c-0.1,8.6,6.8,15.6,15.4,15.7c4.2,0.1,8.2-1.6,11.1-4.6
		c2.9-2.9,4.5-6.8,4.6-10.9C611.8,159.5,604.9,152.5,596.3,152.5z"/>
</g>
</svg>
