<svg xmlns="http://www.w3.org/2000/svg" width="462.92" height="249.69" viewBox="0 0 462.92 249.69"><defs><style>.a{fill:#fff;}</style></defs><title>Asset 1a</title><path class="a" d="M26.72,204.75a2.2,2.2,0,1,0-1.5-3.75,2.13,2.13,0,0,0-.09,3.1A2.26,2.26,0,0,0,26.72,204.75Z"/><path class="a" d="M28.79,209.91h0a1.73,1.73,0,0,1-.47,1.5,2.88,2.88,0,0,1-1.41.94,3.57,3.57,0,0,1-1.69.28,3.43,3.43,0,0,1-2.25-.75,2.42,2.42,0,0,1-.94-2.06,7.86,7.86,0,0,1,1.31-3.75l-4.22-2.16A15.07,15.07,0,0,0,17,210.84a8,8,0,0,0,.47,2.53,6.83,6.83,0,0,0,2.91,3.38,9.43,9.43,0,0,0,4.5,1.13A10.17,10.17,0,0,0,30,216.47a9,9,0,0,0,2.06-1.69,6,6,0,0,0,1.41-2.35,8.27,8.27,0,0,0,.56-3.1v-2.91H28.79v3.47Z"/><rect class="a" x="36.1" y="195.83" width="5.25" height="15.67"/><rect class="a" x="52.52" y="213.47" width="7.79" height="3.57"/><path class="a" d="M57,206h0c-.09.09-.09.09-.09.19-.09.38-.38.56-.66.47H46.43v2.06a5.48,5.48,0,0,1-1.22,3.57,9.2,9.2,0,0,1-3.75,2.53L44,219.2a12.29,12.29,0,0,0,3.75-2.06,9.16,9.16,0,0,0,1.69-1.6,7.23,7.23,0,0,0,1.31-2,11,11,0,0,0,.84-2.25h7.79a2.88,2.88,0,0,0,2.91-2.91v-5.72H57V206Z"/><rect class="a" x="64.16" y="195.83" width="5.25" height="15.67"/><rect class="a" x="90.71" y="213.47" width="7.79" height="3.57"/><path class="a" d="M95.22,206h-.09v.19c-.09.38-.38.56-.66.47H89.4A6.38,6.38,0,0,0,88,202.21a4.92,4.92,0,0,0-3.85-1.69,6.09,6.09,0,0,0-2.91.75,4.93,4.93,0,0,0-1.78,2.16,7,7,0,0,0-.56,3.1h-.75a2.85,2.85,0,0,0-2,.75,2.3,2.3,0,0,0-.75,2v9.95h5.35v-7.32a.62.62,0,0,1,.66-.56h7.23l.09-.66a2.21,2.21,0,0,0,1.5.66h7.32a2.88,2.88,0,0,0,2.91-2.91v-5.72H95.22V206Zm-11.92.66c0-1,.28-1.6.84-1.6a.79.79,0,0,1,.66.38,4.75,4.75,0,0,1,.19,1.22Z"/><path class="a" d="M124,197.9a3.88,3.88,0,0,0-2.72-.75,5.22,5.22,0,0,0-3.94,1.5,3.89,3.89,0,0,0-1.13,1.88,6.61,6.61,0,0,0-.38,2.72l.09,1.13v.19a.84.84,0,0,0,.94.75h4.69v1.41h-7.13a1.51,1.51,0,0,1-.84-.28,7,7,0,0,1-.66-1.13l-3.57-6.76-4.69,2.63L107,205.5a1.51,1.51,0,0,1,.28.84c0,.28-.28.38-.75.38h-4v4.88h6.19a4.65,4.65,0,0,0,2.53-.66,5.31,5.31,0,0,0,2.91.66h.47c.09,0,.09.09.19.09h8.54a3,3,0,0,0,2.16-.84,2.91,2.91,0,0,0,.94-2.25v-5.54a8.13,8.13,0,0,0-.56-3A6,6,0,0,0,124,197.9Z"/><rect class="a" x="116.99" y="191.52" width="7.79" height="3.57"/><path class="a" d="M149.55,202.21,140.91,209l3.28,3.75a4.49,4.49,0,0,1-1.6.94,6.07,6.07,0,0,1-1.88.38,5.46,5.46,0,0,1-1.78-.28,2.43,2.43,0,0,1-1.31-1,2.81,2.81,0,0,1-.56-1.69,7.53,7.53,0,0,1,1-3.19l-4.41-2.35a16.72,16.72,0,0,0-1.5,6.38,9.66,9.66,0,0,0,.56,3.28,6.26,6.26,0,0,0,1.78,2.35,10.15,10.15,0,0,0,8.82,1.41,7.91,7.91,0,0,0,1.31-.56,10.26,10.26,0,0,0,1.41-.75c.66-.47,1.31-.84,2-1.41a38.67,38.67,0,0,0,2.91-2.63l-3.28-3.94,4.69-3.47Z"/><path class="a" d="M181.73,201.46a2.21,2.21,0,1,0-1.5-.66A1.87,1.87,0,0,0,181.73,201.46Z"/><rect class="a" x="185.95" y="213.47" width="7.79" height="3.57"/><path class="a" d="M196.74,206.62a1.07,1.07,0,0,1-.75-.28,1,1,0,0,1-.19-.75v-2.16h-4.32v2.44a.77.77,0,0,1-.94.66h-4.79a1.07,1.07,0,0,1-.75-.28,1,1,0,0,1-.19-.75v-2.16h-4.41v2.44a.77.77,0,0,1-.94.66h-7.13l-4.5-4.88-4.41,4.88h-3.28a.62.62,0,0,1-.56-.66V195.64h-5.25v13a2.79,2.79,0,0,0,2.81,2.63h5.63a7,7,0,0,0,2,2.72,5.66,5.66,0,0,0,6.38,0,5.28,5.28,0,0,0,2-2.72h8.82a4.08,4.08,0,0,1,.56-.66,2.19,2.19,0,0,1,.66.66h9.76a4.08,4.08,0,0,1,.56-.66,2.19,2.19,0,0,1,.66.66h18.77v-4.88l-16.14.19Zm-28.81,4.13a1.1,1.1,0,0,1-1-.75l.94-1,1,1.13A.93.93,0,0,1,167.94,210.75Z"/><path class="a" d="M251,202.87v3.28c-.09.38-.38.56-.66.47h-4.69a1.51,1.51,0,0,1-.84-.28,17.13,17.13,0,0,1-1.22-1.5l-3.38-4.41,6.1-2v-5l-10.6,3.28-1.6,3.75,4.79,6H228.65a.62.62,0,0,1-.56-.66v-3h-5.44v5.72a2.91,2.91,0,0,0,.84,2.06,2.49,2.49,0,0,0,2.06.75h27.77a2.88,2.88,0,0,0,2.91-2.91v-5.63H251Z"/><rect class="a" x="246.48" y="213.47" width="7.79" height="3.57"/><rect class="a" x="258.77" y="201.46" width="7.79" height="3.19"/><path class="a" d="M262.71,201.09a2,2,0,0,0,1.22-.47,1.78,1.78,0,0,0,.47-1.22,1.55,1.55,0,0,0-1.69-1.6,2,2,0,0,0-1.22.47,1.44,1.44,0,0,0-.47,1.22A1.55,1.55,0,0,0,262.71,201.09Z"/><path class="a" d="M270.12,206H270v.19c-.09.38-.38.56-.66.47H261.3v2.06a5.48,5.48,0,0,1-1.22,3.57,9.2,9.2,0,0,1-3.75,2.53l2.53,4.41a12.29,12.29,0,0,0,3.75-2.06,9.16,9.16,0,0,0,1.69-1.6,7.23,7.23,0,0,0,1.31-2,11,11,0,0,0,.84-2.25h6.29a2.72,2.72,0,0,0,2.63-2.81V195.74h-5.25V206Z"/><rect class="a" x="285.7" y="197.99" width="7.79" height="3.57"/><path class="a" d="M294.33,206.62a1.07,1.07,0,0,1-.75-.28,1,1,0,0,1-.19-.75v-2.16h-4.32v2.44a.77.77,0,0,1-.94.66h-5.07a.62.62,0,0,1-.56-.66V195.74h-5.25v13a2.79,2.79,0,0,0,2.81,2.63h10.6a4.09,4.09,0,0,1,.56-.66,1.26,1.26,0,0,1,.56.66h18.77v-4.88l-16,.09h-.19Z"/><path class="a" d="M328.67,206h-.28v.19c-.09.38-.38.56-.66.47h-4.5a8.63,8.63,0,0,0-.56-3.1,5.07,5.07,0,0,0-7.51-2.16,4.93,4.93,0,0,0-1.78,2.16,7,7,0,0,0-.56,3.1l.84,4.88h3.75a8.09,8.09,0,0,1-4.32,3.38l2.53,4.41a11.74,11.74,0,0,0,4.6-2.81,10.89,10.89,0,0,0,1.88-2.25,7.62,7.62,0,0,0,1.13-2.72H331a2.88,2.88,0,0,0,2.91-2.91v-5.72h-5.25Zm-11.64.66c0-1,.28-1.6.84-1.6a.79.79,0,0,1,.66.38,2.58,2.58,0,0,1,.19,1.22Z"/><path class="a" d="M330.46,200.9a2.21,2.21,0,1,0-1.5-.66A2.2,2.2,0,0,0,330.46,200.9Z"/><path class="a" d="M378.68,206.62a.83.83,0,0,1-.84-.75,6.87,6.87,0,0,0-.75-2.35,6.12,6.12,0,0,0-1.5-2,7.6,7.6,0,0,0-3.66-1.88,17.66,17.66,0,0,0-5-.66h-.19l.38,5.07c.56,0,1.13.09,1.5.09a4.71,4.71,0,0,1,1.13.19l1.13.28a3.47,3.47,0,0,1,1,.47,2.53,2.53,0,0,1,.75.66,1.51,1.51,0,0,1,.28.84v.09h-8.44a3.33,3.33,0,0,1-.94-.19,1.13,1.13,0,0,1-.47-.47,1.33,1.33,0,0,1-.19-.56.72.72,0,0,0-.19-.47.19.19,0,0,0-.38,0c-.09.09-.09.28-.19.47s-.09.38-.19.56a1.13,1.13,0,0,1-.47.47,1.69,1.69,0,0,1-.94.19h-.38a3.33,3.33,0,0,1-.94-.19,1.13,1.13,0,0,1-.47-.47,1.33,1.33,0,0,1-.19-.56.72.72,0,0,0-.19-.47.19.19,0,0,0-.38,0c-.09.19-.09.28-.19.47s-.09.38-.19.56a1.13,1.13,0,0,1-.47.47,1.69,1.69,0,0,1-.94.19h-5V210a2.13,2.13,0,0,1-.56,1.5,2.88,2.88,0,0,1-1.41.94,3.57,3.57,0,0,1-1.69.28,3,3,0,0,1-2.16-.75,2.42,2.42,0,0,1-.94-2.06,7.86,7.86,0,0,1,1.31-3.75L341.62,204a15.07,15.07,0,0,0-2.16,6.94,8.48,8.48,0,0,0,.38,2.63,6.83,6.83,0,0,0,2.91,3.38,9.43,9.43,0,0,0,4.5,1.13,11,11,0,0,0,4.6-1,12,12,0,0,0,2-1.31,9.42,9.42,0,0,0,1.5-1.88,7.24,7.24,0,0,0,.94-2.35,3.33,3.33,0,0,0,.94-.19,1.13,1.13,0,0,0,.47-.47l.28-.47a.2.2,0,0,1,.19-.19c.09,0,.09.09.19.09l.19.38a1.3,1.3,0,0,0,.28.38.94.94,0,0,0,.47.38,1.32,1.32,0,0,0,.84.09h.56a1.89,1.89,0,0,0,1.22-.38l.28-.28c.09-.09.09-.19.19-.38s.09-.19.09-.28.09-.09.19-.09.09.09.19.09l.19.38a1.3,1.3,0,0,0,.28.38.94.94,0,0,0,.47.38,1.32,1.32,0,0,0,.84.09h1.22v-.09h13.51v-4.88h-.56C378.78,206.62,378.68,206.62,378.68,206.62Z"/><path class="a" d="M390.13,208.69h0a4.94,4.94,0,0,1-1.13,3.57,9.2,9.2,0,0,1-3.75,2.53l2.53,4.41a13.45,13.45,0,0,0,4.22-2.44,8.93,8.93,0,0,0,1.78-2,8.5,8.5,0,0,0,1.22-2.44,9.83,9.83,0,0,0,.47-2.81v-2.91h-5.35Z"/><path class="a" d="M405.71,201.37a5.68,5.68,0,0,0-5.72,0,4.93,4.93,0,0,0-1.78,2.16,8.29,8.29,0,0,0-.66,3.1l.84,4.88h3.75a8.09,8.09,0,0,1-4.32,3.38l2.53,4.41a13.45,13.45,0,0,0,4.22-2.44,8.93,8.93,0,0,0,1.78-2,8.5,8.5,0,0,0,1.22-2.44,9.83,9.83,0,0,0,.47-2.81v-2.91a8.63,8.63,0,0,0-.56-3.1A5.31,5.31,0,0,0,405.71,201.37ZM402,206.62c0-1,.28-1.6.84-1.6a.63.63,0,0,1,.66.38,2.58,2.58,0,0,1,.19,1.22Z"/><rect class="a" x="410.02" y="199.02" width="5.25" height="12.48"/><path class="a" d="M415.56,192.74a2.6,2.6,0,0,1-1.88,1.22,7.48,7.48,0,0,1-1.41-.28,4.38,4.38,0,0,0-1.6-.28q-1.69,0-3.38,2.25l2.06,2.44a2.25,2.25,0,0,1,1.88-1.13,4.77,4.77,0,0,1,1.6.28,5.31,5.31,0,0,0,1.69.28c1.31,0,2.44-.84,3.38-2.44Z"/><path class="a" d="M424,198.46l-4.69,2.63,2.16,4.13a4.06,4.06,0,0,1,.47,1.13c0,.28-.28.38-.75.38h-4v4.88h6.76a4.09,4.09,0,0,0,3.85-4.32,7.39,7.39,0,0,0-.94-3.47Z"/><rect class="a" x="436.11" y="213.47" width="7.79" height="3.57"/><path class="a" d="M440.61,202.87h0v3.28c-.09.38-.38.56-.66.47h-4.32a.62.62,0,0,1-.56-.66V195.83h-5.25v13a2.79,2.79,0,0,0,2.81,2.63h10.42a2.88,2.88,0,0,0,2.91-2.91v-5.72h-5.35Z"/><path class="a" d="M57.72,236h2.12a5.05,5.05,0,0,1,2,.3,2.42,2.42,0,0,1,1.09.93,2.57,2.57,0,0,1,.4,1.4,2.51,2.51,0,0,1-.35,1.31,2.59,2.59,0,0,1-1,1,4,4,0,0,1,1.29.67,2.69,2.69,0,0,1,.7.93,2.79,2.79,0,0,1,.25,1.18,2.9,2.9,0,0,1-.95,2.19,3.55,3.55,0,0,1-2.55.9h-3Zm1.05,1.05v3.45h.62A4.8,4.8,0,0,0,61,240.3a1.78,1.78,0,0,0,.84-.66,1.73,1.73,0,0,0,.31-1,1.42,1.42,0,0,0-.52-1.16,2.61,2.61,0,0,0-1.65-.42Zm0,4.53v4.13h1.34a4.8,4.8,0,0,0,1.73-.23,2,2,0,0,0,.88-.72,1.88,1.88,0,0,0-.14-2.31,2.41,2.41,0,0,0-1.29-.73,9.43,9.43,0,0,0-1.92-.13Z"/><path class="a" d="M66.71,235.53a.85.85,0,0,1,0,1.69.8.8,0,0,1-.59-.25.84.84,0,0,1,0-1.19A.8.8,0,0,1,66.71,235.53Zm-.51,3.28h1v8h-1Z"/><path class="a" d="M69.58,238.81h1v1.43A4.29,4.29,0,0,1,72,239a3.35,3.35,0,0,1,1.63-.41,2.83,2.83,0,0,1,1.59.45,2.71,2.71,0,0,1,1,1.22,6.47,6.47,0,0,1,.33,2.39v4.1h-1V243a9.36,9.36,0,0,0-.11-1.84,2,2,0,0,0-.68-1.19,2.07,2.07,0,0,0-1.32-.4,2.53,2.53,0,0,0-1.67.62,2.88,2.88,0,0,0-1,1.52,10.6,10.6,0,0,0-.15,2.17v2.92h-1Z"/><path class="a" d="M86.9,238.81v8h-1v-1.37a4.4,4.4,0,0,1-1.45,1.18,4,4,0,0,1-4.64-.83,4.11,4.11,0,0,1-1.2-3,4,4,0,0,1,1.21-2.94,3.94,3.94,0,0,1,2.91-1.22,3.76,3.76,0,0,1,1.78.42,4,4,0,0,1,1.4,1.25v-1.46Zm-4.1.78a3.09,3.09,0,0,0-2.73,1.6,3.23,3.23,0,0,0,0,3.22,3.14,3.14,0,0,0,1.16,1.2,3,3,0,0,0,1.56.43,3.2,3.2,0,0,0,1.6-.42,3,3,0,0,0,1.16-1.15,3.27,3.27,0,0,0,.41-1.63,3.17,3.17,0,0,0-.91-2.31A3,3,0,0,0,82.8,239.59Z"/><path class="a" d="M89.42,238.81h1v1.38a4,4,0,0,1,1.1-1.11,3.12,3.12,0,0,1,1.64-.47,2.72,2.72,0,0,1,1.1.23,2.37,2.37,0,0,1,.85.6,3.25,3.25,0,0,1,.57,1.08A3.79,3.79,0,0,1,97,239.09a3,3,0,0,1,1.65-.49,2.59,2.59,0,0,1,1.46.42,2.49,2.49,0,0,1,.94,1.16,6.21,6.21,0,0,1,.31,2.24v4.35h-1v-4.35a5.69,5.69,0,0,0-.18-1.76,1.59,1.59,0,0,0-.62-.77,1.86,1.86,0,0,0-1.05-.29,2.3,2.3,0,0,0-1.36.44,2.53,2.53,0,0,0-.9,1.17,7.42,7.42,0,0,0-.28,2.45v3.12h-1V242.7a7,7,0,0,0-.18-2,1.65,1.65,0,0,0-.63-.83A1.81,1.81,0,0,0,93,239.6a2.29,2.29,0,0,0-1.33.43,2.53,2.53,0,0,0-.92,1.15,6.23,6.23,0,0,0-.3,2.22v3.38h-1Z"/><path class="a" d="M111.66,238.81v8h-1v-1.37a4.4,4.4,0,0,1-1.45,1.18,4,4,0,0,1-4.64-.83,4.11,4.11,0,0,1-1.2-3,4,4,0,0,1,1.21-2.94,3.94,3.94,0,0,1,2.91-1.22,3.76,3.76,0,0,1,1.78.42,4,4,0,0,1,1.4,1.25v-1.46Zm-4.1.78a3.09,3.09,0,0,0-2.73,1.6,3.23,3.23,0,0,0,0,3.22,3.14,3.14,0,0,0,1.16,1.2,3,3,0,0,0,1.56.43,3.2,3.2,0,0,0,1.6-.42,3,3,0,0,0,1.16-1.15,3.27,3.27,0,0,0,.41-1.63,3.17,3.17,0,0,0-.91-2.31A3,3,0,0,0,107.57,239.59Z"/><path class="a" d="M115.21,244.8l1,.47L114.72,248l-.73-.31Z"/><path class="a" d="M130.89,238.81v8h-1v-1.37a4.4,4.4,0,0,1-1.45,1.18,4,4,0,0,1-4.64-.83,4.11,4.11,0,0,1-1.2-3,4,4,0,0,1,1.21-2.94,3.94,3.94,0,0,1,2.91-1.22,3.76,3.76,0,0,1,1.78.42,4,4,0,0,1,1.4,1.25v-1.46Zm-4.1.78a3.09,3.09,0,0,0-2.73,1.6,3.23,3.23,0,0,0,0,3.22,3.14,3.14,0,0,0,1.16,1.2,3,3,0,0,0,1.56.43,3.2,3.2,0,0,0,1.6-.42,3,3,0,0,0,1.16-1.15,3.27,3.27,0,0,0,.41-1.63,3.17,3.17,0,0,0-.91-2.31A3,3,0,0,0,126.79,239.59Z"/><path class="a" d="M137.81,238.81h1v1.46a4.11,4.11,0,0,1,1.4-1.25,3.72,3.72,0,0,1,1.76-.42,3.93,3.93,0,0,1,2.9,1.22,4,4,0,0,1,1.21,2.94,4.11,4.11,0,0,1-1.2,3,4,4,0,0,1-4.64.83,4.4,4.4,0,0,1-1.44-1.18v4.28h-1Zm4.1.78a3,3,0,0,0-2.24.93,3.18,3.18,0,0,0-.91,2.31,3.28,3.28,0,0,0,.41,1.63,3,3,0,0,0,1.16,1.15,3.21,3.21,0,0,0,1.6.42,3,3,0,0,0,1.55-.43,3.14,3.14,0,0,0,1.16-1.2,3.23,3.23,0,0,0,0-3.22,3.09,3.09,0,0,0-2.73-1.6Z"/><path class="a" d="M155,244.13l.86.45a4.72,4.72,0,0,1-1,1.35,3.89,3.89,0,0,1-1.25.78A4.36,4.36,0,0,1,152,247a3.81,3.81,0,0,1-3-1.28,4.31,4.31,0,0,1-1.1-2.89,4.26,4.26,0,0,1,.93-2.7A3.81,3.81,0,0,1,152,238.6a3.93,3.93,0,0,1,3.25,1.55,4.31,4.31,0,0,1,.88,2.72h-7.17a3.25,3.25,0,0,0,.89,2.28,2.83,2.83,0,0,0,2.12.89,3.4,3.4,0,0,0,1.18-.21,3.11,3.11,0,0,0,1-.56A4.79,4.79,0,0,0,155,244.13Zm0-2.15a3.39,3.39,0,0,0-.6-1.31,2.83,2.83,0,0,0-1-.79,3.18,3.18,0,0,0-1.36-.3,2.92,2.92,0,0,0-2,.75A3.41,3.41,0,0,0,149,242Z"/><path class="a" d="M157.84,238.81h1V240a3.67,3.67,0,0,1,1-1,2,2,0,0,1,1.08-.34,1.87,1.87,0,0,1,.91.27l-.53.86a1.43,1.43,0,0,0-.54-.14,1.48,1.48,0,0,0-1,.42,2.67,2.67,0,0,0-.73,1.31,12.54,12.54,0,0,0-.19,2.75v2.7h-1Z"/><path class="a" d="M167,239.68l-.66.68a2.37,2.37,0,0,0-1.61-.8,1.22,1.22,0,0,0-.86.33,1,1,0,0,0-.36.77,1.14,1.14,0,0,0,.29.74,4.13,4.13,0,0,0,1.23.84,4.6,4.6,0,0,1,1.56,1.14,2.08,2.08,0,0,1,.4,1.25,2.25,2.25,0,0,1-.69,1.66,2.35,2.35,0,0,1-1.72.68,3,3,0,0,1-1.32-.3,2.86,2.86,0,0,1-1-.83l.64-.73a2.24,2.24,0,0,0,1.67.89,1.5,1.5,0,0,0,1-.4,1.22,1.22,0,0,0,.43-.93,1.19,1.19,0,0,0-.29-.78,4.6,4.6,0,0,0-1.29-.85A4.14,4.14,0,0,1,163,242a2.07,2.07,0,0,1-.39-1.24,2,2,0,0,1,.62-1.51,2.16,2.16,0,0,1,1.57-.6A3.25,3.25,0,0,1,167,239.68Z"/><path class="a" d="M172.79,238.6a4,4,0,0,1,3.05,1.33,4.28,4.28,0,0,1-.06,5.8,4.21,4.21,0,0,1-6,0,4.27,4.27,0,0,1-.06-5.79A4,4,0,0,1,172.79,238.6Zm0,1a3,3,0,0,0-2.2.94,3.16,3.16,0,0,0-.92,2.29,3.24,3.24,0,0,0,.42,1.61,3,3,0,0,0,1.13,1.15,3.21,3.21,0,0,0,3.13,0,3,3,0,0,0,1.13-1.15,3.24,3.24,0,0,0,.42-1.61,3.15,3.15,0,0,0-.92-2.29A3,3,0,0,0,172.78,239.61Z"/><path class="a" d="M178.4,242.28h4v.89h-4Z"/><path class="a" d="M192.21,238.81v8h-1v-1.37a4.4,4.4,0,0,1-1.45,1.18,4,4,0,0,1-4.64-.83,4.11,4.11,0,0,1-1.2-3,4,4,0,0,1,1.21-2.94A3.94,3.94,0,0,1,188,238.6a3.76,3.76,0,0,1,1.78.42,4,4,0,0,1,1.4,1.25v-1.46Zm-4.1.78a3.09,3.09,0,0,0-2.73,1.6,3.23,3.23,0,0,0,0,3.22,3.14,3.14,0,0,0,1.16,1.2,3,3,0,0,0,1.56.43,3.2,3.2,0,0,0,1.6-.42,3,3,0,0,0,1.16-1.15,3.27,3.27,0,0,0,.41-1.63,3.17,3.17,0,0,0-.91-2.31A3,3,0,0,0,188.11,239.59Z"/><path class="a" d="M194.35,238.81h1V240a3.67,3.67,0,0,1,1-1,2,2,0,0,1,1.08-.34,1.87,1.87,0,0,1,.91.27l-.53.86a1.43,1.43,0,0,0-.54-.14,1.48,1.48,0,0,0-1,.42,2.67,2.67,0,0,0-.73,1.31,12.54,12.54,0,0,0-.19,2.75v2.7h-1Z"/><path class="a" d="M207.41,238.81v8h-1v-1.37a4.4,4.4,0,0,1-1.45,1.18,4,4,0,0,1-4.64-.83,4.11,4.11,0,0,1-1.2-3,4,4,0,0,1,1.21-2.94,3.94,3.94,0,0,1,2.91-1.22A3.76,3.76,0,0,1,205,239a4,4,0,0,1,1.4,1.25v-1.46Zm-4.1.78a3.09,3.09,0,0,0-2.73,1.6,3.23,3.23,0,0,0,0,3.22,3.14,3.14,0,0,0,1.16,1.2,3,3,0,0,0,1.56.43,3.2,3.2,0,0,0,1.6-.42,3,3,0,0,0,1.16-1.15,3.27,3.27,0,0,0,.41-1.63,3.17,3.17,0,0,0-.91-2.31A3,3,0,0,0,203.32,239.59Z"/><path class="a" d="M210,246.78v-11h1v4.45a4.33,4.33,0,0,1,1.44-1.18,4,4,0,0,1,4.64.83,4.11,4.11,0,0,1,1.2,3,4,4,0,0,1-1.21,3,3.93,3.93,0,0,1-2.9,1.22,3.72,3.72,0,0,1-1.76-.42,4.12,4.12,0,0,1-1.4-1.25v1.46Zm4.1-.78a3.09,3.09,0,0,0,2.73-1.6,3.25,3.25,0,0,0,0-3.23,3.15,3.15,0,0,0-1.16-1.2,3,3,0,0,0-1.55-.43,3.2,3.2,0,0,0-1.6.43,3,3,0,0,0-1.16,1.15,3.28,3.28,0,0,0-.41,1.63,3.18,3.18,0,0,0,.91,2.31A3,3,0,0,0,214.11,246Z"/><path class="a" d="M220.76,235.53a.85.85,0,0,1,0,1.69.8.8,0,0,1-.59-.25.84.84,0,0,1,0-1.19A.8.8,0,0,1,220.76,235.53Zm-.51,3.28h1v8h-1Z"/><path class="a" d="M231.37,240.46l-.81.51a3.41,3.41,0,0,0-2.88-1.4,3.33,3.33,0,0,0-2.42.94,3.06,3.06,0,0,0-1,2.28,3.23,3.23,0,0,0,.44,1.64,3.1,3.1,0,0,0,1.21,1.19,3.67,3.67,0,0,0,4.6-1l.81.54a3.85,3.85,0,0,1-1.53,1.33,4.91,4.91,0,0,1-2.19.47,4.33,4.33,0,0,1-3.13-1.2,3.91,3.91,0,0,1-1.25-2.92,4.17,4.17,0,0,1,.58-2.15,4.1,4.1,0,0,1,1.6-1.55,4.67,4.67,0,0,1,2.28-.56,4.87,4.87,0,0,1,1.53.24,4.27,4.27,0,0,1,1.25.63A3.44,3.44,0,0,1,231.37,240.46Z"/><path class="a" d="M241.95,239.68l-.66.68a2.37,2.37,0,0,0-1.61-.8,1.21,1.21,0,0,0-.86.33,1,1,0,0,0-.36.77,1.14,1.14,0,0,0,.29.74,4.12,4.12,0,0,0,1.23.84,4.61,4.61,0,0,1,1.56,1.14,2.08,2.08,0,0,1,.4,1.25,2.25,2.25,0,0,1-.69,1.66,2.35,2.35,0,0,1-1.72.68,3,3,0,0,1-1.32-.3,2.86,2.86,0,0,1-1-.83l.64-.73a2.24,2.24,0,0,0,1.67.89,1.5,1.5,0,0,0,1-.4,1.22,1.22,0,0,0,.43-.93,1.19,1.19,0,0,0-.29-.78,4.59,4.59,0,0,0-1.29-.85,4.14,4.14,0,0,1-1.47-1.1,2.07,2.07,0,0,1-.39-1.24,2,2,0,0,1,.62-1.51,2.16,2.16,0,0,1,1.57-.6A3.25,3.25,0,0,1,241.95,239.68Z"/><path class="a" d="M251.72,240.46l-.81.51a3.41,3.41,0,0,0-2.88-1.4,3.33,3.33,0,0,0-2.42.94,3.06,3.06,0,0,0-1,2.28,3.23,3.23,0,0,0,.44,1.64,3.09,3.09,0,0,0,1.21,1.19,3.67,3.67,0,0,0,4.6-1l.81.54a3.85,3.85,0,0,1-1.53,1.33A4.92,4.92,0,0,1,248,247a4.33,4.33,0,0,1-3.13-1.2,3.91,3.91,0,0,1-1.24-2.92,4.17,4.17,0,0,1,.58-2.15,4.1,4.1,0,0,1,1.6-1.55,4.67,4.67,0,0,1,2.28-.56,4.87,4.87,0,0,1,1.53.24,4.27,4.27,0,0,1,1.25.63A3.44,3.44,0,0,1,251.72,240.46Z"/><path class="a" d="M253.53,238.81h1V240a3.66,3.66,0,0,1,1-1,1.94,1.94,0,0,1,1.08-.34,1.87,1.87,0,0,1,.91.27l-.54.86a1.43,1.43,0,0,0-.54-.14,1.49,1.49,0,0,0-1,.42,2.67,2.67,0,0,0-.72,1.31,12.54,12.54,0,0,0-.19,2.75v2.7h-1Z"/><path class="a" d="M259,235.53a.81.81,0,0,1,.6.25.84.84,0,0,1,0,1.19.84.84,0,0,1-1.44-.59.82.82,0,0,1,.25-.6A.8.8,0,0,1,259,235.53Zm-.51,3.28h1v8h-1Z"/><path class="a" d="M261.9,238.81h1v1.46a4.12,4.12,0,0,1,1.4-1.25,3.72,3.72,0,0,1,1.76-.42,3.93,3.93,0,0,1,2.9,1.22,4,4,0,0,1,1.21,2.94,4.11,4.11,0,0,1-1.2,3,4,4,0,0,1-4.63.83,4.4,4.4,0,0,1-1.44-1.18v4.28h-1Zm4.1.78a3,3,0,0,0-2.24.93,3.17,3.17,0,0,0-.91,2.31,3.28,3.28,0,0,0,.41,1.63,3,3,0,0,0,1.16,1.15,3.21,3.21,0,0,0,1.6.42,3,3,0,0,0,1.55-.43,3.14,3.14,0,0,0,1.16-1.2,3.23,3.23,0,0,0,0-3.22,3.09,3.09,0,0,0-2.73-1.6Z"/><path class="a" d="M273.23,235.85h1v3h1.63v.89h-1.63v7.08h-1V239.7h-1.4v-.89h1.4Z"/><path class="a" d="M290,235.73v11h-1v-1.37a4.4,4.4,0,0,1-1.45,1.18,4,4,0,0,1-4.64-.83,4.11,4.11,0,0,1-1.2-3,4,4,0,0,1,1.21-2.94,3.94,3.94,0,0,1,2.91-1.22,3.76,3.76,0,0,1,1.78.42,4,4,0,0,1,1.4,1.25v-4.54Zm-4.1,3.86a3.09,3.09,0,0,0-2.73,1.6,3.23,3.23,0,0,0,0,3.22,3.15,3.15,0,0,0,1.16,1.2,3,3,0,0,0,1.56.43,3.2,3.2,0,0,0,1.59-.42,3,3,0,0,0,1.16-1.15,3.28,3.28,0,0,0,.41-1.63,3.17,3.17,0,0,0-.91-2.31A3,3,0,0,0,285.88,239.59Z"/><path class="a" d="M292.88,235.53a.81.81,0,0,1,.6.25.84.84,0,0,1,0,1.19.84.84,0,0,1-1.44-.59.82.82,0,0,1,.25-.6A.8.8,0,0,1,292.88,235.53Zm-.51,3.28h1v8h-1Z"/><path class="a" d="M299.76,239.68l-.66.68a2.37,2.37,0,0,0-1.61-.8,1.21,1.21,0,0,0-.86.33,1,1,0,0,0-.36.77,1.14,1.14,0,0,0,.29.74,4.12,4.12,0,0,0,1.23.84,4.61,4.61,0,0,1,1.56,1.14,2.08,2.08,0,0,1,.4,1.25,2.25,2.25,0,0,1-.69,1.66,2.35,2.35,0,0,1-1.72.68,3,3,0,0,1-1.32-.3,2.86,2.86,0,0,1-1-.83l.64-.73a2.24,2.24,0,0,0,1.67.89,1.5,1.5,0,0,0,1-.4,1.22,1.22,0,0,0,.43-.93,1.19,1.19,0,0,0-.29-.78,4.59,4.59,0,0,0-1.29-.85,4.14,4.14,0,0,1-1.47-1.1,2.07,2.07,0,0,1-.39-1.24,2,2,0,0,1,.62-1.51,2.16,2.16,0,0,1,1.57-.6A3.25,3.25,0,0,1,299.76,239.68Z"/><path class="a" d="M301.82,238.81h1v1.46a4.12,4.12,0,0,1,1.4-1.25,3.72,3.72,0,0,1,1.76-.42,3.93,3.93,0,0,1,2.9,1.22,4,4,0,0,1,1.21,2.94,4.11,4.11,0,0,1-1.2,3,4,4,0,0,1-4.63.83,4.4,4.4,0,0,1-1.44-1.18v4.28h-1Zm4.1.78a3,3,0,0,0-2.24.93,3.17,3.17,0,0,0-.91,2.31,3.28,3.28,0,0,0,.41,1.63,3,3,0,0,0,1.16,1.15,3.21,3.21,0,0,0,1.6.42,3,3,0,0,0,1.55-.43,3.14,3.14,0,0,0,1.16-1.2,3.23,3.23,0,0,0,0-3.22,3.09,3.09,0,0,0-2.73-1.6Z"/><path class="a" d="M312.1,235.73h1v11h-1Z"/><path class="a" d="M323.43,238.81v8h-1v-1.37a4.4,4.4,0,0,1-1.45,1.18,4,4,0,0,1-4.64-.83,4.11,4.11,0,0,1-1.2-3,4,4,0,0,1,1.21-2.94,3.94,3.94,0,0,1,2.91-1.22A3.76,3.76,0,0,1,321,239a4,4,0,0,1,1.4,1.25v-1.46Zm-4.1.78a3.09,3.09,0,0,0-2.73,1.6,3.23,3.23,0,0,0,0,3.22,3.15,3.15,0,0,0,1.16,1.2,3,3,0,0,0,1.56.43,3.2,3.2,0,0,0,1.59-.42,3,3,0,0,0,1.16-1.15,3.28,3.28,0,0,0,.41-1.63,3.17,3.17,0,0,0-.91-2.31A3,3,0,0,0,319.33,239.59Z"/><path class="a" d="M325.1,238.81h1.08l2.74,6.14,2.66-6.14h1.09l-4.75,10.88h-1.08l1.53-3.52Z"/><path class="a" d="M339.5,235.85h1v3h1.63v.89h-1.63v7.08h-1V239.7h-1.4v-.89h1.4Z"/><path class="a" d="M343.05,238.81h1.08l2.74,6.14,2.66-6.14h1.09l-4.75,10.88h-1.08l1.53-3.52Z"/><path class="a" d="M352.19,238.81h1v1.46a4.12,4.12,0,0,1,1.4-1.25,3.72,3.72,0,0,1,1.76-.42,3.93,3.93,0,0,1,2.9,1.22,4,4,0,0,1,1.21,2.94,4.11,4.11,0,0,1-1.2,3,4,4,0,0,1-4.63.83,4.4,4.4,0,0,1-1.44-1.18v4.28h-1Zm4.1.78a3,3,0,0,0-2.24.93,3.17,3.17,0,0,0-.91,2.31,3.28,3.28,0,0,0,.41,1.63,3,3,0,0,0,1.16,1.15,3.21,3.21,0,0,0,1.6.42,3,3,0,0,0,1.55-.43,3.14,3.14,0,0,0,1.16-1.2,3.23,3.23,0,0,0,0-3.22,3.09,3.09,0,0,0-2.73-1.6Z"/><path class="a" d="M369.34,244.13l.86.45a4.72,4.72,0,0,1-1,1.35,3.88,3.88,0,0,1-1.25.78,4.36,4.36,0,0,1-1.58.27,3.81,3.81,0,0,1-3-1.28,4.31,4.31,0,0,1-1.1-2.89,4.26,4.26,0,0,1,.93-2.7,3.8,3.8,0,0,1,3.16-1.51,3.93,3.93,0,0,1,3.25,1.55,4.31,4.31,0,0,1,.88,2.72H363.3a3.24,3.24,0,0,0,.89,2.28,2.83,2.83,0,0,0,2.12.89,3.39,3.39,0,0,0,1.18-.21,3.1,3.1,0,0,0,1-.56A4.75,4.75,0,0,0,369.34,244.13Zm0-2.15a3.39,3.39,0,0,0-.6-1.31,2.83,2.83,0,0,0-1-.79,3.17,3.17,0,0,0-1.36-.3,2.92,2.92,0,0,0-2,.75,3.41,3.41,0,0,0-.93,1.65Z"/><path class="a" d="M375.89,235.73v1a2.54,2.54,0,0,0-1-.24.94.94,0,0,0-.5.12.53.53,0,0,0-.25.28,3.85,3.85,0,0,0-.05.84v1.08h1.66v.89h-1.66v7.08h-1V239.7h-1v-.89h1v-1.25a3.39,3.39,0,0,1,.16-1.22,1.26,1.26,0,0,1,.54-.59,1.76,1.76,0,0,1,.91-.22A4.34,4.34,0,0,1,375.89,235.73Z"/><path class="a" d="M385.48,238.81v8h-1v-1.37a4.4,4.4,0,0,1-1.45,1.18,4,4,0,0,1-4.64-.83,4.11,4.11,0,0,1-1.2-3,4,4,0,0,1,1.21-2.94,3.94,3.94,0,0,1,2.91-1.22,3.76,3.76,0,0,1,1.78.42,4,4,0,0,1,1.4,1.25v-1.46Zm-4.1.78a3.09,3.09,0,0,0-2.73,1.6,3.23,3.23,0,0,0,0,3.22,3.15,3.15,0,0,0,1.16,1.2,3,3,0,0,0,1.56.43,3.2,3.2,0,0,0,1.59-.42,3,3,0,0,0,1.16-1.15,3.28,3.28,0,0,0,.41-1.63,3.17,3.17,0,0,0-.91-2.31A3,3,0,0,0,381.38,239.59Z"/><path class="a" d="M395.75,240.46l-.81.51a3.41,3.41,0,0,0-2.88-1.4,3.33,3.33,0,0,0-2.42.94,3.06,3.06,0,0,0-1,2.28,3.23,3.23,0,0,0,.44,1.64,3.09,3.09,0,0,0,1.21,1.19,3.67,3.67,0,0,0,4.6-1l.81.54a3.85,3.85,0,0,1-1.53,1.33A4.92,4.92,0,0,1,392,247a4.33,4.33,0,0,1-3.13-1.2,3.91,3.91,0,0,1-1.24-2.92,4.17,4.17,0,0,1,.58-2.15,4.1,4.1,0,0,1,1.6-1.55,4.67,4.67,0,0,1,2.28-.56,4.87,4.87,0,0,1,1.53.24,4.27,4.27,0,0,1,1.25.63A3.44,3.44,0,0,1,395.75,240.46Z"/><path class="a" d="M404.65,244.13l.86.45a4.72,4.72,0,0,1-1,1.35,3.88,3.88,0,0,1-1.25.78,4.36,4.36,0,0,1-1.58.27,3.81,3.81,0,0,1-3-1.28,4.31,4.31,0,0,1-1.1-2.89,4.26,4.26,0,0,1,.93-2.7,3.8,3.8,0,0,1,3.16-1.51,3.93,3.93,0,0,1,3.25,1.55,4.31,4.31,0,0,1,.88,2.72h-7.17a3.24,3.24,0,0,0,.89,2.28,2.83,2.83,0,0,0,2.12.89,3.39,3.39,0,0,0,1.18-.21,3.1,3.1,0,0,0,1-.56A4.75,4.75,0,0,0,404.65,244.13Zm0-2.15a3.39,3.39,0,0,0-.6-1.31,2.83,2.83,0,0,0-1-.79,3.17,3.17,0,0,0-1.36-.3,2.92,2.92,0,0,0-2,.75,3.41,3.41,0,0,0-.93,1.65Z"/><path class="a" d="M198.22,36a15.8,15.8,0,1,0-11.1-4.6A15.33,15.33,0,0,0,198.22,36Z"/><path class="a" d="M180,72.13h0Q179.85,77,174.9,77H129.48L97.42,42,65.56,77H43c-3.3,0-5-1.6-5-4.79V0H0V91.62c0,6,1.9,11,5.69,14.69A19.79,19.79,0,0,0,20.27,112H60.72A43.2,43.2,0,0,0,75.1,131.28a39,39,0,0,0,45.34,0A42.28,42.28,0,0,0,134.71,112l62.71.1a20.39,20.39,0,0,0,14.78-5.69c3.89-3.8,5.79-8.69,5.79-14.69V50H180V72.13ZM97.7,106.8c-3.1,0-5.4-1.8-7-5.4l6.7-7.5,7.1,7.7C103.1,105,100.8,106.8,97.7,106.8Z"/><path class="a" d="M424.92,50.4V72.2c0,3.2-1.7,4.8-5,4.8h-37.1l-24-32-61.7,48.5,23.4,26.7a31.17,31.17,0,0,1-11.2,7,40,40,0,0,1-13.7,2.5,33.57,33.57,0,0,1-12.9-2.4,21.41,21.41,0,0,1-9.6-7.5,19.57,19.57,0,0,1-3.8-12.1c0-6.8,2.5-14.4,7.6-22.6l-31.6-16.7q-10.8,25.8-10.8,45.9a58.74,58.74,0,0,0,4.5,23.4,45,45,0,0,0,12.6,17c11,8.9,25.4,13.4,43.3,13.4a66.8,66.8,0,0,0,19.8-3.3,63.73,63.73,0,0,0,9.4-3.8c3.3-1.6,6.6-3.4,9.8-5.3a139.61,139.61,0,0,0,14.2-10,246.43,246.43,0,0,0,20.7-19l-23.4-28.2,5.7-4.3,15.7,17.9h75.5a20.43,20.43,0,0,0,14.8-5.7c3.9-3.8,5.8-8.7,5.8-14.7V50.4Z"/><path class="a" d="M426.32,126.7a15.55,15.55,0,1,0-.3,31.1,15,15,0,0,0,11.1-4.6,15.89,15.89,0,0,0,4.6-10.9A15.39,15.39,0,0,0,426.32,126.7Z"/></svg>