<svg id="Layer_1" xmlns="http://www.w3.org/2000/svg" viewBox="0 0 968.13 258.55">
    <filter id="blur-filter" x="-2" y="-2" width="200" height="200">
      <feGaussianBlur in="SourceGraphic" stdDeviation="2" />
    </filter>
  <g id="ffs-captions">
    <path d="M367.46 97.05c.34-3.88.513-8.62.52-14.22 0-1.033-.02-3.08-.06-6.14s-.06-5.58-.06-7.56V48.84l-23 4.14v13.18h-5v-9.83l-17.19 2.33v7.5h-5v-9.83l-17.19 2.33v7.5h-45.35l-7.24 47.69h16.54v4.91h-16.3a7.844 7.844 0 0 1-3.88-.71 3 3 0 0 1-1.16-2.78V66.16l-24.3 10.86v38.78c0 8.787 2.5 16.12 7.5 22s11.73 8.797 20.19 8.75h17.84a25.452 25.452 0 0 0 17.32-6.59c3.013-3.02 4.997-7.287 5.95-12.8a46.51 46.51 0 0 0 .78-6.85v-6.46h10.76a12.43 12.43 0 0 0 6.07-1.49 7.433 7.433 0 0 0 3.62-3.94 13.6 13.6 0 0 0 11.24 5.43 13.84 13.84 0 0 0 11.37-5.56c3.707 3.707 8.833 5.56 15.38 5.56 3.915.054 7.78-.878 11.24-2.71a16.504 16.504 0 0 0 7.24-7.11 31.2 31.2 0 0 0 2.17-6.98z"/>
    <path d="M373.13 102.09a16.314 16.314 0 0 1-1 6.07 27.946 27.946 0 0 1-2.07 4.07c-.86 1.42-1.593 2.54-2.2 3.36-.607.82-1.577 2.07-2.91 3.75s-2.13 2.737-2.39 3.17l19.39 14.86c5.773-7.067 9.133-11.29 10.08-12.67a46.846 46.846 0 0 0 4.27-7.76 18.557 18.557 0 0 0 1.81-7.63V50.26l-24.98 3.62v48.21zM477.71 44.18c-3.793-8.353-10.387-12.53-19.78-12.53h-1.68a19.823 19.823 0 0 0-13.57 5.82 23.85 23.85 0 0 0-7.37 17.45 24.91 24.91 0 0 0 2.33 11.24h-9.82v-40.2l-25.69 5.69 1.42 59.33v3.57c0 5.947 1.767 10.643 5.3 14.09s8.293 5.183 14.28 5.21h36.45a20.718 20.718 0 0 0 14.55-5.56 19.149 19.149 0 0 0 6.2-14.35v-.9l.13-33.35c-.22-6.633-1.137-11.803-2.75-15.51zm-17.52 12.28a3.38 3.38 0 0 1-2.52 1.16 3.462 3.462 0 0 1-2.46-1.16 3.37 3.37 0 0 1-.06-5 3.38 3.38 0 0 1 2.52-1.16 3.413 3.413 0 0 1 2.59 1.1 3.577 3.577 0 0 1 1 2.52 3.68 3.68 0 0 1-1.07 2.54zM457.29 25.96a6.18 6.18 0 0 0 6.2-6.16v-.04a6.2 6.2 0 1 0-10.6 4.39 6 6 0 0 0 4.4 1.81zM537.68 59.55a6 6 0 0 0 4.33-1.81 6.09 6.09 0 0 0 0-8.79 6.09 6.09 0 0 0-8.612-.048l-.048.048a6.09 6.09 0 0 0 0 8.79 6 6 0 0 0 4.33 1.81zM523.98 59.55a6 6 0 0 0 4.33-1.81 6.09 6.09 0 0 0 0-8.79 6.09 6.09 0 0 0-8.612-.048l-.048.048a6.09 6.09 0 0 0 0 8.79 6 6 0 0 0 4.33 1.81zM593.64 46.64a6.18 6.18 0 1 0-4.39-1.81 6.001 6.001 0 0 0 4.39 1.81z"/>
    <path d="M581.36 66.16h-10.23V53.88l-24.4 3.62v8.66h-31.54v-9.83h-24.43v36.58a23.781 23.781 0 0 0 1.42 8 19.31 19.31 0 0 0 6.66 9.31 18.23 18.23 0 0 0 11.44 3.62h43c4.667 0 7.897-1.897 9.69-5.69a9.39 9.39 0 0 0 3.94 4.07 11.506 11.506 0 0 0 5.88 1.62h16a17.428 17.428 0 0 0 11.63-5.69 19 19 0 0 0 5.17-13.18V50.9l-24.3 4.78.07 10.48zM687.74 25.96a6.18 6.18 0 0 0 6.2-6.16v-.04a6.2 6.2 0 1 0-10.6 4.39 6 6 0 0 0 4.4 1.81zM708.13 44.18c-3.773-8.353-10.357-12.53-19.75-12.53h-1.68a19.816 19.816 0 0 0-13.57 5.81 23.85 23.85 0 0 0-7.37 17.45 24.93 24.93 0 0 0 2.37 11.25h-12.32v-2.61a20.45 20.45 0 0 0-6.85-15.64 22.758 22.758 0 0 0-15.9-6.46 21.997 21.997 0 0 0-8.66 1.81 23.624 23.624 0 0 0-9.76 7.76 20.529 20.529 0 0 0-3.81 12.53v25.74c0 3.793.043 6.94.13 9.44a11.702 11.702 0 0 0 1 4.52c2.327 5.687 7.41 9.263 15.25 10.73-.26.26-2.027 2.717-5.3 7.37l-.52.78a4.3 4.3 0 0 1-.39.52l-.13.26L640 137.64l3.36-4c1.807-2.153 3.077-3.727 3.81-4.72s1.733-2.417 3-4.27a37.957 37.957 0 0 0 3.17-5.36 32.913 32.913 0 0 0 2-5.43h34.64a20.71 20.71 0 0 0 14.48-5.56 19.149 19.149 0 0 0 6.2-14.35v-.9l.13-33.35c-.12-6.64-1.007-11.813-2.66-15.52zm-72.22 25.59a3.51 3.51 0 0 1-2.59 1 3.559 3.559 0 0 1-2.52-1 3.59 3.59 0 0 1 0-5.17 3.569 3.569 0 0 1 2.52-1 3.66 3.66 0 0 1 2.59 6.2v-.03zm54.74-13.31a3.38 3.38 0 0 1-2.52 1.16 3.462 3.462 0 0 1-2.46-1.16 3.58 3.58 0 0 1-1.16-2.59 3.549 3.549 0 0 1 1.1-2.46 3.367 3.367 0 0 1 2.52-1.15 3.413 3.413 0 0 1 2.59 1.1 3.577 3.577 0 0 1 1 2.52 3.675 3.675 0 0 1-1.08 2.58h.01zM800.05 66.16h-10.08l-7.63-13.83a18.135 18.135 0 0 0-6.85-8.14 21.206 21.206 0 0 0-10.73-3.75h-1.55c-8.187 0-14.133 3.577-17.84 10.73L721.2 96.28l28.83 13.17 11.37-25.33 6.21 18.61a16.794 16.794 0 0 0 5.56 7.88 14.568 14.568 0 0 0 9.44 3.23h24.94a17.428 17.428 0 0 0 11.63-5.69 19 19 0 0 0 5.17-13.18V50.9l-24.3 4.78v10.48zM812.33 46.64a6.18 6.18 0 1 0-4.39-1.81 6.001 6.001 0 0 0 4.39 1.81zM879.8 29.84a6 6 0 0 0 4.33-1.81 6.09 6.09 0 0 0 0-8.79 6.09 6.09 0 0 0-8.612-.048l-.048.048a6.09 6.09 0 0 0 0 8.79 6 6 0 0 0 4.33 1.81zM919.61 66.16c-4.133 0-7.237-.883-9.31-2.65a21.565 21.565 0 0 1-5.43-8.21c-.347-.947-.97-2.37-1.87-4.27s-1.523-3.277-1.87-4.13c-3.713-7.567-9.49-11.35-17.33-11.35h-17.19l-5 22h19.78a8.6 8.6 0 0 1 8.66 8.54v.12h-35.97V25.96l-25.72 5.69 1.42 59.33v3.57c0 5.947 1.767 10.643 5.3 14.09s8.317 5.17 14.35 5.17h66l8.7-47.65h-4.52z"/>
  </g>
  <g id="ffs-section">
    <path d="M51.087 226.407l.099-1.493c0-3.258-1.618-7.761-4.853-13.51l4.699-3.317a49.516 49.516 0 0 1 4.157 9.054 27.412 27.412 0 0 1 1.382 8.601 12.167 12.167 0 0 1-1.89 6.379 20.05 20.05 0 0 1-5.097 5.528 46.498 46.498 0 0 1-15.323 7.54L33 239.884a37.858 37.858 0 0 0 8.502-3.494 29.674 29.674 0 0 0 6.865-5.063c1.791-1.836 2.698-3.476 2.72-4.92zm-9.292-31.326l4.533-4.5 4.599 4.599-4.599 4.533-4.533-4.632zM82.116 238.391l4.533 4.599 4.599-4.599-4.599-4.533zM93.769 203.323l-5.019 2.067c1.879 5.204 2.819 8.852 2.819 10.945a3.883 3.883 0 0 1-1.559 3.527 9.73 9.73 0 0 1-5.086 1.006h-4.906v-.011h-.807a7.525 7.525 0 0 1-5.218-1.68 6.272 6.272 0 0 1-1.879-4.92v-32.061h-4.953v33.487c.008 3.42.9 6.058 2.674 7.916 1.557 1.627 3.766 2.541 6.628 2.743.176.042.359.069.546.077h7.905c4.061 0 7.105-.767 9.132-2.3 2.027-1.534 3.04-3.958 3.04-7.275s-1.106-7.824-3.317-13.521zM168.789 187.899v-5.671a148.503 148.503 0 0 0-21.503 10.038 4.57 4.57 0 0 0-2.023 2.123 40.936 40.936 0 0 0-1.216 5.583l.829.553 1.36.907 1.636 1.106 1.913 1.526a41.075 41.075 0 0 1 1.979 1.703c.737.619 1.386 1.245 1.946 1.879s1.139 1.319 1.736 2.056a16.153 16.153 0 0 1 1.459 2.211c.384.721.691 1.481.918 2.266.237.812.356 1.654.354 2.499a3.536 3.536 0 0 1-.685 2.211c-1.061 1.319-3.685 1.979-7.871 1.979h-8.005v-.01c-3.176 0-5.52-.615-7.031-1.846a9.657 9.657 0 0 1-2.078-2.211 22.467 22.467 0 0 1-1.747-3.317L123.231 197l-4.632 3.206 7.982 17.423a4.234 4.234 0 0 1-2.819 2.41 15.605 15.605 0 0 1-5.34.829 18.478 18.478 0 0 1-9.707-2.376l-1.526 5.307a16.028 16.028 0 0 0 4.887 1.857c2.113.491 4.276.736 6.445.73 5.284 0 9.073-1.219 11.365-3.659 2.508 2.299 6.141 3.501 10.869 3.633.251.09.511.156.782.167h8.999c4.039 0 7.241-.921 9.607-2.764a8.687 8.687 0 0 0 3.549-7.175 14.037 14.037 0 0 0-.951-5.052 20.276 20.276 0 0 0-2.266-4.422 26.06 26.06 0 0 0-3.46-3.914c-1.43-1.386-2.676-2.492-3.737-3.317a101.523 101.523 0 0 0-3.892-2.852c2.853-1.703 6.092-3.413 9.718-5.13a90.287 90.287 0 0 1 9.685-4.002zM199.82 213.327a21.29 21.29 0 0 0-2.266-4.588 10.7 10.7 0 0 0-3.317-3.228 8.771 8.771 0 0 0-4.676-1.227 7.964 7.964 0 0 0-4.975 1.78 11.177 11.177 0 0 0-3.46 4.489 14.203 14.203 0 0 0-1.161 5.683 11.584 11.584 0 0 0 2.101 7.031 7.22 7.22 0 0 0 2.952 2.3c1.398.591 2.905.877 4.422.84h.321c2.135-.007 4.251-.4 6.245-1.163.021.29.021.582 0 .873a11.86 11.86 0 0 1-3.593 5.738 29.622 29.622 0 0 1-6.799 4.953 34.592 34.592 0 0 1-7.562 3.084l1.26 5.307a42.023 42.023 0 0 0 11.354-4.842 26.527 26.527 0 0 0 7.949-7.396 15.765 15.765 0 0 0 2.985-8.977 32.318 32.318 0 0 0-1.78-10.657zm-8.965 7.519h-.486c-3.258 0-4.887-1.61-4.887-4.831l.012-.012a7.958 7.958 0 0 1 1.183-4.212 3.316 3.316 0 0 1 2.686-1.957c1.275 0 2.494.837 3.659 2.51a18.193 18.193 0 0 1 2.532 7.496 11.48 11.48 0 0 1-4.699 1.006zM229.129 220.868c1.884.047 3.76-.264 5.528-.918a3.924 3.924 0 0 0 2.686-2.675 8.853 8.853 0 0 0-.276-1.78 12.012 12.012 0 0 0-1.106-2.609 17.91 17.91 0 0 0-2.311-3.25 28.314 28.314 0 0 0-4.102-3.648 42.88 42.88 0 0 0-6.169-3.836l2.333-5.528a46.248 46.248 0 0 1 7.142 4.223 31.6 31.6 0 0 1 4.953 4.345 23.427 23.427 0 0 1 3.029 4.223 14.83 14.83 0 0 1 2.012 6.998 11.362 11.362 0 0 1-.63 3.626 5.957 5.957 0 0 1-1.636 2.72c-2.292 2.44-6.081 3.659-11.365 3.659a28.133 28.133 0 0 1-6.445-.73 16.028 16.028 0 0 1-4.887-1.857l1.526-5.307a18.468 18.468 0 0 0 9.718 2.344zM253.429 226.407v-44.222h4.953v44.222h-4.953zM276.889 226.407l.1-1.493c0-3.258-1.618-7.761-4.853-13.51l4.699-3.317a49.516 49.516 0 0 1 4.157 9.054 27.412 27.412 0 0 1 1.382 8.601 12.167 12.167 0 0 1-1.89 6.379 20.05 20.05 0 0 1-5.097 5.528 46.493 46.493 0 0 1-15.29 7.584l-1.26-5.307a37.858 37.858 0 0 0 8.502-3.494 29.674 29.674 0 0 0 6.865-5.063c1.767-1.863 2.663-3.518 2.685-4.962zm-9.292-29.326l4.533-4.5 4.599 4.599-4.599 4.533-4.533-4.632zM285.318 186.29c0-5.159.851-8.583 2.554-10.271l1.89.232 2.023.254c1.474.155 2.801.232 3.98.232a27.483 27.483 0 0 0 11.055-2.499l1.647 5.406a28.21 28.21 0 0 1-12.305 2.819 16.76 16.76 0 0 1-5.251-.652 2.094 2.094 0 0 0-.951 1.404 15.705 15.705 0 0 0-.21 3.062l-4.432.013zm8.198 40.117v-38.694h4.953v38.694h-4.953zM333.752 226.407l.1-1.493c0-3.258-1.618-7.761-4.853-13.51l4.699-3.317a49.516 49.516 0 0 1 4.157 9.054 27.412 27.412 0 0 1 1.382 8.601 12.167 12.167 0 0 1-1.89 6.379 20.05 20.05 0 0 1-5.097 5.528 46.493 46.493 0 0 1-15.29 7.584l-1.26-5.307a37.858 37.858 0 0 0 8.502-3.494 29.674 29.674 0 0 0 6.865-5.063c1.768-1.863 2.663-3.518 2.685-4.962zM349.827 226.407v-44.222h4.953v44.222h-4.953zM373.127 193.627l-4.599-4.599-4.533 4.5 4.533 4.632zM408.88 203.234a20.089 20.089 0 0 0-4.013-7.219 7.453 7.453 0 0 0-5.528-2.863c-2.66 0-5.004 1.338-7.031 4.013a15.367 15.367 0 0 0-3.073 9.452 8.67 8.67 0 0 0 2.377 6.28c1.584 1.643 4.072 2.465 7.462 2.465h.166a26.371 26.371 0 0 0 5.793-.84 8.24 8.24 0 0 1-1.979 4.632 5.87 5.87 0 0 1-4.533 1.714h-11.564c-.032.001-.062.01-.094.012a12.508 12.508 0 0 1-8.054-2.62 20.372 20.372 0 0 1-2.476-2.377 25.608 25.608 0 0 1-1.89-2.543 79.91 79.91 0 0 0-2.211-4.113l-4.699 3.317c3.235 5.83 4.853 10.031 4.853 12.603l-.099 1.26c-.022 1.444-.925 3.07-2.709 4.876a29.64 29.64 0 0 1-6.854 5.13 37.858 37.858 0 0 1-8.502 3.494l1.26 5.307a47.403 47.403 0 0 0 15.257-7.584 19.894 19.894 0 0 0 5.086-5.528 12.076 12.076 0 0 0 1.879-6.335c.001-.65-.032-1.3-.1-1.946 1.798 1.725 4.931 2.587 9.397 2.587v-.002h11.597c1.861.016 3.7-.4 5.373-1.216a9.49 9.49 0 0 0 3.693-3.228 17.628 17.628 0 0 0 2.653-9.884 28.043 28.043 0 0 0-1.437-8.844zm-9.441 6.579h-.321l.055.012a6.47 6.47 0 0 1-3.648-.907 2.73 2.73 0 0 1-1.36-2.377 9.949 9.949 0 0 1 1.57-5.406c1.025-1.577 2.13-2.366 3.317-2.366 1.186 0 2.34 1.024 3.46 3.073a22.516 22.516 0 0 1 2.366 7.098c-1.774.497-3.598.79-5.439.873zM404.934 178.956l-4.599-4.599-4.533 4.5 4.533 4.632zM420.942 226.407v-44.222h4.953v44.222h-4.953zM459.039 201.433a8.378 8.378 0 0 1 6.799 3.626 13.792 13.792 0 0 1 2.819 8.734 17.782 17.782 0 0 1-2.753 9.541 5.01 5.01 0 0 1-2.023 2.211 5.188 5.188 0 0 1-2.653.796 4.142 4.142 0 0 1-2.09-.453l-5.528-2.919a12.76 12.76 0 0 0-6.058-1.714 7.141 7.141 0 0 0-4.676 1.47 4.422 4.422 0 0 0-1.802 3.549l1.913 19.469-4.732 2.554-2.366-21.116a12.03 12.03 0 0 1 2.41-7.551 10.69 10.69 0 0 1 6.401-4.013c.516-1.039 1.887-3.283 4.113-6.733 3.081-4.968 6.489-7.451 10.226-7.451zm4.047 12.824a10.316 10.316 0 0 0-1.216-5.119 3.547 3.547 0 0 0-3.096-2.211c-1.688 0-3.328 1.36-4.92 4.079a146.104 146.104 0 0 1-2.653 4.312l9.884 5.285a10.192 10.192 0 0 0 2.023-6.313l-.022-.033zM515.566 187.06l-4.599-4.599-4.533 4.5 4.533 4.632zM516.706 203.323l-5.019 2.067c1.879 5.204 2.819 8.852 2.819 10.945a3.883 3.883 0 0 1-1.559 3.527 9.73 9.73 0 0 1-5.086 1.006h-7.905c-.032.001-.062.01-.094.012a12.506 12.506 0 0 1-8.054-2.62 20.372 20.372 0 0 1-2.476-2.377 25.461 25.461 0 0 1-1.891-2.543 79.91 79.91 0 0 0-2.211-4.113l-4.699 3.317c3.235 5.83 4.853 10.031 4.853 12.603l-.099 1.26c-.044 1.444-.929 3.088-2.653 4.932a29.674 29.674 0 0 1-6.865 5.063 37.858 37.858 0 0 1-8.502 3.494l1.26 5.307a47.403 47.403 0 0 0 15.257-7.584 19.894 19.894 0 0 0 5.086-5.528 12.076 12.076 0 0 0 1.879-6.335 18.419 18.419 0 0 0-.144-1.935c1.776 1.703 4.859 2.562 9.236 2.583.036.003.07.013.107.015h7.905c4.061 0 7.105-.767 9.132-2.3 2.027-1.534 3.04-3.958 3.04-7.275s-1.106-7.824-3.317-13.521zM647.646 204.484l-5.085 2.211a32.289 32.289 0 0 1 1.537 5.34c.304 1.385.482 2.795.531 4.212a4.256 4.256 0 0 1-1.382 3.516 6.511 6.511 0 0 1-4.157 1.106 9.671 9.671 0 0 1-6.512-2.432l1.68-7.031-4.887-1.194-1.293 5.638a6.491 6.491 0 0 1-2.211 3.792 6.115 6.115 0 0 1-3.836 1.227 12.795 12.795 0 0 1-6.932-2.3l2.101-8.358-4.92-1.161-1.592 6.799a6.969 6.969 0 0 1-2.311 3.383 6.744 6.744 0 0 1-4.61 1.636h-5.528c-.03 0-.058.009-.088.01h-1.084a20.205 20.205 0 0 1-9.718-2.134c3.538-3.066 5.307-6.216 5.307-9.452 0-1.666-.999-3.114-2.996-4.345a13.865 13.865 0 0 0-7.396-1.846 20.598 20.598 0 0 0-12.758 4.533l1.492 5.119a11.237 11.237 0 0 1 1.647-.166c3 0 5.16 1.533 6.479 4.599a12.294 12.294 0 0 1-5.406 2.764c-2.389.624-4.85.932-7.319.918-.119.002-.234.025-.35.043a11.42 11.42 0 0 1-3.022-.475 7.934 7.934 0 0 1-2.465-1.194 8.016 8.016 0 0 1-1.78-2.056 9.271 9.271 0 0 1-1.216-3.482l-2.432-17.269-5.185 2.399.486 3.317c-4.842 1.334-8.417 2.974-10.724 4.92a8.711 8.711 0 0 0-3.46 6.832c-.001 1.017.14 2.029.418 3.005.413 1.371 1.725 2.477 3.936 3.317a22.716 22.716 0 0 0 8.115 1.305 35.05 35.05 0 0 0 5.705-.453c2.506 3.582 6.523 5.373 12.051 5.373v-.044h1.415a25.338 25.338 0 0 0 7.286-1.227 36.497 36.497 0 0 0 7.639-3.317 20.074 20.074 0 0 0 6.092 3.317 22.347 22.347 0 0 0 7.418 1.227h1.902v-.044h5.991a11.058 11.058 0 0 0 8.292-3.317 11.751 11.751 0 0 0 4.146 2.499c1.598.579 3.286.874 4.986.873a10.879 10.879 0 0 0 8.159-3.317 10.735 10.735 0 0 0 3.98 2.333 15.5 15.5 0 0 0 5.307.94 12.304 12.304 0 0 0 8.159-2.476c1.968-1.651 2.952-4.138 2.952-7.462a24.258 24.258 0 0 0-.564-5.229 64.441 64.441 0 0 0-1.99-6.722zm-98.759 11.52l-.011-.001a20.35 20.35 0 0 1-4.82-.497 4.543 4.543 0 0 1-2.543-1.227 4.234 4.234 0 0 1 2.023-3.383 36.937 36.937 0 0 1 7.739-3.062l1.106 7.938c-1.917.155-3.081.232-3.494.232zM708.573 187.834l-4.312-4.245-4.212 4.245 4.245 4.312zM699.575 205.39c1.879 5.204 2.819 8.852 2.819 10.945a3.883 3.883 0 0 1-1.559 3.527 9.73 9.73 0 0 1-5.086 1.006l-13.61-.011a28.59 28.59 0 0 0-2.211-9.264 16.292 16.292 0 0 0-2.211-3.77 10.035 10.035 0 0 0-3.129-2.576 8.6 8.6 0 0 0-9.209.807 11.168 11.168 0 0 0-3.46 4.489 14.203 14.203 0 0 0-1.161 5.683 11.316 11.316 0 0 0 2.211 7.064 7.526 7.526 0 0 0 3.073 2.288c1.44.579 2.982.861 4.533.829l6.157-.022a11.993 11.993 0 0 1-3.682 5.671 30.282 30.282 0 0 1-6.766 4.842 35.21 35.21 0 0 1-7.462 2.963l1.26 5.307a38.683 38.683 0 0 0 14.881-7.462c4.047-3.383 6.416-7.157 7.109-11.321l13.667.034c4.061 0 7.105-.767 9.132-2.3 2.027-1.534 3.04-3.958 3.04-7.275s-1.106-7.824-3.317-13.521l-5.019 2.067zm-28.227 15.478c-3.368 0-5.052-1.617-5.052-4.853v-.012a7.954 7.954 0 0 1 1.194-4.223 3.316 3.316 0 0 1 2.686-1.957c1.341 0 2.627.921 3.858 2.764a19.215 19.215 0 0 1 2.499 8.281h-5.185zM698.082 187.834l-4.279-4.245-4.312 4.245 4.312 4.312zM782.122 200.613l4.279-4.312-4.312-4.245-4.212 4.245zM781.607 186.894l-4.2-4.085-4.162 4.085 4.162 4.162zM775.91 196.301l-4.279-4.245-4.312 4.245 4.312 4.312zM829.332 185.954l-4.599-4.599-4.533 4.5 4.533 4.632zM868.523 203.323l-5.019 2.067c1.879 5.204 2.819 8.852 2.819 10.945a3.883 3.883 0 0 1-1.559 3.527 9.724 9.724 0 0 1-5.085 1.006h-7.905c-.039.001-.076.013-.115.016a13.998 13.998 0 0 1-6.917-1.463 6.758 6.758 0 0 1-3.173-4.5 10.921 10.921 0 0 1 3.04-.652h2.753l1.161-5.528h-2.211a31.049 31.049 0 0 1-7.672-1.106 48.838 48.838 0 0 1-7.064-2.311c-5.314-2.211-8.738-3.317-10.271-3.317h-.476a8.846 8.846 0 0 0-5.671 2.499 51.082 51.082 0 0 0-4.113 4.765l3.527 3.04a26.59 26.59 0 0 1 3.626-3.693 4.091 4.091 0 0 1 2.333-1.006h.166c.874.131 1.728.368 2.543.708l5.329 1.946c2.226.825 4.19 1.507 5.893 2.045-.56.39-1.412 1.006-2.554 1.846-1.143.84-2.06 1.504-2.753 1.99a50.787 50.787 0 0 1-2.753 1.769 20.16 20.16 0 0 1-10.271 2.952h-8.477v-.056h-2.465a7.33 7.33 0 0 1-4.743-1.282 6.248 6.248 0 0 1-2.023-3.737l-1.647-7.606-4.92 1.592 2.211 9.165a10.499 10.499 0 0 1-6.224 1.879 8.924 8.924 0 0 1-6.224-2.432l1.714-7.031-4.92-1.194-1.327 5.638a6.634 6.634 0 0 1-2.178 3.836 6.062 6.062 0 0 1-3.704 1.293 14.133 14.133 0 0 1-5.163-1.227 15.94 15.94 0 0 1-4.223-3.007 30.947 30.947 0 0 1-3.173-4.422v.232c-.626-1.253-.973-1.934-1.039-2.045l-4.765 3.527c3.405 5.919 5.248 10.087 5.528 12.504l.066.553c-.008 1.724-.991 3.398-2.952 5.019a22.002 22.002 0 0 1-7.308 3.836 28.055 28.055 0 0 1-8.668 1.404 12.587 12.587 0 0 1-7.098-1.846 6.17 6.17 0 0 1-2.786-5.528c0-2.439 1.08-5.97 3.239-10.591l-5.075-2.045a48.098 48.098 0 0 0-2.554 6.445 21.53 21.53 0 0 0-1.106 6.556 11.748 11.748 0 0 0 1.327 5.528 10.604 10.604 0 0 0 3.648 4.035 18.066 18.066 0 0 0 5.218 2.288 25.7 25.7 0 0 0 6.633.774 28.975 28.975 0 0 0 7.872-1.161 29.95 29.95 0 0 0 7.485-3.206 17.173 17.173 0 0 0 5.461-5.218 12.159 12.159 0 0 0 2.101-6.832 7.762 7.762 0 0 0-.133-1.68 13.908 13.908 0 0 0 6.965 1.647l.619-.066.512-.068v-.066a10.9 10.9 0 0 0 6.998-3.206 10.708 10.708 0 0 0 3.98 2.333 15.03 15.03 0 0 0 5.152.94 16.126 16.126 0 0 0 4.942-.763 12.35 12.35 0 0 0 3.836-1.89c1.931 1.769 4.739 2.653 8.424 2.653h1.762c.226.072.458.125.699.134h8.612a22.477 22.477 0 0 0 10.425-2.399c1.533-.803 2.834-1.54 3.903-2.211 1.098-.678 2.384-1.559 3.858-2.642 1.474-1.084 2.58-1.854 3.317-2.311.575 3.383 1.946 5.812 4.113 7.286s5.484 2.211 9.95 2.211v-.001H859.712c4.061 0 7.105-.767 9.132-2.3 1.997-1.525 2.996-3.946 2.996-7.263s-1.106-7.824-3.317-13.521zM856.926 238.391l4.533 4.599 4.599-4.599-4.599-4.533z"/>
  </g>
</svg>
